<?xml version="1.0" encoding="utf-8" standalone="no"?>
<!DOCTYPE svg PUBLIC "-//W3C//DTD SVG 1.1//EN"
  "http://www.w3.org/Graphics/SVG/1.1/DTD/svg11.dtd">
<!-- Created with matplotlib (http://matplotlib.org/) -->
<svg height="329.950723pt" version="1.1" viewBox="0 0 1146.6328 329.950723" width="1146.6328pt" xmlns="http://www.w3.org/2000/svg" xmlns:xlink="http://www.w3.org/1999/xlink">
 <defs>
  <style type="text/css">
*{stroke-linecap:butt;stroke-linejoin:round;}
  </style>
 </defs>
 <g id="figure_1">
  <g id="patch_1">
   <path d="M 0 329.950723 
L 1146.6328 329.950723 
L 1146.6328 0 
L 0 0 
z
" style="fill:#ffffff;"/>
  </g>
  <g id="axes_1">
   <g id="patch_2">
    <path d="M 18.6328 296.2356 
L 261.241496 296.2356 
L 261.241496 19.0356 
L 18.6328 19.0356 
z
" style="fill:#ffffff;"/>
   </g>
   <g id="matplotlib.axis_1">
    <g id="xtick_1">
     <g id="text_1">
      <!-- 0 -->
      <defs>
       <path d="M 31.78125 66.40625 
Q 24.171875 66.40625 20.328125 58.90625 
Q 16.5 51.421875 16.5 36.375 
Q 16.5 21.390625 20.328125 13.890625 
Q 24.171875 6.390625 31.78125 6.390625 
Q 39.453125 6.390625 43.28125 13.890625 
Q 47.125 21.390625 47.125 36.375 
Q 47.125 51.421875 43.28125 58.90625 
Q 39.453125 66.40625 31.78125 66.40625 
z
M 31.78125 74.21875 
Q 44.046875 74.21875 50.515625 64.515625 
Q 56.984375 54.828125 56.984375 36.375 
Q 56.984375 17.96875 50.515625 8.265625 
Q 44.046875 -1.421875 31.78125 -1.421875 
Q 19.53125 -1.421875 13.0625 8.265625 
Q 6.59375 17.96875 6.59375 36.375 
Q 6.59375 54.828125 13.0625 64.515625 
Q 19.53125 74.21875 31.78125 74.21875 
z
" id="DejaVuSans-30"/>
      </defs>
      <g style="fill:#262626;" transform="translate(31.131193 307.926762)rotate(-90)scale(0.053299 -0.053299)">
       <use xlink:href="#DejaVuSans-30"/>
      </g>
     </g>
    </g>
    <g id="xtick_2">
     <g id="text_2">
      <!-- 2 -->
      <defs>
       <path d="M 19.1875 8.296875 
L 53.609375 8.296875 
L 53.609375 0 
L 7.328125 0 
L 7.328125 8.296875 
Q 12.9375 14.109375 22.625 23.890625 
Q 32.328125 33.6875 34.8125 36.53125 
Q 39.546875 41.84375 41.421875 45.53125 
Q 43.3125 49.21875 43.3125 52.78125 
Q 43.3125 58.59375 39.234375 62.25 
Q 35.15625 65.921875 28.609375 65.921875 
Q 23.96875 65.921875 18.8125 64.3125 
Q 13.671875 62.703125 7.8125 59.421875 
L 7.8125 69.390625 
Q 13.765625 71.78125 18.9375 73 
Q 24.125 74.21875 28.421875 74.21875 
Q 39.75 74.21875 46.484375 68.546875 
Q 53.21875 62.890625 53.21875 53.421875 
Q 53.21875 48.921875 51.53125 44.890625 
Q 49.859375 40.875 45.40625 35.40625 
Q 44.1875 33.984375 37.640625 27.21875 
Q 31.109375 20.453125 19.1875 8.296875 
z
" id="DejaVuSans-32"/>
      </defs>
      <g style="fill:#262626;" transform="translate(75.241865 307.926762)rotate(-90)scale(0.053299 -0.053299)">
       <use xlink:href="#DejaVuSans-32"/>
      </g>
     </g>
    </g>
    <g id="xtick_3">
     <g id="text_3">
      <!-- 4 -->
      <defs>
       <path d="M 37.796875 64.3125 
L 12.890625 25.390625 
L 37.796875 25.390625 
z
M 35.203125 72.90625 
L 47.609375 72.90625 
L 47.609375 25.390625 
L 58.015625 25.390625 
L 58.015625 17.1875 
L 47.609375 17.1875 
L 47.609375 0 
L 37.796875 0 
L 37.796875 17.1875 
L 4.890625 17.1875 
L 4.890625 26.703125 
z
" id="DejaVuSans-34"/>
      </defs>
      <g style="fill:#262626;" transform="translate(119.352537 307.926762)rotate(-90)scale(0.053299 -0.053299)">
       <use xlink:href="#DejaVuSans-34"/>
      </g>
     </g>
    </g>
    <g id="xtick_4">
     <g id="text_4">
      <!-- 6 -->
      <defs>
       <path d="M 33.015625 40.375 
Q 26.375 40.375 22.484375 35.828125 
Q 18.609375 31.296875 18.609375 23.390625 
Q 18.609375 15.53125 22.484375 10.953125 
Q 26.375 6.390625 33.015625 6.390625 
Q 39.65625 6.390625 43.53125 10.953125 
Q 47.40625 15.53125 47.40625 23.390625 
Q 47.40625 31.296875 43.53125 35.828125 
Q 39.65625 40.375 33.015625 40.375 
z
M 52.59375 71.296875 
L 52.59375 62.3125 
Q 48.875 64.0625 45.09375 64.984375 
Q 41.3125 65.921875 37.59375 65.921875 
Q 27.828125 65.921875 22.671875 59.328125 
Q 17.53125 52.734375 16.796875 39.40625 
Q 19.671875 43.65625 24.015625 45.921875 
Q 28.375 48.1875 33.59375 48.1875 
Q 44.578125 48.1875 50.953125 41.515625 
Q 57.328125 34.859375 57.328125 23.390625 
Q 57.328125 12.15625 50.6875 5.359375 
Q 44.046875 -1.421875 33.015625 -1.421875 
Q 20.359375 -1.421875 13.671875 8.265625 
Q 6.984375 17.96875 6.984375 36.375 
Q 6.984375 53.65625 15.1875 63.9375 
Q 23.390625 74.21875 37.203125 74.21875 
Q 40.921875 74.21875 44.703125 73.484375 
Q 48.484375 72.75 52.59375 71.296875 
z
" id="DejaVuSans-36"/>
      </defs>
      <g style="fill:#262626;" transform="translate(163.463209 307.926762)rotate(-90)scale(0.053299 -0.053299)">
       <use xlink:href="#DejaVuSans-36"/>
      </g>
     </g>
    </g>
    <g id="xtick_5">
     <g id="text_5">
      <!-- 8 -->
      <defs>
       <path d="M 31.78125 34.625 
Q 24.75 34.625 20.71875 30.859375 
Q 16.703125 27.09375 16.703125 20.515625 
Q 16.703125 13.921875 20.71875 10.15625 
Q 24.75 6.390625 31.78125 6.390625 
Q 38.8125 6.390625 42.859375 10.171875 
Q 46.921875 13.96875 46.921875 20.515625 
Q 46.921875 27.09375 42.890625 30.859375 
Q 38.875 34.625 31.78125 34.625 
z
M 21.921875 38.8125 
Q 15.578125 40.375 12.03125 44.71875 
Q 8.5 49.078125 8.5 55.328125 
Q 8.5 64.0625 14.71875 69.140625 
Q 20.953125 74.21875 31.78125 74.21875 
Q 42.671875 74.21875 48.875 69.140625 
Q 55.078125 64.0625 55.078125 55.328125 
Q 55.078125 49.078125 51.53125 44.71875 
Q 48 40.375 41.703125 38.8125 
Q 48.828125 37.15625 52.796875 32.3125 
Q 56.78125 27.484375 56.78125 20.515625 
Q 56.78125 9.90625 50.3125 4.234375 
Q 43.84375 -1.421875 31.78125 -1.421875 
Q 19.734375 -1.421875 13.25 4.234375 
Q 6.78125 9.90625 6.78125 20.515625 
Q 6.78125 27.484375 10.78125 32.3125 
Q 14.796875 37.15625 21.921875 38.8125 
z
M 18.3125 54.390625 
Q 18.3125 48.734375 21.84375 45.5625 
Q 25.390625 42.390625 31.78125 42.390625 
Q 38.140625 42.390625 41.71875 45.5625 
Q 45.3125 48.734375 45.3125 54.390625 
Q 45.3125 60.0625 41.71875 63.234375 
Q 38.140625 66.40625 31.78125 66.40625 
Q 25.390625 66.40625 21.84375 63.234375 
Q 18.3125 60.0625 18.3125 54.390625 
z
" id="DejaVuSans-38"/>
      </defs>
      <g style="fill:#262626;" transform="translate(207.573881 307.926762)rotate(-90)scale(0.053299 -0.053299)">
       <use xlink:href="#DejaVuSans-38"/>
      </g>
     </g>
    </g>
    <g id="xtick_6">
     <g id="text_6">
      <!-- 10 -->
      <defs>
       <path d="M 12.40625 8.296875 
L 28.515625 8.296875 
L 28.515625 63.921875 
L 10.984375 60.40625 
L 10.984375 69.390625 
L 28.421875 72.90625 
L 38.28125 72.90625 
L 38.28125 8.296875 
L 54.390625 8.296875 
L 54.390625 0 
L 12.40625 0 
z
" id="DejaVuSans-31"/>
      </defs>
      <g style="fill:#262626;" transform="translate(251.684552 311.317923)rotate(-90)scale(0.053299 -0.053299)">
       <use xlink:href="#DejaVuSans-31"/>
       <use x="63.623047" xlink:href="#DejaVuSans-30"/>
      </g>
     </g>
    </g>
    <g id="text_7">
     <!-- number of components in model -->
     <defs>
      <path d="M 54.890625 33.015625 
L 54.890625 0 
L 45.90625 0 
L 45.90625 32.71875 
Q 45.90625 40.484375 42.875 44.328125 
Q 39.84375 48.1875 33.796875 48.1875 
Q 26.515625 48.1875 22.3125 43.546875 
Q 18.109375 38.921875 18.109375 30.90625 
L 18.109375 0 
L 9.078125 0 
L 9.078125 54.6875 
L 18.109375 54.6875 
L 18.109375 46.1875 
Q 21.34375 51.125 25.703125 53.5625 
Q 30.078125 56 35.796875 56 
Q 45.21875 56 50.046875 50.171875 
Q 54.890625 44.34375 54.890625 33.015625 
z
" id="DejaVuSans-6e"/>
      <path d="M 8.5 21.578125 
L 8.5 54.6875 
L 17.484375 54.6875 
L 17.484375 21.921875 
Q 17.484375 14.15625 20.5 10.265625 
Q 23.53125 6.390625 29.59375 6.390625 
Q 36.859375 6.390625 41.078125 11.03125 
Q 45.3125 15.671875 45.3125 23.6875 
L 45.3125 54.6875 
L 54.296875 54.6875 
L 54.296875 0 
L 45.3125 0 
L 45.3125 8.40625 
Q 42.046875 3.421875 37.71875 1 
Q 33.40625 -1.421875 27.6875 -1.421875 
Q 18.265625 -1.421875 13.375 4.4375 
Q 8.5 10.296875 8.5 21.578125 
z
M 31.109375 56 
z
" id="DejaVuSans-75"/>
      <path d="M 52 44.1875 
Q 55.375 50.25 60.0625 53.125 
Q 64.75 56 71.09375 56 
Q 79.640625 56 84.28125 50.015625 
Q 88.921875 44.046875 88.921875 33.015625 
L 88.921875 0 
L 79.890625 0 
L 79.890625 32.71875 
Q 79.890625 40.578125 77.09375 44.375 
Q 74.3125 48.1875 68.609375 48.1875 
Q 61.625 48.1875 57.5625 43.546875 
Q 53.515625 38.921875 53.515625 30.90625 
L 53.515625 0 
L 44.484375 0 
L 44.484375 32.71875 
Q 44.484375 40.625 41.703125 44.40625 
Q 38.921875 48.1875 33.109375 48.1875 
Q 26.21875 48.1875 22.15625 43.53125 
Q 18.109375 38.875 18.109375 30.90625 
L 18.109375 0 
L 9.078125 0 
L 9.078125 54.6875 
L 18.109375 54.6875 
L 18.109375 46.1875 
Q 21.1875 51.21875 25.484375 53.609375 
Q 29.78125 56 35.6875 56 
Q 41.65625 56 45.828125 52.96875 
Q 50 49.953125 52 44.1875 
z
" id="DejaVuSans-6d"/>
      <path d="M 48.6875 27.296875 
Q 48.6875 37.203125 44.609375 42.84375 
Q 40.53125 48.484375 33.40625 48.484375 
Q 26.265625 48.484375 22.1875 42.84375 
Q 18.109375 37.203125 18.109375 27.296875 
Q 18.109375 17.390625 22.1875 11.75 
Q 26.265625 6.109375 33.40625 6.109375 
Q 40.53125 6.109375 44.609375 11.75 
Q 48.6875 17.390625 48.6875 27.296875 
z
M 18.109375 46.390625 
Q 20.953125 51.265625 25.265625 53.625 
Q 29.59375 56 35.59375 56 
Q 45.5625 56 51.78125 48.09375 
Q 58.015625 40.1875 58.015625 27.296875 
Q 58.015625 14.40625 51.78125 6.484375 
Q 45.5625 -1.421875 35.59375 -1.421875 
Q 29.59375 -1.421875 25.265625 0.953125 
Q 20.953125 3.328125 18.109375 8.203125 
L 18.109375 0 
L 9.078125 0 
L 9.078125 75.984375 
L 18.109375 75.984375 
z
" id="DejaVuSans-62"/>
      <path d="M 56.203125 29.59375 
L 56.203125 25.203125 
L 14.890625 25.203125 
Q 15.484375 15.921875 20.484375 11.0625 
Q 25.484375 6.203125 34.421875 6.203125 
Q 39.59375 6.203125 44.453125 7.46875 
Q 49.3125 8.734375 54.109375 11.28125 
L 54.109375 2.78125 
Q 49.265625 0.734375 44.1875 -0.34375 
Q 39.109375 -1.421875 33.890625 -1.421875 
Q 20.796875 -1.421875 13.15625 6.1875 
Q 5.515625 13.8125 5.515625 26.8125 
Q 5.515625 40.234375 12.765625 48.109375 
Q 20.015625 56 32.328125 56 
Q 43.359375 56 49.78125 48.890625 
Q 56.203125 41.796875 56.203125 29.59375 
z
M 47.21875 32.234375 
Q 47.125 39.59375 43.09375 43.984375 
Q 39.0625 48.390625 32.421875 48.390625 
Q 24.90625 48.390625 20.390625 44.140625 
Q 15.875 39.890625 15.1875 32.171875 
z
" id="DejaVuSans-65"/>
      <path d="M 41.109375 46.296875 
Q 39.59375 47.171875 37.8125 47.578125 
Q 36.03125 48 33.890625 48 
Q 26.265625 48 22.1875 43.046875 
Q 18.109375 38.09375 18.109375 28.8125 
L 18.109375 0 
L 9.078125 0 
L 9.078125 54.6875 
L 18.109375 54.6875 
L 18.109375 46.1875 
Q 20.953125 51.171875 25.484375 53.578125 
Q 30.03125 56 36.53125 56 
Q 37.453125 56 38.578125 55.875 
Q 39.703125 55.765625 41.0625 55.515625 
z
" id="DejaVuSans-72"/>
      <path id="DejaVuSans-20"/>
      <path d="M 30.609375 48.390625 
Q 23.390625 48.390625 19.1875 42.75 
Q 14.984375 37.109375 14.984375 27.296875 
Q 14.984375 17.484375 19.15625 11.84375 
Q 23.34375 6.203125 30.609375 6.203125 
Q 37.796875 6.203125 41.984375 11.859375 
Q 46.1875 17.53125 46.1875 27.296875 
Q 46.1875 37.015625 41.984375 42.703125 
Q 37.796875 48.390625 30.609375 48.390625 
z
M 30.609375 56 
Q 42.328125 56 49.015625 48.375 
Q 55.71875 40.765625 55.71875 27.296875 
Q 55.71875 13.875 49.015625 6.21875 
Q 42.328125 -1.421875 30.609375 -1.421875 
Q 18.84375 -1.421875 12.171875 6.21875 
Q 5.515625 13.875 5.515625 27.296875 
Q 5.515625 40.765625 12.171875 48.375 
Q 18.84375 56 30.609375 56 
z
" id="DejaVuSans-6f"/>
      <path d="M 37.109375 75.984375 
L 37.109375 68.5 
L 28.515625 68.5 
Q 23.6875 68.5 21.796875 66.546875 
Q 19.921875 64.59375 19.921875 59.515625 
L 19.921875 54.6875 
L 34.71875 54.6875 
L 34.71875 47.703125 
L 19.921875 47.703125 
L 19.921875 0 
L 10.890625 0 
L 10.890625 47.703125 
L 2.296875 47.703125 
L 2.296875 54.6875 
L 10.890625 54.6875 
L 10.890625 58.5 
Q 10.890625 67.625 15.140625 71.796875 
Q 19.390625 75.984375 28.609375 75.984375 
z
" id="DejaVuSans-66"/>
      <path d="M 48.78125 52.59375 
L 48.78125 44.1875 
Q 44.96875 46.296875 41.140625 47.34375 
Q 37.3125 48.390625 33.40625 48.390625 
Q 24.65625 48.390625 19.8125 42.84375 
Q 14.984375 37.3125 14.984375 27.296875 
Q 14.984375 17.28125 19.8125 11.734375 
Q 24.65625 6.203125 33.40625 6.203125 
Q 37.3125 6.203125 41.140625 7.25 
Q 44.96875 8.296875 48.78125 10.40625 
L 48.78125 2.09375 
Q 45.015625 0.34375 40.984375 -0.53125 
Q 36.96875 -1.421875 32.421875 -1.421875 
Q 20.0625 -1.421875 12.78125 6.34375 
Q 5.515625 14.109375 5.515625 27.296875 
Q 5.515625 40.671875 12.859375 48.328125 
Q 20.21875 56 33.015625 56 
Q 37.15625 56 41.109375 55.140625 
Q 45.0625 54.296875 48.78125 52.59375 
z
" id="DejaVuSans-63"/>
      <path d="M 18.109375 8.203125 
L 18.109375 -20.796875 
L 9.078125 -20.796875 
L 9.078125 54.6875 
L 18.109375 54.6875 
L 18.109375 46.390625 
Q 20.953125 51.265625 25.265625 53.625 
Q 29.59375 56 35.59375 56 
Q 45.5625 56 51.78125 48.09375 
Q 58.015625 40.1875 58.015625 27.296875 
Q 58.015625 14.40625 51.78125 6.484375 
Q 45.5625 -1.421875 35.59375 -1.421875 
Q 29.59375 -1.421875 25.265625 0.953125 
Q 20.953125 3.328125 18.109375 8.203125 
z
M 48.6875 27.296875 
Q 48.6875 37.203125 44.609375 42.84375 
Q 40.53125 48.484375 33.40625 48.484375 
Q 26.265625 48.484375 22.1875 42.84375 
Q 18.109375 37.203125 18.109375 27.296875 
Q 18.109375 17.390625 22.1875 11.75 
Q 26.265625 6.109375 33.40625 6.109375 
Q 40.53125 6.109375 44.609375 11.75 
Q 48.6875 17.390625 48.6875 27.296875 
z
" id="DejaVuSans-70"/>
      <path d="M 18.3125 70.21875 
L 18.3125 54.6875 
L 36.8125 54.6875 
L 36.8125 47.703125 
L 18.3125 47.703125 
L 18.3125 18.015625 
Q 18.3125 11.328125 20.140625 9.421875 
Q 21.96875 7.515625 27.59375 7.515625 
L 36.8125 7.515625 
L 36.8125 0 
L 27.59375 0 
Q 17.1875 0 13.234375 3.875 
Q 9.28125 7.765625 9.28125 18.015625 
L 9.28125 47.703125 
L 2.6875 47.703125 
L 2.6875 54.6875 
L 9.28125 54.6875 
L 9.28125 70.21875 
z
" id="DejaVuSans-74"/>
      <path d="M 44.28125 53.078125 
L 44.28125 44.578125 
Q 40.484375 46.53125 36.375 47.5 
Q 32.28125 48.484375 27.875 48.484375 
Q 21.1875 48.484375 17.84375 46.4375 
Q 14.5 44.390625 14.5 40.28125 
Q 14.5 37.15625 16.890625 35.375 
Q 19.28125 33.59375 26.515625 31.984375 
L 29.59375 31.296875 
Q 39.15625 29.25 43.1875 25.515625 
Q 47.21875 21.78125 47.21875 15.09375 
Q 47.21875 7.46875 41.1875 3.015625 
Q 35.15625 -1.421875 24.609375 -1.421875 
Q 20.21875 -1.421875 15.453125 -0.5625 
Q 10.6875 0.296875 5.421875 2 
L 5.421875 11.28125 
Q 10.40625 8.6875 15.234375 7.390625 
Q 20.0625 6.109375 24.8125 6.109375 
Q 31.15625 6.109375 34.5625 8.28125 
Q 37.984375 10.453125 37.984375 14.40625 
Q 37.984375 18.0625 35.515625 20.015625 
Q 33.0625 21.96875 24.703125 23.78125 
L 21.578125 24.515625 
Q 13.234375 26.265625 9.515625 29.90625 
Q 5.8125 33.546875 5.8125 39.890625 
Q 5.8125 47.609375 11.28125 51.796875 
Q 16.75 56 26.8125 56 
Q 31.78125 56 36.171875 55.265625 
Q 40.578125 54.546875 44.28125 53.078125 
z
" id="DejaVuSans-73"/>
      <path d="M 9.421875 54.6875 
L 18.40625 54.6875 
L 18.40625 0 
L 9.421875 0 
z
M 9.421875 75.984375 
L 18.40625 75.984375 
L 18.40625 64.59375 
L 9.421875 64.59375 
z
" id="DejaVuSans-69"/>
      <path d="M 45.40625 46.390625 
L 45.40625 75.984375 
L 54.390625 75.984375 
L 54.390625 0 
L 45.40625 0 
L 45.40625 8.203125 
Q 42.578125 3.328125 38.25 0.953125 
Q 33.9375 -1.421875 27.875 -1.421875 
Q 17.96875 -1.421875 11.734375 6.484375 
Q 5.515625 14.40625 5.515625 27.296875 
Q 5.515625 40.1875 11.734375 48.09375 
Q 17.96875 56 27.875 56 
Q 33.9375 56 38.25 53.625 
Q 42.578125 51.265625 45.40625 46.390625 
z
M 14.796875 27.296875 
Q 14.796875 17.390625 18.875 11.75 
Q 22.953125 6.109375 30.078125 6.109375 
Q 37.203125 6.109375 41.296875 11.75 
Q 45.40625 17.390625 45.40625 27.296875 
Q 45.40625 37.203125 41.296875 42.84375 
Q 37.203125 48.484375 30.078125 48.484375 
Q 22.953125 48.484375 18.875 42.84375 
Q 14.796875 37.203125 14.796875 27.296875 
z
" id="DejaVuSans-64"/>
      <path d="M 9.421875 75.984375 
L 18.40625 75.984375 
L 18.40625 0 
L 9.421875 0 
z
" id="DejaVuSans-6c"/>
     </defs>
     <g style="fill:#262626;" transform="translate(77.184948 321.153523)scale(0.0768 -0.0768)">
      <use xlink:href="#DejaVuSans-6e"/>
      <use x="63.378906" xlink:href="#DejaVuSans-75"/>
      <use x="126.757812" xlink:href="#DejaVuSans-6d"/>
      <use x="224.169922" xlink:href="#DejaVuSans-62"/>
      <use x="287.646484" xlink:href="#DejaVuSans-65"/>
      <use x="349.169922" xlink:href="#DejaVuSans-72"/>
      <use x="390.283203" xlink:href="#DejaVuSans-20"/>
      <use x="422.070312" xlink:href="#DejaVuSans-6f"/>
      <use x="483.251953" xlink:href="#DejaVuSans-66"/>
      <use x="518.457031" xlink:href="#DejaVuSans-20"/>
      <use x="550.244141" xlink:href="#DejaVuSans-63"/>
      <use x="605.224609" xlink:href="#DejaVuSans-6f"/>
      <use x="666.40625" xlink:href="#DejaVuSans-6d"/>
      <use x="763.818359" xlink:href="#DejaVuSans-70"/>
      <use x="827.294922" xlink:href="#DejaVuSans-6f"/>
      <use x="888.476562" xlink:href="#DejaVuSans-6e"/>
      <use x="951.855469" xlink:href="#DejaVuSans-65"/>
      <use x="1013.378906" xlink:href="#DejaVuSans-6e"/>
      <use x="1076.757812" xlink:href="#DejaVuSans-74"/>
      <use x="1115.966797" xlink:href="#DejaVuSans-73"/>
      <use x="1168.066406" xlink:href="#DejaVuSans-20"/>
      <use x="1199.853516" xlink:href="#DejaVuSans-69"/>
      <use x="1227.636719" xlink:href="#DejaVuSans-6e"/>
      <use x="1291.015625" xlink:href="#DejaVuSans-20"/>
      <use x="1322.802734" xlink:href="#DejaVuSans-6d"/>
      <use x="1420.214844" xlink:href="#DejaVuSans-6f"/>
      <use x="1481.396484" xlink:href="#DejaVuSans-64"/>
      <use x="1544.873047" xlink:href="#DejaVuSans-65"/>
      <use x="1606.396484" xlink:href="#DejaVuSans-6c"/>
     </g>
    </g>
   </g>
   <g id="matplotlib.axis_2">
    <g id="text_8">
     <!-- cumulative variance explained (%) -->
     <defs>
      <path d="M 34.28125 27.484375 
Q 23.390625 27.484375 19.1875 25 
Q 14.984375 22.515625 14.984375 16.5 
Q 14.984375 11.71875 18.140625 8.90625 
Q 21.296875 6.109375 26.703125 6.109375 
Q 34.1875 6.109375 38.703125 11.40625 
Q 43.21875 16.703125 43.21875 25.484375 
L 43.21875 27.484375 
z
M 52.203125 31.203125 
L 52.203125 0 
L 43.21875 0 
L 43.21875 8.296875 
Q 40.140625 3.328125 35.546875 0.953125 
Q 30.953125 -1.421875 24.3125 -1.421875 
Q 15.921875 -1.421875 10.953125 3.296875 
Q 6 8.015625 6 15.921875 
Q 6 25.140625 12.171875 29.828125 
Q 18.359375 34.515625 30.609375 34.515625 
L 43.21875 34.515625 
L 43.21875 35.40625 
Q 43.21875 41.609375 39.140625 45 
Q 35.0625 48.390625 27.6875 48.390625 
Q 23 48.390625 18.546875 47.265625 
Q 14.109375 46.140625 10.015625 43.890625 
L 10.015625 52.203125 
Q 14.9375 54.109375 19.578125 55.046875 
Q 24.21875 56 28.609375 56 
Q 40.484375 56 46.34375 49.84375 
Q 52.203125 43.703125 52.203125 31.203125 
z
" id="DejaVuSans-61"/>
      <path d="M 2.984375 54.6875 
L 12.5 54.6875 
L 29.59375 8.796875 
L 46.6875 54.6875 
L 56.203125 54.6875 
L 35.6875 0 
L 23.484375 0 
z
" id="DejaVuSans-76"/>
      <path d="M 54.890625 54.6875 
L 35.109375 28.078125 
L 55.90625 0 
L 45.3125 0 
L 29.390625 21.484375 
L 13.484375 0 
L 2.875 0 
L 24.125 28.609375 
L 4.6875 54.6875 
L 15.28125 54.6875 
L 29.78125 35.203125 
L 44.28125 54.6875 
z
" id="DejaVuSans-78"/>
      <path d="M 31 75.875 
Q 24.46875 64.65625 21.28125 53.65625 
Q 18.109375 42.671875 18.109375 31.390625 
Q 18.109375 20.125 21.3125 9.0625 
Q 24.515625 -2 31 -13.1875 
L 23.1875 -13.1875 
Q 15.875 -1.703125 12.234375 9.375 
Q 8.59375 20.453125 8.59375 31.390625 
Q 8.59375 42.28125 12.203125 53.3125 
Q 15.828125 64.359375 23.1875 75.875 
z
" id="DejaVuSans-28"/>
      <path d="M 72.703125 32.078125 
Q 68.453125 32.078125 66.03125 28.46875 
Q 63.625 24.859375 63.625 18.40625 
Q 63.625 12.0625 66.03125 8.421875 
Q 68.453125 4.78125 72.703125 4.78125 
Q 76.859375 4.78125 79.265625 8.421875 
Q 81.6875 12.0625 81.6875 18.40625 
Q 81.6875 24.8125 79.265625 28.4375 
Q 76.859375 32.078125 72.703125 32.078125 
z
M 72.703125 38.28125 
Q 80.421875 38.28125 84.953125 32.90625 
Q 89.5 27.546875 89.5 18.40625 
Q 89.5 9.28125 84.9375 3.921875 
Q 80.375 -1.421875 72.703125 -1.421875 
Q 64.890625 -1.421875 60.34375 3.921875 
Q 55.8125 9.28125 55.8125 18.40625 
Q 55.8125 27.59375 60.375 32.9375 
Q 64.9375 38.28125 72.703125 38.28125 
z
M 22.3125 68.015625 
Q 18.109375 68.015625 15.6875 64.375 
Q 13.28125 60.75 13.28125 54.390625 
Q 13.28125 47.953125 15.671875 44.328125 
Q 18.0625 40.71875 22.3125 40.71875 
Q 26.5625 40.71875 28.96875 44.328125 
Q 31.390625 47.953125 31.390625 54.390625 
Q 31.390625 60.6875 28.953125 64.34375 
Q 26.515625 68.015625 22.3125 68.015625 
z
M 66.40625 74.21875 
L 74.21875 74.21875 
L 28.609375 -1.421875 
L 20.796875 -1.421875 
z
M 22.3125 74.21875 
Q 30.03125 74.21875 34.609375 68.875 
Q 39.203125 63.53125 39.203125 54.390625 
Q 39.203125 45.171875 34.640625 39.84375 
Q 30.078125 34.515625 22.3125 34.515625 
Q 14.546875 34.515625 10.03125 39.859375 
Q 5.515625 45.21875 5.515625 54.390625 
Q 5.515625 63.484375 10.046875 68.84375 
Q 14.59375 74.21875 22.3125 74.21875 
z
" id="DejaVuSans-25"/>
      <path d="M 8.015625 75.875 
L 15.828125 75.875 
Q 23.140625 64.359375 26.78125 53.3125 
Q 30.421875 42.28125 30.421875 31.390625 
Q 30.421875 20.453125 26.78125 9.375 
Q 23.140625 -1.703125 15.828125 -13.1875 
L 8.015625 -13.1875 
Q 14.5 -2 17.703125 9.0625 
Q 20.90625 20.125 20.90625 31.390625 
Q 20.90625 42.671875 17.703125 53.65625 
Q 14.5 64.65625 8.015625 75.875 
z
" id="DejaVuSans-29"/>
     </defs>
     <g style="fill:#262626;" transform="translate(13.0356 224.6148)rotate(-90)scale(0.0768 -0.0768)">
      <use xlink:href="#DejaVuSans-63"/>
      <use x="54.980469" xlink:href="#DejaVuSans-75"/>
      <use x="118.359375" xlink:href="#DejaVuSans-6d"/>
      <use x="215.771484" xlink:href="#DejaVuSans-75"/>
      <use x="279.150391" xlink:href="#DejaVuSans-6c"/>
      <use x="306.933594" xlink:href="#DejaVuSans-61"/>
      <use x="368.212891" xlink:href="#DejaVuSans-74"/>
      <use x="407.421875" xlink:href="#DejaVuSans-69"/>
      <use x="435.205078" xlink:href="#DejaVuSans-76"/>
      <use x="494.384766" xlink:href="#DejaVuSans-65"/>
      <use x="555.908203" xlink:href="#DejaVuSans-20"/>
      <use x="587.695312" xlink:href="#DejaVuSans-76"/>
      <use x="646.875" xlink:href="#DejaVuSans-61"/>
      <use x="708.154297" xlink:href="#DejaVuSans-72"/>
      <use x="749.267578" xlink:href="#DejaVuSans-69"/>
      <use x="777.050781" xlink:href="#DejaVuSans-61"/>
      <use x="838.330078" xlink:href="#DejaVuSans-6e"/>
      <use x="901.708984" xlink:href="#DejaVuSans-63"/>
      <use x="956.689453" xlink:href="#DejaVuSans-65"/>
      <use x="1018.212891" xlink:href="#DejaVuSans-20"/>
      <use x="1050" xlink:href="#DejaVuSans-65"/>
      <use x="1111.507812" xlink:href="#DejaVuSans-78"/>
      <use x="1170.6875" xlink:href="#DejaVuSans-70"/>
      <use x="1234.164062" xlink:href="#DejaVuSans-6c"/>
      <use x="1261.947266" xlink:href="#DejaVuSans-61"/>
      <use x="1323.226562" xlink:href="#DejaVuSans-69"/>
      <use x="1351.009766" xlink:href="#DejaVuSans-6e"/>
      <use x="1414.388672" xlink:href="#DejaVuSans-65"/>
      <use x="1475.912109" xlink:href="#DejaVuSans-64"/>
      <use x="1539.388672" xlink:href="#DejaVuSans-20"/>
      <use x="1571.175781" xlink:href="#DejaVuSans-28"/>
      <use x="1610.189453" xlink:href="#DejaVuSans-25"/>
      <use x="1705.208984" xlink:href="#DejaVuSans-29"/>
     </g>
    </g>
   </g>
   <g id="line2d_1">
    <path clip-path="url(#pfc0d1a2a7c)" d="M 29.660468 283.6356 
L 51.715804 124.630947 
L 73.77114 109.105849 
L 95.826476 95.890898 
L 117.881812 82.953358 
L 139.937148 71.114819 
L 161.992484 59.854081 
L 184.04782 49.291891 
L 206.103156 39.646273 
L 228.158492 31.6356 
L 250.213828 31.6356 
" style="fill:none;stroke:#800080;stroke-linecap:round;stroke-width:2.5;"/>
   </g>
   <g id="line2d_2">
    <path clip-path="url(#pfc0d1a2a7c)" d="M 18.6328 157.6356 
L 261.241496 157.6356 
" style="fill:none;stroke:#d3d3d3;stroke-linecap:round;stroke-width:0.25;"/>
   </g>
   <g id="line2d_3">
    <path clip-path="url(#pfc0d1a2a7c)" d="M 51.715804 296.2356 
L 51.715804 19.0356 
" style="fill:none;stroke:#1f77b4;stroke-dasharray:2,3.3;stroke-dashoffset:0;stroke-width:2;"/>
   </g>
   <g id="line2d_4">
    <path clip-path="url(#pfc0d1a2a7c)" d="M 18.6328 107.2356 
L 261.241496 107.2356 
" style="fill:none;stroke:#d3d3d3;stroke-linecap:round;stroke-width:0.25;"/>
   </g>
   <g id="line2d_5">
    <path clip-path="url(#pfc0d1a2a7c)" d="M 95.826476 296.2356 
L 95.826476 19.0356 
" style="fill:none;stroke:#ff7f0e;stroke-dasharray:2,3.3;stroke-dashoffset:0;stroke-width:2;"/>
   </g>
   <g id="line2d_6">
    <path clip-path="url(#pfc0d1a2a7c)" d="M 18.6328 56.8356 
L 261.241496 56.8356 
" style="fill:none;stroke:#d3d3d3;stroke-linecap:round;stroke-width:0.25;"/>
   </g>
   <g id="line2d_7">
    <path clip-path="url(#pfc0d1a2a7c)" d="M 184.04782 296.2356 
L 184.04782 19.0356 
" style="fill:none;stroke:#2ca02c;stroke-dasharray:2,3.3;stroke-dashoffset:0;stroke-width:2;"/>
   </g>
   <g id="patch_3">
    <path d="M 18.6328 296.2356 
L 261.241496 296.2356 
" style="fill:none;stroke:#cccccc;stroke-linecap:square;stroke-linejoin:miter;"/>
   </g>
   <g id="text_9">
    <g id="patch_4">
     <path d="M 29.660468 160.343033 
L 36.442791 160.343033 
Q 38.041767 160.343033 38.041767 158.744057 
L 38.041767 153.585694 
Q 38.041767 151.986718 36.442791 151.986718 
L 29.660468 151.986718 
Q 28.061492 151.986718 28.061492 153.585694 
L 28.061492 158.744057 
Q 28.061492 160.343033 29.660468 160.343033 
z
" style="fill:#ffffff;opacity:0.8;"/>
    </g>
    <!-- 50 -->
    <defs>
     <path d="M 10.796875 72.90625 
L 49.515625 72.90625 
L 49.515625 64.59375 
L 19.828125 64.59375 
L 19.828125 46.734375 
Q 21.96875 47.46875 24.109375 47.828125 
Q 26.265625 48.1875 28.421875 48.1875 
Q 40.625 48.1875 47.75 41.5 
Q 54.890625 34.8125 54.890625 23.390625 
Q 54.890625 11.625 47.5625 5.09375 
Q 40.234375 -1.421875 26.90625 -1.421875 
Q 22.3125 -1.421875 17.546875 -0.640625 
Q 12.796875 0.140625 7.71875 1.703125 
L 7.71875 11.625 
Q 12.109375 9.234375 16.796875 8.0625 
Q 21.484375 6.890625 26.703125 6.890625 
Q 35.15625 6.890625 40.078125 11.328125 
Q 45.015625 15.765625 45.015625 23.390625 
Q 45.015625 31 40.078125 35.4375 
Q 35.15625 39.890625 26.703125 39.890625 
Q 22.75 39.890625 18.8125 39.015625 
Q 14.890625 38.140625 10.796875 36.28125 
z
" id="DejaVuSans-35"/>
    </defs>
    <g style="fill:#262626;" transform="translate(29.660468 157.6356)scale(0.053299 -0.053299)">
     <use xlink:href="#DejaVuSans-35"/>
     <use x="63.623047" xlink:href="#DejaVuSans-30"/>
    </g>
   </g>
   <g id="text_10">
    <g id="patch_5">
     <path d="M 57.691292 261.610318 
L 57.691292 212.277434 
Q 57.691292 210.943418 56.357276 210.943418 
L 47.074332 210.943418 
Q 45.740316 210.943418 45.740316 212.277434 
L 45.740316 261.610318 
Q 45.740316 262.944334 47.074332 262.944334 
L 56.357276 262.944334 
Q 57.691292 262.944334 57.691292 261.610318 
z
" style="fill:#ffffff;opacity:0.8;"/>
    </g>
    <!-- 1 components explain -->
    <g style="fill:#262626;" transform="translate(50.453144 261.610318)rotate(-90)scale(0.044467 -0.044467)">
     <use xlink:href="#DejaVuSans-31"/>
     <use x="63.623047" xlink:href="#DejaVuSans-20"/>
     <use x="95.410156" xlink:href="#DejaVuSans-63"/>
     <use x="150.390625" xlink:href="#DejaVuSans-6f"/>
     <use x="211.572266" xlink:href="#DejaVuSans-6d"/>
     <use x="308.984375" xlink:href="#DejaVuSans-70"/>
     <use x="372.460938" xlink:href="#DejaVuSans-6f"/>
     <use x="433.642578" xlink:href="#DejaVuSans-6e"/>
     <use x="497.021484" xlink:href="#DejaVuSans-65"/>
     <use x="558.544922" xlink:href="#DejaVuSans-6e"/>
     <use x="621.923828" xlink:href="#DejaVuSans-74"/>
     <use x="661.132812" xlink:href="#DejaVuSans-73"/>
     <use x="713.232422" xlink:href="#DejaVuSans-20"/>
     <use x="745.019531" xlink:href="#DejaVuSans-65"/>
     <use x="806.527344" xlink:href="#DejaVuSans-78"/>
     <use x="865.707031" xlink:href="#DejaVuSans-70"/>
     <use x="929.183594" xlink:href="#DejaVuSans-6c"/>
     <use x="956.966797" xlink:href="#DejaVuSans-61"/>
     <use x="1018.246094" xlink:href="#DejaVuSans-69"/>
     <use x="1046.029297" xlink:href="#DejaVuSans-6e"/>
    </g>
    <!-- 50% of variance -->
    <g style="fill:#262626;" transform="translate(55.432498 255.014235)rotate(-90)scale(0.044467 -0.044467)">
     <use xlink:href="#DejaVuSans-35"/>
     <use x="63.623047" xlink:href="#DejaVuSans-30"/>
     <use x="127.246094" xlink:href="#DejaVuSans-25"/>
     <use x="222.265625" xlink:href="#DejaVuSans-20"/>
     <use x="254.052734" xlink:href="#DejaVuSans-6f"/>
     <use x="315.234375" xlink:href="#DejaVuSans-66"/>
     <use x="350.439453" xlink:href="#DejaVuSans-20"/>
     <use x="382.226562" xlink:href="#DejaVuSans-76"/>
     <use x="441.40625" xlink:href="#DejaVuSans-61"/>
     <use x="502.685547" xlink:href="#DejaVuSans-72"/>
     <use x="543.798828" xlink:href="#DejaVuSans-69"/>
     <use x="571.582031" xlink:href="#DejaVuSans-61"/>
     <use x="632.861328" xlink:href="#DejaVuSans-6e"/>
     <use x="696.240234" xlink:href="#DejaVuSans-63"/>
     <use x="751.220703" xlink:href="#DejaVuSans-65"/>
    </g>
   </g>
   <g id="text_11">
    <g id="patch_6">
     <path d="M 29.660468 109.943033 
L 36.442791 109.943033 
Q 38.041767 109.943033 38.041767 108.344057 
L 38.041767 103.185694 
Q 38.041767 101.586718 36.442791 101.586718 
L 29.660468 101.586718 
Q 28.061492 101.586718 28.061492 103.185694 
L 28.061492 108.344057 
Q 28.061492 109.943033 29.660468 109.943033 
z
" style="fill:#ffffff;opacity:0.8;"/>
    </g>
    <!-- 70 -->
    <defs>
     <path d="M 8.203125 72.90625 
L 55.078125 72.90625 
L 55.078125 68.703125 
L 28.609375 0 
L 18.3125 0 
L 43.21875 64.59375 
L 8.203125 64.59375 
z
" id="DejaVuSans-37"/>
    </defs>
    <g style="fill:#262626;" transform="translate(29.660468 107.2356)scale(0.053299 -0.053299)">
     <use xlink:href="#DejaVuSans-37"/>
     <use x="63.623047" xlink:href="#DejaVuSans-30"/>
    </g>
   </g>
   <g id="text_12">
    <g id="patch_7">
     <path d="M 101.801964 261.610318 
L 101.801964 212.277434 
Q 101.801964 210.943418 100.467948 210.943418 
L 91.185003 210.943418 
Q 89.850987 210.943418 89.850987 212.277434 
L 89.850987 261.610318 
Q 89.850987 262.944334 91.185003 262.944334 
L 100.467948 262.944334 
Q 101.801964 262.944334 101.801964 261.610318 
z
" style="fill:#ffffff;opacity:0.8;"/>
    </g>
    <!-- 3 components explain -->
    <defs>
     <path d="M 40.578125 39.3125 
Q 47.65625 37.796875 51.625 33 
Q 55.609375 28.21875 55.609375 21.1875 
Q 55.609375 10.40625 48.1875 4.484375 
Q 40.765625 -1.421875 27.09375 -1.421875 
Q 22.515625 -1.421875 17.65625 -0.515625 
Q 12.796875 0.390625 7.625 2.203125 
L 7.625 11.71875 
Q 11.71875 9.328125 16.59375 8.109375 
Q 21.484375 6.890625 26.8125 6.890625 
Q 36.078125 6.890625 40.9375 10.546875 
Q 45.796875 14.203125 45.796875 21.1875 
Q 45.796875 27.640625 41.28125 31.265625 
Q 36.765625 34.90625 28.71875 34.90625 
L 20.21875 34.90625 
L 20.21875 43.015625 
L 29.109375 43.015625 
Q 36.375 43.015625 40.234375 45.921875 
Q 44.09375 48.828125 44.09375 54.296875 
Q 44.09375 59.90625 40.109375 62.90625 
Q 36.140625 65.921875 28.71875 65.921875 
Q 24.65625 65.921875 20.015625 65.03125 
Q 15.375 64.15625 9.8125 62.3125 
L 9.8125 71.09375 
Q 15.4375 72.65625 20.34375 73.4375 
Q 25.25 74.21875 29.59375 74.21875 
Q 40.828125 74.21875 47.359375 69.109375 
Q 53.90625 64.015625 53.90625 55.328125 
Q 53.90625 49.265625 50.4375 45.09375 
Q 46.96875 40.921875 40.578125 39.3125 
z
" id="DejaVuSans-33"/>
    </defs>
    <g style="fill:#262626;" transform="translate(94.563816 261.610318)rotate(-90)scale(0.044467 -0.044467)">
     <use xlink:href="#DejaVuSans-33"/>
     <use x="63.623047" xlink:href="#DejaVuSans-20"/>
     <use x="95.410156" xlink:href="#DejaVuSans-63"/>
     <use x="150.390625" xlink:href="#DejaVuSans-6f"/>
     <use x="211.572266" xlink:href="#DejaVuSans-6d"/>
     <use x="308.984375" xlink:href="#DejaVuSans-70"/>
     <use x="372.460938" xlink:href="#DejaVuSans-6f"/>
     <use x="433.642578" xlink:href="#DejaVuSans-6e"/>
     <use x="497.021484" xlink:href="#DejaVuSans-65"/>
     <use x="558.544922" xlink:href="#DejaVuSans-6e"/>
     <use x="621.923828" xlink:href="#DejaVuSans-74"/>
     <use x="661.132812" xlink:href="#DejaVuSans-73"/>
     <use x="713.232422" xlink:href="#DejaVuSans-20"/>
     <use x="745.019531" xlink:href="#DejaVuSans-65"/>
     <use x="806.527344" xlink:href="#DejaVuSans-78"/>
     <use x="865.707031" xlink:href="#DejaVuSans-70"/>
     <use x="929.183594" xlink:href="#DejaVuSans-6c"/>
     <use x="956.966797" xlink:href="#DejaVuSans-61"/>
     <use x="1018.246094" xlink:href="#DejaVuSans-69"/>
     <use x="1046.029297" xlink:href="#DejaVuSans-6e"/>
    </g>
    <!-- 70% of variance -->
    <g style="fill:#262626;" transform="translate(99.54317 255.014235)rotate(-90)scale(0.044467 -0.044467)">
     <use xlink:href="#DejaVuSans-37"/>
     <use x="63.623047" xlink:href="#DejaVuSans-30"/>
     <use x="127.246094" xlink:href="#DejaVuSans-25"/>
     <use x="222.265625" xlink:href="#DejaVuSans-20"/>
     <use x="254.052734" xlink:href="#DejaVuSans-6f"/>
     <use x="315.234375" xlink:href="#DejaVuSans-66"/>
     <use x="350.439453" xlink:href="#DejaVuSans-20"/>
     <use x="382.226562" xlink:href="#DejaVuSans-76"/>
     <use x="441.40625" xlink:href="#DejaVuSans-61"/>
     <use x="502.685547" xlink:href="#DejaVuSans-72"/>
     <use x="543.798828" xlink:href="#DejaVuSans-69"/>
     <use x="571.582031" xlink:href="#DejaVuSans-61"/>
     <use x="632.861328" xlink:href="#DejaVuSans-6e"/>
     <use x="696.240234" xlink:href="#DejaVuSans-63"/>
     <use x="751.220703" xlink:href="#DejaVuSans-65"/>
    </g>
   </g>
   <g id="text_13">
    <g id="patch_8">
     <path d="M 29.660468 59.543033 
L 36.442791 59.543033 
Q 38.041767 59.543033 38.041767 57.944057 
L 38.041767 52.785694 
Q 38.041767 51.186718 36.442791 51.186718 
L 29.660468 51.186718 
Q 28.061492 51.186718 28.061492 52.785694 
L 28.061492 57.944057 
Q 28.061492 59.543033 29.660468 59.543033 
z
" style="fill:#ffffff;opacity:0.8;"/>
    </g>
    <!-- 90 -->
    <defs>
     <path d="M 10.984375 1.515625 
L 10.984375 10.5 
Q 14.703125 8.734375 18.5 7.8125 
Q 22.3125 6.890625 25.984375 6.890625 
Q 35.75 6.890625 40.890625 13.453125 
Q 46.046875 20.015625 46.78125 33.40625 
Q 43.953125 29.203125 39.59375 26.953125 
Q 35.25 24.703125 29.984375 24.703125 
Q 19.046875 24.703125 12.671875 31.3125 
Q 6.296875 37.9375 6.296875 49.421875 
Q 6.296875 60.640625 12.9375 67.421875 
Q 19.578125 74.21875 30.609375 74.21875 
Q 43.265625 74.21875 49.921875 64.515625 
Q 56.59375 54.828125 56.59375 36.375 
Q 56.59375 19.140625 48.40625 8.859375 
Q 40.234375 -1.421875 26.421875 -1.421875 
Q 22.703125 -1.421875 18.890625 -0.6875 
Q 15.09375 0.046875 10.984375 1.515625 
z
M 30.609375 32.421875 
Q 37.25 32.421875 41.125 36.953125 
Q 45.015625 41.5 45.015625 49.421875 
Q 45.015625 57.28125 41.125 61.84375 
Q 37.25 66.40625 30.609375 66.40625 
Q 23.96875 66.40625 20.09375 61.84375 
Q 16.21875 57.28125 16.21875 49.421875 
Q 16.21875 41.5 20.09375 36.953125 
Q 23.96875 32.421875 30.609375 32.421875 
z
" id="DejaVuSans-39"/>
    </defs>
    <g style="fill:#262626;" transform="translate(29.660468 56.8356)scale(0.053299 -0.053299)">
     <use xlink:href="#DejaVuSans-39"/>
     <use x="63.623047" xlink:href="#DejaVuSans-30"/>
    </g>
   </g>
   <g id="text_14">
    <g id="patch_9">
     <path d="M 190.023308 261.610318 
L 190.023308 212.277434 
Q 190.023308 210.943418 188.689292 210.943418 
L 179.406347 210.943418 
Q 178.072331 210.943418 178.072331 212.277434 
L 178.072331 261.610318 
Q 178.072331 262.944334 179.406347 262.944334 
L 188.689292 262.944334 
Q 190.023308 262.944334 190.023308 261.610318 
z
" style="fill:#ffffff;opacity:0.8;"/>
    </g>
    <!-- 7 components explain -->
    <g style="fill:#262626;" transform="translate(182.78516 261.610318)rotate(-90)scale(0.044467 -0.044467)">
     <use xlink:href="#DejaVuSans-37"/>
     <use x="63.623047" xlink:href="#DejaVuSans-20"/>
     <use x="95.410156" xlink:href="#DejaVuSans-63"/>
     <use x="150.390625" xlink:href="#DejaVuSans-6f"/>
     <use x="211.572266" xlink:href="#DejaVuSans-6d"/>
     <use x="308.984375" xlink:href="#DejaVuSans-70"/>
     <use x="372.460938" xlink:href="#DejaVuSans-6f"/>
     <use x="433.642578" xlink:href="#DejaVuSans-6e"/>
     <use x="497.021484" xlink:href="#DejaVuSans-65"/>
     <use x="558.544922" xlink:href="#DejaVuSans-6e"/>
     <use x="621.923828" xlink:href="#DejaVuSans-74"/>
     <use x="661.132812" xlink:href="#DejaVuSans-73"/>
     <use x="713.232422" xlink:href="#DejaVuSans-20"/>
     <use x="745.019531" xlink:href="#DejaVuSans-65"/>
     <use x="806.527344" xlink:href="#DejaVuSans-78"/>
     <use x="865.707031" xlink:href="#DejaVuSans-70"/>
     <use x="929.183594" xlink:href="#DejaVuSans-6c"/>
     <use x="956.966797" xlink:href="#DejaVuSans-61"/>
     <use x="1018.246094" xlink:href="#DejaVuSans-69"/>
     <use x="1046.029297" xlink:href="#DejaVuSans-6e"/>
    </g>
    <!-- 90% of variance -->
    <g style="fill:#262626;" transform="translate(187.764513 255.014235)rotate(-90)scale(0.044467 -0.044467)">
     <use xlink:href="#DejaVuSans-39"/>
     <use x="63.623047" xlink:href="#DejaVuSans-30"/>
     <use x="127.246094" xlink:href="#DejaVuSans-25"/>
     <use x="222.265625" xlink:href="#DejaVuSans-20"/>
     <use x="254.052734" xlink:href="#DejaVuSans-6f"/>
     <use x="315.234375" xlink:href="#DejaVuSans-66"/>
     <use x="350.439453" xlink:href="#DejaVuSans-20"/>
     <use x="382.226562" xlink:href="#DejaVuSans-76"/>
     <use x="441.40625" xlink:href="#DejaVuSans-61"/>
     <use x="502.685547" xlink:href="#DejaVuSans-72"/>
     <use x="543.798828" xlink:href="#DejaVuSans-69"/>
     <use x="571.582031" xlink:href="#DejaVuSans-61"/>
     <use x="632.861328" xlink:href="#DejaVuSans-6e"/>
     <use x="696.240234" xlink:href="#DejaVuSans-63"/>
     <use x="751.220703" xlink:href="#DejaVuSans-65"/>
    </g>
   </g>
   <g id="text_15">
    <!-- aCompCor (CSF mask) -->
    <defs>
     <path d="M 64.40625 67.28125 
L 64.40625 56.890625 
Q 59.421875 61.53125 53.78125 63.8125 
Q 48.140625 66.109375 41.796875 66.109375 
Q 29.296875 66.109375 22.65625 58.46875 
Q 16.015625 50.828125 16.015625 36.375 
Q 16.015625 21.96875 22.65625 14.328125 
Q 29.296875 6.6875 41.796875 6.6875 
Q 48.140625 6.6875 53.78125 8.984375 
Q 59.421875 11.28125 64.40625 15.921875 
L 64.40625 5.609375 
Q 59.234375 2.09375 53.4375 0.328125 
Q 47.65625 -1.421875 41.21875 -1.421875 
Q 24.65625 -1.421875 15.125 8.703125 
Q 5.609375 18.84375 5.609375 36.375 
Q 5.609375 53.953125 15.125 64.078125 
Q 24.65625 74.21875 41.21875 74.21875 
Q 47.75 74.21875 53.53125 72.484375 
Q 59.328125 70.75 64.40625 67.28125 
z
" id="DejaVuSans-43"/>
     <path d="M 53.515625 70.515625 
L 53.515625 60.890625 
Q 47.90625 63.578125 42.921875 64.890625 
Q 37.9375 66.21875 33.296875 66.21875 
Q 25.25 66.21875 20.875 63.09375 
Q 16.5 59.96875 16.5 54.203125 
Q 16.5 49.359375 19.40625 46.890625 
Q 22.3125 44.4375 30.421875 42.921875 
L 36.375 41.703125 
Q 47.40625 39.59375 52.65625 34.296875 
Q 57.90625 29 57.90625 20.125 
Q 57.90625 9.515625 50.796875 4.046875 
Q 43.703125 -1.421875 29.984375 -1.421875 
Q 24.8125 -1.421875 18.96875 -0.25 
Q 13.140625 0.921875 6.890625 3.21875 
L 6.890625 13.375 
Q 12.890625 10.015625 18.65625 8.296875 
Q 24.421875 6.59375 29.984375 6.59375 
Q 38.421875 6.59375 43.015625 9.90625 
Q 47.609375 13.234375 47.609375 19.390625 
Q 47.609375 24.75 44.3125 27.78125 
Q 41.015625 30.8125 33.5 32.328125 
L 27.484375 33.5 
Q 16.453125 35.6875 11.515625 40.375 
Q 6.59375 45.0625 6.59375 53.421875 
Q 6.59375 63.09375 13.40625 68.65625 
Q 20.21875 74.21875 32.171875 74.21875 
Q 37.3125 74.21875 42.625 73.28125 
Q 47.953125 72.359375 53.515625 70.515625 
z
" id="DejaVuSans-53"/>
     <path d="M 9.8125 72.90625 
L 51.703125 72.90625 
L 51.703125 64.59375 
L 19.671875 64.59375 
L 19.671875 43.109375 
L 48.578125 43.109375 
L 48.578125 34.8125 
L 19.671875 34.8125 
L 19.671875 0 
L 9.8125 0 
z
" id="DejaVuSans-46"/>
     <path d="M 9.078125 75.984375 
L 18.109375 75.984375 
L 18.109375 31.109375 
L 44.921875 54.6875 
L 56.390625 54.6875 
L 27.390625 29.109375 
L 57.625 0 
L 45.90625 0 
L 18.109375 26.703125 
L 18.109375 0 
L 9.078125 0 
z
" id="DejaVuSans-6b"/>
    </defs>
    <g style="fill:#262626;" transform="translate(96.682548 13.0356)scale(0.0768 -0.0768)">
     <use xlink:href="#DejaVuSans-61"/>
     <use x="61.279297" xlink:href="#DejaVuSans-43"/>
     <use x="131.103516" xlink:href="#DejaVuSans-6f"/>
     <use x="192.285156" xlink:href="#DejaVuSans-6d"/>
     <use x="289.697266" xlink:href="#DejaVuSans-70"/>
     <use x="353.173828" xlink:href="#DejaVuSans-43"/>
     <use x="422.998047" xlink:href="#DejaVuSans-6f"/>
     <use x="484.179688" xlink:href="#DejaVuSans-72"/>
     <use x="525.292969" xlink:href="#DejaVuSans-20"/>
     <use x="557.080078" xlink:href="#DejaVuSans-28"/>
     <use x="596.09375" xlink:href="#DejaVuSans-43"/>
     <use x="665.917969" xlink:href="#DejaVuSans-53"/>
     <use x="729.394531" xlink:href="#DejaVuSans-46"/>
     <use x="786.914062" xlink:href="#DejaVuSans-20"/>
     <use x="818.701172" xlink:href="#DejaVuSans-6d"/>
     <use x="916.113281" xlink:href="#DejaVuSans-61"/>
     <use x="977.392578" xlink:href="#DejaVuSans-73"/>
     <use x="1029.492188" xlink:href="#DejaVuSans-6b"/>
     <use x="1087.402344" xlink:href="#DejaVuSans-29"/>
    </g>
   </g>
  </g>
  <g id="axes_2">
   <g id="patch_10">
    <path d="M 309.763235 296.2356 
L 552.37193 296.2356 
L 552.37193 19.0356 
L 309.763235 19.0356 
z
" style="fill:#ffffff;"/>
   </g>
   <g id="matplotlib.axis_3">
    <g id="xtick_7">
     <g id="text_16">
      <!-- 0 -->
      <g style="fill:#262626;" transform="translate(322.261628 307.926762)rotate(-90)scale(0.053299 -0.053299)">
       <use xlink:href="#DejaVuSans-30"/>
      </g>
     </g>
    </g>
    <g id="xtick_8">
     <g id="text_17">
      <!-- 2 -->
      <g style="fill:#262626;" transform="translate(366.3723 307.926762)rotate(-90)scale(0.053299 -0.053299)">
       <use xlink:href="#DejaVuSans-32"/>
      </g>
     </g>
    </g>
    <g id="xtick_9">
     <g id="text_18">
      <!-- 4 -->
      <g style="fill:#262626;" transform="translate(410.482971 307.926762)rotate(-90)scale(0.053299 -0.053299)">
       <use xlink:href="#DejaVuSans-34"/>
      </g>
     </g>
    </g>
    <g id="xtick_10">
     <g id="text_19">
      <!-- 6 -->
      <g style="fill:#262626;" transform="translate(454.593643 307.926762)rotate(-90)scale(0.053299 -0.053299)">
       <use xlink:href="#DejaVuSans-36"/>
      </g>
     </g>
    </g>
    <g id="xtick_11">
     <g id="text_20">
      <!-- 8 -->
      <g style="fill:#262626;" transform="translate(498.704315 307.926762)rotate(-90)scale(0.053299 -0.053299)">
       <use xlink:href="#DejaVuSans-38"/>
      </g>
     </g>
    </g>
    <g id="xtick_12">
     <g id="text_21">
      <!-- 10 -->
      <g style="fill:#262626;" transform="translate(542.814987 311.317923)rotate(-90)scale(0.053299 -0.053299)">
       <use xlink:href="#DejaVuSans-31"/>
       <use x="63.623047" xlink:href="#DejaVuSans-30"/>
      </g>
     </g>
    </g>
    <g id="text_22">
     <!-- number of components in model -->
     <g style="fill:#262626;" transform="translate(368.315383 321.153523)scale(0.0768 -0.0768)">
      <use xlink:href="#DejaVuSans-6e"/>
      <use x="63.378906" xlink:href="#DejaVuSans-75"/>
      <use x="126.757812" xlink:href="#DejaVuSans-6d"/>
      <use x="224.169922" xlink:href="#DejaVuSans-62"/>
      <use x="287.646484" xlink:href="#DejaVuSans-65"/>
      <use x="349.169922" xlink:href="#DejaVuSans-72"/>
      <use x="390.283203" xlink:href="#DejaVuSans-20"/>
      <use x="422.070312" xlink:href="#DejaVuSans-6f"/>
      <use x="483.251953" xlink:href="#DejaVuSans-66"/>
      <use x="518.457031" xlink:href="#DejaVuSans-20"/>
      <use x="550.244141" xlink:href="#DejaVuSans-63"/>
      <use x="605.224609" xlink:href="#DejaVuSans-6f"/>
      <use x="666.40625" xlink:href="#DejaVuSans-6d"/>
      <use x="763.818359" xlink:href="#DejaVuSans-70"/>
      <use x="827.294922" xlink:href="#DejaVuSans-6f"/>
      <use x="888.476562" xlink:href="#DejaVuSans-6e"/>
      <use x="951.855469" xlink:href="#DejaVuSans-65"/>
      <use x="1013.378906" xlink:href="#DejaVuSans-6e"/>
      <use x="1076.757812" xlink:href="#DejaVuSans-74"/>
      <use x="1115.966797" xlink:href="#DejaVuSans-73"/>
      <use x="1168.066406" xlink:href="#DejaVuSans-20"/>
      <use x="1199.853516" xlink:href="#DejaVuSans-69"/>
      <use x="1227.636719" xlink:href="#DejaVuSans-6e"/>
      <use x="1291.015625" xlink:href="#DejaVuSans-20"/>
      <use x="1322.802734" xlink:href="#DejaVuSans-6d"/>
      <use x="1420.214844" xlink:href="#DejaVuSans-6f"/>
      <use x="1481.396484" xlink:href="#DejaVuSans-64"/>
      <use x="1544.873047" xlink:href="#DejaVuSans-65"/>
      <use x="1606.396484" xlink:href="#DejaVuSans-6c"/>
     </g>
    </g>
   </g>
   <g id="matplotlib.axis_4">
    <g id="text_23">
     <!-- cumulative variance explained (%) -->
     <g style="fill:#262626;" transform="translate(304.166035 224.6148)rotate(-90)scale(0.0768 -0.0768)">
      <use xlink:href="#DejaVuSans-63"/>
      <use x="54.980469" xlink:href="#DejaVuSans-75"/>
      <use x="118.359375" xlink:href="#DejaVuSans-6d"/>
      <use x="215.771484" xlink:href="#DejaVuSans-75"/>
      <use x="279.150391" xlink:href="#DejaVuSans-6c"/>
      <use x="306.933594" xlink:href="#DejaVuSans-61"/>
      <use x="368.212891" xlink:href="#DejaVuSans-74"/>
      <use x="407.421875" xlink:href="#DejaVuSans-69"/>
      <use x="435.205078" xlink:href="#DejaVuSans-76"/>
      <use x="494.384766" xlink:href="#DejaVuSans-65"/>
      <use x="555.908203" xlink:href="#DejaVuSans-20"/>
      <use x="587.695312" xlink:href="#DejaVuSans-76"/>
      <use x="646.875" xlink:href="#DejaVuSans-61"/>
      <use x="708.154297" xlink:href="#DejaVuSans-72"/>
      <use x="749.267578" xlink:href="#DejaVuSans-69"/>
      <use x="777.050781" xlink:href="#DejaVuSans-61"/>
      <use x="838.330078" xlink:href="#DejaVuSans-6e"/>
      <use x="901.708984" xlink:href="#DejaVuSans-63"/>
      <use x="956.689453" xlink:href="#DejaVuSans-65"/>
      <use x="1018.212891" xlink:href="#DejaVuSans-20"/>
      <use x="1050" xlink:href="#DejaVuSans-65"/>
      <use x="1111.507812" xlink:href="#DejaVuSans-78"/>
      <use x="1170.6875" xlink:href="#DejaVuSans-70"/>
      <use x="1234.164062" xlink:href="#DejaVuSans-6c"/>
      <use x="1261.947266" xlink:href="#DejaVuSans-61"/>
      <use x="1323.226562" xlink:href="#DejaVuSans-69"/>
      <use x="1351.009766" xlink:href="#DejaVuSans-6e"/>
      <use x="1414.388672" xlink:href="#DejaVuSans-65"/>
      <use x="1475.912109" xlink:href="#DejaVuSans-64"/>
      <use x="1539.388672" xlink:href="#DejaVuSans-20"/>
      <use x="1571.175781" xlink:href="#DejaVuSans-28"/>
      <use x="1610.189453" xlink:href="#DejaVuSans-25"/>
      <use x="1705.208984" xlink:href="#DejaVuSans-29"/>
     </g>
    </g>
   </g>
   <g id="line2d_8">
    <path clip-path="url(#p3bd03661ff)" d="M 320.790903 283.6356 
L 342.846239 249.775359 
L 364.901575 219.325066 
L 386.956911 189.958765 
L 409.012247 160.658772 
L 431.067583 131.856209 
L 453.122919 103.375803 
L 475.178255 75.802277 
L 497.233591 50.45241 
L 519.288926 31.6356 
L 541.344262 31.6356 
" style="fill:none;stroke:#800080;stroke-linecap:round;stroke-width:2.5;"/>
   </g>
   <g id="line2d_9">
    <path clip-path="url(#p3bd03661ff)" d="M 309.763235 157.6356 
L 552.37193 157.6356 
" style="fill:none;stroke:#d3d3d3;stroke-linecap:round;stroke-width:0.25;"/>
   </g>
   <g id="line2d_10">
    <path clip-path="url(#p3bd03661ff)" d="M 431.067583 296.2356 
L 431.067583 19.0356 
" style="fill:none;stroke:#1f77b4;stroke-dasharray:2,3.3;stroke-dashoffset:0;stroke-width:2;"/>
   </g>
   <g id="line2d_11">
    <path clip-path="url(#p3bd03661ff)" d="M 309.763235 107.2356 
L 552.37193 107.2356 
" style="fill:none;stroke:#d3d3d3;stroke-linecap:round;stroke-width:0.25;"/>
   </g>
   <g id="line2d_12">
    <path clip-path="url(#p3bd03661ff)" d="M 453.122919 296.2356 
L 453.122919 19.0356 
" style="fill:none;stroke:#ff7f0e;stroke-dasharray:2,3.3;stroke-dashoffset:0;stroke-width:2;"/>
   </g>
   <g id="line2d_13">
    <path clip-path="url(#p3bd03661ff)" d="M 309.763235 56.8356 
L 552.37193 56.8356 
" style="fill:none;stroke:#d3d3d3;stroke-linecap:round;stroke-width:0.25;"/>
   </g>
   <g id="line2d_14">
    <path clip-path="url(#p3bd03661ff)" d="M 497.233591 296.2356 
L 497.233591 19.0356 
" style="fill:none;stroke:#2ca02c;stroke-dasharray:2,3.3;stroke-dashoffset:0;stroke-width:2;"/>
   </g>
   <g id="patch_11">
    <path d="M 309.763235 296.2356 
L 552.37193 296.2356 
" style="fill:none;stroke:#cccccc;stroke-linecap:square;stroke-linejoin:miter;"/>
   </g>
   <g id="text_24">
    <g id="patch_12">
     <path d="M 320.790903 160.343033 
L 327.573226 160.343033 
Q 329.172202 160.343033 329.172202 158.744057 
L 329.172202 153.585694 
Q 329.172202 151.986718 327.573226 151.986718 
L 320.790903 151.986718 
Q 319.191927 151.986718 319.191927 153.585694 
L 319.191927 158.744057 
Q 319.191927 160.343033 320.790903 160.343033 
z
" style="fill:#ffffff;opacity:0.8;"/>
    </g>
    <!-- 50 -->
    <g style="fill:#262626;" transform="translate(320.790903 157.6356)scale(0.053299 -0.053299)">
     <use xlink:href="#DejaVuSans-35"/>
     <use x="63.623047" xlink:href="#DejaVuSans-30"/>
    </g>
   </g>
   <g id="text_25">
    <g id="patch_13">
     <path d="M 437.043071 261.610318 
L 437.043071 212.277434 
Q 437.043071 210.943418 435.709055 210.943418 
L 426.42611 210.943418 
Q 425.092094 210.943418 425.092094 212.277434 
L 425.092094 261.610318 
Q 425.092094 262.944334 426.42611 262.944334 
L 435.709055 262.944334 
Q 437.043071 262.944334 437.043071 261.610318 
z
" style="fill:#ffffff;opacity:0.8;"/>
    </g>
    <!-- 5 components explain -->
    <g style="fill:#262626;" transform="translate(429.804923 261.610318)rotate(-90)scale(0.044467 -0.044467)">
     <use xlink:href="#DejaVuSans-35"/>
     <use x="63.623047" xlink:href="#DejaVuSans-20"/>
     <use x="95.410156" xlink:href="#DejaVuSans-63"/>
     <use x="150.390625" xlink:href="#DejaVuSans-6f"/>
     <use x="211.572266" xlink:href="#DejaVuSans-6d"/>
     <use x="308.984375" xlink:href="#DejaVuSans-70"/>
     <use x="372.460938" xlink:href="#DejaVuSans-6f"/>
     <use x="433.642578" xlink:href="#DejaVuSans-6e"/>
     <use x="497.021484" xlink:href="#DejaVuSans-65"/>
     <use x="558.544922" xlink:href="#DejaVuSans-6e"/>
     <use x="621.923828" xlink:href="#DejaVuSans-74"/>
     <use x="661.132812" xlink:href="#DejaVuSans-73"/>
     <use x="713.232422" xlink:href="#DejaVuSans-20"/>
     <use x="745.019531" xlink:href="#DejaVuSans-65"/>
     <use x="806.527344" xlink:href="#DejaVuSans-78"/>
     <use x="865.707031" xlink:href="#DejaVuSans-70"/>
     <use x="929.183594" xlink:href="#DejaVuSans-6c"/>
     <use x="956.966797" xlink:href="#DejaVuSans-61"/>
     <use x="1018.246094" xlink:href="#DejaVuSans-69"/>
     <use x="1046.029297" xlink:href="#DejaVuSans-6e"/>
    </g>
    <!-- 50% of variance -->
    <g style="fill:#262626;" transform="translate(434.784276 255.014235)rotate(-90)scale(0.044467 -0.044467)">
     <use xlink:href="#DejaVuSans-35"/>
     <use x="63.623047" xlink:href="#DejaVuSans-30"/>
     <use x="127.246094" xlink:href="#DejaVuSans-25"/>
     <use x="222.265625" xlink:href="#DejaVuSans-20"/>
     <use x="254.052734" xlink:href="#DejaVuSans-6f"/>
     <use x="315.234375" xlink:href="#DejaVuSans-66"/>
     <use x="350.439453" xlink:href="#DejaVuSans-20"/>
     <use x="382.226562" xlink:href="#DejaVuSans-76"/>
     <use x="441.40625" xlink:href="#DejaVuSans-61"/>
     <use x="502.685547" xlink:href="#DejaVuSans-72"/>
     <use x="543.798828" xlink:href="#DejaVuSans-69"/>
     <use x="571.582031" xlink:href="#DejaVuSans-61"/>
     <use x="632.861328" xlink:href="#DejaVuSans-6e"/>
     <use x="696.240234" xlink:href="#DejaVuSans-63"/>
     <use x="751.220703" xlink:href="#DejaVuSans-65"/>
    </g>
   </g>
   <g id="text_26">
    <g id="patch_14">
     <path d="M 320.790903 109.943033 
L 327.573226 109.943033 
Q 329.172202 109.943033 329.172202 108.344057 
L 329.172202 103.185694 
Q 329.172202 101.586718 327.573226 101.586718 
L 320.790903 101.586718 
Q 319.191927 101.586718 319.191927 103.185694 
L 319.191927 108.344057 
Q 319.191927 109.943033 320.790903 109.943033 
z
" style="fill:#ffffff;opacity:0.8;"/>
    </g>
    <!-- 70 -->
    <g style="fill:#262626;" transform="translate(320.790903 107.2356)scale(0.053299 -0.053299)">
     <use xlink:href="#DejaVuSans-37"/>
     <use x="63.623047" xlink:href="#DejaVuSans-30"/>
    </g>
   </g>
   <g id="text_27">
    <g id="patch_15">
     <path d="M 459.098407 261.610318 
L 459.098407 212.277434 
Q 459.098407 210.943418 457.764391 210.943418 
L 448.481446 210.943418 
Q 447.14743 210.943418 447.14743 212.277434 
L 447.14743 261.610318 
Q 447.14743 262.944334 448.481446 262.944334 
L 457.764391 262.944334 
Q 459.098407 262.944334 459.098407 261.610318 
z
" style="fill:#ffffff;opacity:0.8;"/>
    </g>
    <!-- 6 components explain -->
    <g style="fill:#262626;" transform="translate(451.860259 261.610318)rotate(-90)scale(0.044467 -0.044467)">
     <use xlink:href="#DejaVuSans-36"/>
     <use x="63.623047" xlink:href="#DejaVuSans-20"/>
     <use x="95.410156" xlink:href="#DejaVuSans-63"/>
     <use x="150.390625" xlink:href="#DejaVuSans-6f"/>
     <use x="211.572266" xlink:href="#DejaVuSans-6d"/>
     <use x="308.984375" xlink:href="#DejaVuSans-70"/>
     <use x="372.460938" xlink:href="#DejaVuSans-6f"/>
     <use x="433.642578" xlink:href="#DejaVuSans-6e"/>
     <use x="497.021484" xlink:href="#DejaVuSans-65"/>
     <use x="558.544922" xlink:href="#DejaVuSans-6e"/>
     <use x="621.923828" xlink:href="#DejaVuSans-74"/>
     <use x="661.132812" xlink:href="#DejaVuSans-73"/>
     <use x="713.232422" xlink:href="#DejaVuSans-20"/>
     <use x="745.019531" xlink:href="#DejaVuSans-65"/>
     <use x="806.527344" xlink:href="#DejaVuSans-78"/>
     <use x="865.707031" xlink:href="#DejaVuSans-70"/>
     <use x="929.183594" xlink:href="#DejaVuSans-6c"/>
     <use x="956.966797" xlink:href="#DejaVuSans-61"/>
     <use x="1018.246094" xlink:href="#DejaVuSans-69"/>
     <use x="1046.029297" xlink:href="#DejaVuSans-6e"/>
    </g>
    <!-- 70% of variance -->
    <g style="fill:#262626;" transform="translate(456.839612 255.014235)rotate(-90)scale(0.044467 -0.044467)">
     <use xlink:href="#DejaVuSans-37"/>
     <use x="63.623047" xlink:href="#DejaVuSans-30"/>
     <use x="127.246094" xlink:href="#DejaVuSans-25"/>
     <use x="222.265625" xlink:href="#DejaVuSans-20"/>
     <use x="254.052734" xlink:href="#DejaVuSans-6f"/>
     <use x="315.234375" xlink:href="#DejaVuSans-66"/>
     <use x="350.439453" xlink:href="#DejaVuSans-20"/>
     <use x="382.226562" xlink:href="#DejaVuSans-76"/>
     <use x="441.40625" xlink:href="#DejaVuSans-61"/>
     <use x="502.685547" xlink:href="#DejaVuSans-72"/>
     <use x="543.798828" xlink:href="#DejaVuSans-69"/>
     <use x="571.582031" xlink:href="#DejaVuSans-61"/>
     <use x="632.861328" xlink:href="#DejaVuSans-6e"/>
     <use x="696.240234" xlink:href="#DejaVuSans-63"/>
     <use x="751.220703" xlink:href="#DejaVuSans-65"/>
    </g>
   </g>
   <g id="text_28">
    <g id="patch_16">
     <path d="M 320.790903 59.543033 
L 327.573226 59.543033 
Q 329.172202 59.543033 329.172202 57.944057 
L 329.172202 52.785694 
Q 329.172202 51.186718 327.573226 51.186718 
L 320.790903 51.186718 
Q 319.191927 51.186718 319.191927 52.785694 
L 319.191927 57.944057 
Q 319.191927 59.543033 320.790903 59.543033 
z
" style="fill:#ffffff;opacity:0.8;"/>
    </g>
    <!-- 90 -->
    <g style="fill:#262626;" transform="translate(320.790903 56.8356)scale(0.053299 -0.053299)">
     <use xlink:href="#DejaVuSans-39"/>
     <use x="63.623047" xlink:href="#DejaVuSans-30"/>
    </g>
   </g>
   <g id="text_29">
    <g id="patch_17">
     <path d="M 503.209079 261.610318 
L 503.209079 212.277434 
Q 503.209079 210.943418 501.875063 210.943418 
L 492.592118 210.943418 
Q 491.258102 210.943418 491.258102 212.277434 
L 491.258102 261.610318 
Q 491.258102 262.944334 492.592118 262.944334 
L 501.875063 262.944334 
Q 503.209079 262.944334 503.209079 261.610318 
z
" style="fill:#ffffff;opacity:0.8;"/>
    </g>
    <!-- 8 components explain -->
    <g style="fill:#262626;" transform="translate(495.97093 261.610318)rotate(-90)scale(0.044467 -0.044467)">
     <use xlink:href="#DejaVuSans-38"/>
     <use x="63.623047" xlink:href="#DejaVuSans-20"/>
     <use x="95.410156" xlink:href="#DejaVuSans-63"/>
     <use x="150.390625" xlink:href="#DejaVuSans-6f"/>
     <use x="211.572266" xlink:href="#DejaVuSans-6d"/>
     <use x="308.984375" xlink:href="#DejaVuSans-70"/>
     <use x="372.460938" xlink:href="#DejaVuSans-6f"/>
     <use x="433.642578" xlink:href="#DejaVuSans-6e"/>
     <use x="497.021484" xlink:href="#DejaVuSans-65"/>
     <use x="558.544922" xlink:href="#DejaVuSans-6e"/>
     <use x="621.923828" xlink:href="#DejaVuSans-74"/>
     <use x="661.132812" xlink:href="#DejaVuSans-73"/>
     <use x="713.232422" xlink:href="#DejaVuSans-20"/>
     <use x="745.019531" xlink:href="#DejaVuSans-65"/>
     <use x="806.527344" xlink:href="#DejaVuSans-78"/>
     <use x="865.707031" xlink:href="#DejaVuSans-70"/>
     <use x="929.183594" xlink:href="#DejaVuSans-6c"/>
     <use x="956.966797" xlink:href="#DejaVuSans-61"/>
     <use x="1018.246094" xlink:href="#DejaVuSans-69"/>
     <use x="1046.029297" xlink:href="#DejaVuSans-6e"/>
    </g>
    <!-- 90% of variance -->
    <g style="fill:#262626;" transform="translate(500.950284 255.014235)rotate(-90)scale(0.044467 -0.044467)">
     <use xlink:href="#DejaVuSans-39"/>
     <use x="63.623047" xlink:href="#DejaVuSans-30"/>
     <use x="127.246094" xlink:href="#DejaVuSans-25"/>
     <use x="222.265625" xlink:href="#DejaVuSans-20"/>
     <use x="254.052734" xlink:href="#DejaVuSans-6f"/>
     <use x="315.234375" xlink:href="#DejaVuSans-66"/>
     <use x="350.439453" xlink:href="#DejaVuSans-20"/>
     <use x="382.226562" xlink:href="#DejaVuSans-76"/>
     <use x="441.40625" xlink:href="#DejaVuSans-61"/>
     <use x="502.685547" xlink:href="#DejaVuSans-72"/>
     <use x="543.798828" xlink:href="#DejaVuSans-69"/>
     <use x="571.582031" xlink:href="#DejaVuSans-61"/>
     <use x="632.861328" xlink:href="#DejaVuSans-6e"/>
     <use x="696.240234" xlink:href="#DejaVuSans-63"/>
     <use x="751.220703" xlink:href="#DejaVuSans-65"/>
    </g>
   </g>
   <g id="text_30">
    <!-- aCompCor (WM mask) -->
    <defs>
     <path d="M 3.328125 72.90625 
L 13.28125 72.90625 
L 28.609375 11.28125 
L 43.890625 72.90625 
L 54.984375 72.90625 
L 70.3125 11.28125 
L 85.59375 72.90625 
L 95.609375 72.90625 
L 77.296875 0 
L 64.890625 0 
L 49.515625 63.28125 
L 33.984375 0 
L 21.578125 0 
z
" id="DejaVuSans-57"/>
     <path d="M 9.8125 72.90625 
L 24.515625 72.90625 
L 43.109375 23.296875 
L 61.8125 72.90625 
L 76.515625 72.90625 
L 76.515625 0 
L 66.890625 0 
L 66.890625 64.015625 
L 48.09375 14.015625 
L 38.1875 14.015625 
L 19.390625 64.015625 
L 19.390625 0 
L 9.8125 0 
z
" id="DejaVuSans-4d"/>
    </defs>
    <g style="fill:#262626;" transform="translate(388.030783 13.0356)scale(0.0768 -0.0768)">
     <use xlink:href="#DejaVuSans-61"/>
     <use x="61.279297" xlink:href="#DejaVuSans-43"/>
     <use x="131.103516" xlink:href="#DejaVuSans-6f"/>
     <use x="192.285156" xlink:href="#DejaVuSans-6d"/>
     <use x="289.697266" xlink:href="#DejaVuSans-70"/>
     <use x="353.173828" xlink:href="#DejaVuSans-43"/>
     <use x="422.998047" xlink:href="#DejaVuSans-6f"/>
     <use x="484.179688" xlink:href="#DejaVuSans-72"/>
     <use x="525.292969" xlink:href="#DejaVuSans-20"/>
     <use x="557.080078" xlink:href="#DejaVuSans-28"/>
     <use x="596.09375" xlink:href="#DejaVuSans-57"/>
     <use x="694.970703" xlink:href="#DejaVuSans-4d"/>
     <use x="781.25" xlink:href="#DejaVuSans-20"/>
     <use x="813.037109" xlink:href="#DejaVuSans-6d"/>
     <use x="910.449219" xlink:href="#DejaVuSans-61"/>
     <use x="971.728516" xlink:href="#DejaVuSans-73"/>
     <use x="1023.828125" xlink:href="#DejaVuSans-6b"/>
     <use x="1081.738281" xlink:href="#DejaVuSans-29"/>
    </g>
   </g>
  </g>
  <g id="axes_3">
   <g id="patch_18">
    <path d="M 600.89367 296.2356 
L 843.502365 296.2356 
L 843.502365 19.0356 
L 600.89367 19.0356 
z
" style="fill:#ffffff;"/>
   </g>
   <g id="matplotlib.axis_5">
    <g id="xtick_13">
     <g id="text_31">
      <!-- 0 -->
      <g style="fill:#262626;" transform="translate(613.392062 307.926762)rotate(-90)scale(0.053299 -0.053299)">
       <use xlink:href="#DejaVuSans-30"/>
      </g>
     </g>
    </g>
    <g id="xtick_14">
     <g id="text_32">
      <!-- 2 -->
      <g style="fill:#262626;" transform="translate(657.502734 307.926762)rotate(-90)scale(0.053299 -0.053299)">
       <use xlink:href="#DejaVuSans-32"/>
      </g>
     </g>
    </g>
    <g id="xtick_15">
     <g id="text_33">
      <!-- 4 -->
      <g style="fill:#262626;" transform="translate(701.613406 307.926762)rotate(-90)scale(0.053299 -0.053299)">
       <use xlink:href="#DejaVuSans-34"/>
      </g>
     </g>
    </g>
    <g id="xtick_16">
     <g id="text_34">
      <!-- 6 -->
      <g style="fill:#262626;" transform="translate(745.724078 307.926762)rotate(-90)scale(0.053299 -0.053299)">
       <use xlink:href="#DejaVuSans-36"/>
      </g>
     </g>
    </g>
    <g id="xtick_17">
     <g id="text_35">
      <!-- 8 -->
      <g style="fill:#262626;" transform="translate(789.83475 307.926762)rotate(-90)scale(0.053299 -0.053299)">
       <use xlink:href="#DejaVuSans-38"/>
      </g>
     </g>
    </g>
    <g id="xtick_18">
     <g id="text_36">
      <!-- 10 -->
      <g style="fill:#262626;" transform="translate(833.945422 311.317923)rotate(-90)scale(0.053299 -0.053299)">
       <use xlink:href="#DejaVuSans-31"/>
       <use x="63.623047" xlink:href="#DejaVuSans-30"/>
      </g>
     </g>
    </g>
    <g id="text_37">
     <!-- number of components in model -->
     <g style="fill:#262626;" transform="translate(659.445817 321.153523)scale(0.0768 -0.0768)">
      <use xlink:href="#DejaVuSans-6e"/>
      <use x="63.378906" xlink:href="#DejaVuSans-75"/>
      <use x="126.757812" xlink:href="#DejaVuSans-6d"/>
      <use x="224.169922" xlink:href="#DejaVuSans-62"/>
      <use x="287.646484" xlink:href="#DejaVuSans-65"/>
      <use x="349.169922" xlink:href="#DejaVuSans-72"/>
      <use x="390.283203" xlink:href="#DejaVuSans-20"/>
      <use x="422.070312" xlink:href="#DejaVuSans-6f"/>
      <use x="483.251953" xlink:href="#DejaVuSans-66"/>
      <use x="518.457031" xlink:href="#DejaVuSans-20"/>
      <use x="550.244141" xlink:href="#DejaVuSans-63"/>
      <use x="605.224609" xlink:href="#DejaVuSans-6f"/>
      <use x="666.40625" xlink:href="#DejaVuSans-6d"/>
      <use x="763.818359" xlink:href="#DejaVuSans-70"/>
      <use x="827.294922" xlink:href="#DejaVuSans-6f"/>
      <use x="888.476562" xlink:href="#DejaVuSans-6e"/>
      <use x="951.855469" xlink:href="#DejaVuSans-65"/>
      <use x="1013.378906" xlink:href="#DejaVuSans-6e"/>
      <use x="1076.757812" xlink:href="#DejaVuSans-74"/>
      <use x="1115.966797" xlink:href="#DejaVuSans-73"/>
      <use x="1168.066406" xlink:href="#DejaVuSans-20"/>
      <use x="1199.853516" xlink:href="#DejaVuSans-69"/>
      <use x="1227.636719" xlink:href="#DejaVuSans-6e"/>
      <use x="1291.015625" xlink:href="#DejaVuSans-20"/>
      <use x="1322.802734" xlink:href="#DejaVuSans-6d"/>
      <use x="1420.214844" xlink:href="#DejaVuSans-6f"/>
      <use x="1481.396484" xlink:href="#DejaVuSans-64"/>
      <use x="1544.873047" xlink:href="#DejaVuSans-65"/>
      <use x="1606.396484" xlink:href="#DejaVuSans-6c"/>
     </g>
    </g>
   </g>
   <g id="matplotlib.axis_6">
    <g id="text_38">
     <!-- cumulative variance explained (%) -->
     <g style="fill:#262626;" transform="translate(595.29647 224.6148)rotate(-90)scale(0.0768 -0.0768)">
      <use xlink:href="#DejaVuSans-63"/>
      <use x="54.980469" xlink:href="#DejaVuSans-75"/>
      <use x="118.359375" xlink:href="#DejaVuSans-6d"/>
      <use x="215.771484" xlink:href="#DejaVuSans-75"/>
      <use x="279.150391" xlink:href="#DejaVuSans-6c"/>
      <use x="306.933594" xlink:href="#DejaVuSans-61"/>
      <use x="368.212891" xlink:href="#DejaVuSans-74"/>
      <use x="407.421875" xlink:href="#DejaVuSans-69"/>
      <use x="435.205078" xlink:href="#DejaVuSans-76"/>
      <use x="494.384766" xlink:href="#DejaVuSans-65"/>
      <use x="555.908203" xlink:href="#DejaVuSans-20"/>
      <use x="587.695312" xlink:href="#DejaVuSans-76"/>
      <use x="646.875" xlink:href="#DejaVuSans-61"/>
      <use x="708.154297" xlink:href="#DejaVuSans-72"/>
      <use x="749.267578" xlink:href="#DejaVuSans-69"/>
      <use x="777.050781" xlink:href="#DejaVuSans-61"/>
      <use x="838.330078" xlink:href="#DejaVuSans-6e"/>
      <use x="901.708984" xlink:href="#DejaVuSans-63"/>
      <use x="956.689453" xlink:href="#DejaVuSans-65"/>
      <use x="1018.212891" xlink:href="#DejaVuSans-20"/>
      <use x="1050" xlink:href="#DejaVuSans-65"/>
      <use x="1111.507812" xlink:href="#DejaVuSans-78"/>
      <use x="1170.6875" xlink:href="#DejaVuSans-70"/>
      <use x="1234.164062" xlink:href="#DejaVuSans-6c"/>
      <use x="1261.947266" xlink:href="#DejaVuSans-61"/>
      <use x="1323.226562" xlink:href="#DejaVuSans-69"/>
      <use x="1351.009766" xlink:href="#DejaVuSans-6e"/>
      <use x="1414.388672" xlink:href="#DejaVuSans-65"/>
      <use x="1475.912109" xlink:href="#DejaVuSans-64"/>
      <use x="1539.388672" xlink:href="#DejaVuSans-20"/>
      <use x="1571.175781" xlink:href="#DejaVuSans-28"/>
      <use x="1610.189453" xlink:href="#DejaVuSans-25"/>
      <use x="1705.208984" xlink:href="#DejaVuSans-29"/>
     </g>
    </g>
   </g>
   <g id="line2d_15">
    <path clip-path="url(#pc80283f0a1)" d="M 611.921338 283.6356 
L 633.976674 248.699912 
L 656.032009 218.171782 
L 678.087345 188.841811 
L 700.142681 159.759048 
L 722.198017 131.311423 
L 744.253353 103.047497 
L 766.308689 75.704676 
L 788.364025 50.516735 
L 810.419361 31.6356 
L 832.474697 31.6356 
" style="fill:none;stroke:#800080;stroke-linecap:round;stroke-width:2.5;"/>
   </g>
   <g id="line2d_16">
    <path clip-path="url(#pc80283f0a1)" d="M 600.89367 157.6356 
L 843.502365 157.6356 
" style="fill:none;stroke:#d3d3d3;stroke-linecap:round;stroke-width:0.25;"/>
   </g>
   <g id="line2d_17">
    <path clip-path="url(#pc80283f0a1)" d="M 722.198017 296.2356 
L 722.198017 19.0356 
" style="fill:none;stroke:#1f77b4;stroke-dasharray:2,3.3;stroke-dashoffset:0;stroke-width:2;"/>
   </g>
   <g id="line2d_18">
    <path clip-path="url(#pc80283f0a1)" d="M 600.89367 107.2356 
L 843.502365 107.2356 
" style="fill:none;stroke:#d3d3d3;stroke-linecap:round;stroke-width:0.25;"/>
   </g>
   <g id="line2d_19">
    <path clip-path="url(#pc80283f0a1)" d="M 744.253353 296.2356 
L 744.253353 19.0356 
" style="fill:none;stroke:#ff7f0e;stroke-dasharray:2,3.3;stroke-dashoffset:0;stroke-width:2;"/>
   </g>
   <g id="line2d_20">
    <path clip-path="url(#pc80283f0a1)" d="M 600.89367 56.8356 
L 843.502365 56.8356 
" style="fill:none;stroke:#d3d3d3;stroke-linecap:round;stroke-width:0.25;"/>
   </g>
   <g id="line2d_21">
    <path clip-path="url(#pc80283f0a1)" d="M 788.364025 296.2356 
L 788.364025 19.0356 
" style="fill:none;stroke:#2ca02c;stroke-dasharray:2,3.3;stroke-dashoffset:0;stroke-width:2;"/>
   </g>
   <g id="patch_19">
    <path d="M 600.89367 296.2356 
L 843.502365 296.2356 
" style="fill:none;stroke:#cccccc;stroke-linecap:square;stroke-linejoin:miter;"/>
   </g>
   <g id="text_39">
    <g id="patch_20">
     <path d="M 611.921338 160.343033 
L 618.703661 160.343033 
Q 620.302637 160.343033 620.302637 158.744057 
L 620.302637 153.585694 
Q 620.302637 151.986718 618.703661 151.986718 
L 611.921338 151.986718 
Q 610.322362 151.986718 610.322362 153.585694 
L 610.322362 158.744057 
Q 610.322362 160.343033 611.921338 160.343033 
z
" style="fill:#ffffff;opacity:0.8;"/>
    </g>
    <!-- 50 -->
    <g style="fill:#262626;" transform="translate(611.921338 157.6356)scale(0.053299 -0.053299)">
     <use xlink:href="#DejaVuSans-35"/>
     <use x="63.623047" xlink:href="#DejaVuSans-30"/>
    </g>
   </g>
   <g id="text_40">
    <g id="patch_21">
     <path d="M 728.173506 261.610318 
L 728.173506 212.277434 
Q 728.173506 210.943418 726.83949 210.943418 
L 717.556545 210.943418 
Q 716.222529 210.943418 716.222529 212.277434 
L 716.222529 261.610318 
Q 716.222529 262.944334 717.556545 262.944334 
L 726.83949 262.944334 
Q 728.173506 262.944334 728.173506 261.610318 
z
" style="fill:#ffffff;opacity:0.8;"/>
    </g>
    <!-- 5 components explain -->
    <g style="fill:#262626;" transform="translate(720.935357 261.610318)rotate(-90)scale(0.044467 -0.044467)">
     <use xlink:href="#DejaVuSans-35"/>
     <use x="63.623047" xlink:href="#DejaVuSans-20"/>
     <use x="95.410156" xlink:href="#DejaVuSans-63"/>
     <use x="150.390625" xlink:href="#DejaVuSans-6f"/>
     <use x="211.572266" xlink:href="#DejaVuSans-6d"/>
     <use x="308.984375" xlink:href="#DejaVuSans-70"/>
     <use x="372.460938" xlink:href="#DejaVuSans-6f"/>
     <use x="433.642578" xlink:href="#DejaVuSans-6e"/>
     <use x="497.021484" xlink:href="#DejaVuSans-65"/>
     <use x="558.544922" xlink:href="#DejaVuSans-6e"/>
     <use x="621.923828" xlink:href="#DejaVuSans-74"/>
     <use x="661.132812" xlink:href="#DejaVuSans-73"/>
     <use x="713.232422" xlink:href="#DejaVuSans-20"/>
     <use x="745.019531" xlink:href="#DejaVuSans-65"/>
     <use x="806.527344" xlink:href="#DejaVuSans-78"/>
     <use x="865.707031" xlink:href="#DejaVuSans-70"/>
     <use x="929.183594" xlink:href="#DejaVuSans-6c"/>
     <use x="956.966797" xlink:href="#DejaVuSans-61"/>
     <use x="1018.246094" xlink:href="#DejaVuSans-69"/>
     <use x="1046.029297" xlink:href="#DejaVuSans-6e"/>
    </g>
    <!-- 50% of variance -->
    <g style="fill:#262626;" transform="translate(725.914711 255.014235)rotate(-90)scale(0.044467 -0.044467)">
     <use xlink:href="#DejaVuSans-35"/>
     <use x="63.623047" xlink:href="#DejaVuSans-30"/>
     <use x="127.246094" xlink:href="#DejaVuSans-25"/>
     <use x="222.265625" xlink:href="#DejaVuSans-20"/>
     <use x="254.052734" xlink:href="#DejaVuSans-6f"/>
     <use x="315.234375" xlink:href="#DejaVuSans-66"/>
     <use x="350.439453" xlink:href="#DejaVuSans-20"/>
     <use x="382.226562" xlink:href="#DejaVuSans-76"/>
     <use x="441.40625" xlink:href="#DejaVuSans-61"/>
     <use x="502.685547" xlink:href="#DejaVuSans-72"/>
     <use x="543.798828" xlink:href="#DejaVuSans-69"/>
     <use x="571.582031" xlink:href="#DejaVuSans-61"/>
     <use x="632.861328" xlink:href="#DejaVuSans-6e"/>
     <use x="696.240234" xlink:href="#DejaVuSans-63"/>
     <use x="751.220703" xlink:href="#DejaVuSans-65"/>
    </g>
   </g>
   <g id="text_41">
    <g id="patch_22">
     <path d="M 611.921338 109.943033 
L 618.703661 109.943033 
Q 620.302637 109.943033 620.302637 108.344057 
L 620.302637 103.185694 
Q 620.302637 101.586718 618.703661 101.586718 
L 611.921338 101.586718 
Q 610.322362 101.586718 610.322362 103.185694 
L 610.322362 108.344057 
Q 610.322362 109.943033 611.921338 109.943033 
z
" style="fill:#ffffff;opacity:0.8;"/>
    </g>
    <!-- 70 -->
    <g style="fill:#262626;" transform="translate(611.921338 107.2356)scale(0.053299 -0.053299)">
     <use xlink:href="#DejaVuSans-37"/>
     <use x="63.623047" xlink:href="#DejaVuSans-30"/>
    </g>
   </g>
   <g id="text_42">
    <g id="patch_23">
     <path d="M 750.228842 261.610318 
L 750.228842 212.277434 
Q 750.228842 210.943418 748.894826 210.943418 
L 739.611881 210.943418 
Q 738.277865 210.943418 738.277865 212.277434 
L 738.277865 261.610318 
Q 738.277865 262.944334 739.611881 262.944334 
L 748.894826 262.944334 
Q 750.228842 262.944334 750.228842 261.610318 
z
" style="fill:#ffffff;opacity:0.8;"/>
    </g>
    <!-- 6 components explain -->
    <g style="fill:#262626;" transform="translate(742.990693 261.610318)rotate(-90)scale(0.044467 -0.044467)">
     <use xlink:href="#DejaVuSans-36"/>
     <use x="63.623047" xlink:href="#DejaVuSans-20"/>
     <use x="95.410156" xlink:href="#DejaVuSans-63"/>
     <use x="150.390625" xlink:href="#DejaVuSans-6f"/>
     <use x="211.572266" xlink:href="#DejaVuSans-6d"/>
     <use x="308.984375" xlink:href="#DejaVuSans-70"/>
     <use x="372.460938" xlink:href="#DejaVuSans-6f"/>
     <use x="433.642578" xlink:href="#DejaVuSans-6e"/>
     <use x="497.021484" xlink:href="#DejaVuSans-65"/>
     <use x="558.544922" xlink:href="#DejaVuSans-6e"/>
     <use x="621.923828" xlink:href="#DejaVuSans-74"/>
     <use x="661.132812" xlink:href="#DejaVuSans-73"/>
     <use x="713.232422" xlink:href="#DejaVuSans-20"/>
     <use x="745.019531" xlink:href="#DejaVuSans-65"/>
     <use x="806.527344" xlink:href="#DejaVuSans-78"/>
     <use x="865.707031" xlink:href="#DejaVuSans-70"/>
     <use x="929.183594" xlink:href="#DejaVuSans-6c"/>
     <use x="956.966797" xlink:href="#DejaVuSans-61"/>
     <use x="1018.246094" xlink:href="#DejaVuSans-69"/>
     <use x="1046.029297" xlink:href="#DejaVuSans-6e"/>
    </g>
    <!-- 70% of variance -->
    <g style="fill:#262626;" transform="translate(747.970047 255.014235)rotate(-90)scale(0.044467 -0.044467)">
     <use xlink:href="#DejaVuSans-37"/>
     <use x="63.623047" xlink:href="#DejaVuSans-30"/>
     <use x="127.246094" xlink:href="#DejaVuSans-25"/>
     <use x="222.265625" xlink:href="#DejaVuSans-20"/>
     <use x="254.052734" xlink:href="#DejaVuSans-6f"/>
     <use x="315.234375" xlink:href="#DejaVuSans-66"/>
     <use x="350.439453" xlink:href="#DejaVuSans-20"/>
     <use x="382.226562" xlink:href="#DejaVuSans-76"/>
     <use x="441.40625" xlink:href="#DejaVuSans-61"/>
     <use x="502.685547" xlink:href="#DejaVuSans-72"/>
     <use x="543.798828" xlink:href="#DejaVuSans-69"/>
     <use x="571.582031" xlink:href="#DejaVuSans-61"/>
     <use x="632.861328" xlink:href="#DejaVuSans-6e"/>
     <use x="696.240234" xlink:href="#DejaVuSans-63"/>
     <use x="751.220703" xlink:href="#DejaVuSans-65"/>
    </g>
   </g>
   <g id="text_43">
    <g id="patch_24">
     <path d="M 611.921338 59.543033 
L 618.703661 59.543033 
Q 620.302637 59.543033 620.302637 57.944057 
L 620.302637 52.785694 
Q 620.302637 51.186718 618.703661 51.186718 
L 611.921338 51.186718 
Q 610.322362 51.186718 610.322362 52.785694 
L 610.322362 57.944057 
Q 610.322362 59.543033 611.921338 59.543033 
z
" style="fill:#ffffff;opacity:0.8;"/>
    </g>
    <!-- 90 -->
    <g style="fill:#262626;" transform="translate(611.921338 56.8356)scale(0.053299 -0.053299)">
     <use xlink:href="#DejaVuSans-39"/>
     <use x="63.623047" xlink:href="#DejaVuSans-30"/>
    </g>
   </g>
   <g id="text_44">
    <g id="patch_25">
     <path d="M 794.339514 261.610318 
L 794.339514 212.277434 
Q 794.339514 210.943418 793.005498 210.943418 
L 783.722553 210.943418 
Q 782.388537 210.943418 782.388537 212.277434 
L 782.388537 261.610318 
Q 782.388537 262.944334 783.722553 262.944334 
L 793.005498 262.944334 
Q 794.339514 262.944334 794.339514 261.610318 
z
" style="fill:#ffffff;opacity:0.8;"/>
    </g>
    <!-- 8 components explain -->
    <g style="fill:#262626;" transform="translate(787.101365 261.610318)rotate(-90)scale(0.044467 -0.044467)">
     <use xlink:href="#DejaVuSans-38"/>
     <use x="63.623047" xlink:href="#DejaVuSans-20"/>
     <use x="95.410156" xlink:href="#DejaVuSans-63"/>
     <use x="150.390625" xlink:href="#DejaVuSans-6f"/>
     <use x="211.572266" xlink:href="#DejaVuSans-6d"/>
     <use x="308.984375" xlink:href="#DejaVuSans-70"/>
     <use x="372.460938" xlink:href="#DejaVuSans-6f"/>
     <use x="433.642578" xlink:href="#DejaVuSans-6e"/>
     <use x="497.021484" xlink:href="#DejaVuSans-65"/>
     <use x="558.544922" xlink:href="#DejaVuSans-6e"/>
     <use x="621.923828" xlink:href="#DejaVuSans-74"/>
     <use x="661.132812" xlink:href="#DejaVuSans-73"/>
     <use x="713.232422" xlink:href="#DejaVuSans-20"/>
     <use x="745.019531" xlink:href="#DejaVuSans-65"/>
     <use x="806.527344" xlink:href="#DejaVuSans-78"/>
     <use x="865.707031" xlink:href="#DejaVuSans-70"/>
     <use x="929.183594" xlink:href="#DejaVuSans-6c"/>
     <use x="956.966797" xlink:href="#DejaVuSans-61"/>
     <use x="1018.246094" xlink:href="#DejaVuSans-69"/>
     <use x="1046.029297" xlink:href="#DejaVuSans-6e"/>
    </g>
    <!-- 90% of variance -->
    <g style="fill:#262626;" transform="translate(792.080719 255.014235)rotate(-90)scale(0.044467 -0.044467)">
     <use xlink:href="#DejaVuSans-39"/>
     <use x="63.623047" xlink:href="#DejaVuSans-30"/>
     <use x="127.246094" xlink:href="#DejaVuSans-25"/>
     <use x="222.265625" xlink:href="#DejaVuSans-20"/>
     <use x="254.052734" xlink:href="#DejaVuSans-6f"/>
     <use x="315.234375" xlink:href="#DejaVuSans-66"/>
     <use x="350.439453" xlink:href="#DejaVuSans-20"/>
     <use x="382.226562" xlink:href="#DejaVuSans-76"/>
     <use x="441.40625" xlink:href="#DejaVuSans-61"/>
     <use x="502.685547" xlink:href="#DejaVuSans-72"/>
     <use x="543.798828" xlink:href="#DejaVuSans-69"/>
     <use x="571.582031" xlink:href="#DejaVuSans-61"/>
     <use x="632.861328" xlink:href="#DejaVuSans-6e"/>
     <use x="696.240234" xlink:href="#DejaVuSans-63"/>
     <use x="751.220703" xlink:href="#DejaVuSans-65"/>
    </g>
   </g>
   <g id="text_45">
    <!-- aCompCor (combined mask) -->
    <g style="fill:#262626;" transform="translate(667.331017 13.0356)scale(0.0768 -0.0768)">
     <use xlink:href="#DejaVuSans-61"/>
     <use x="61.279297" xlink:href="#DejaVuSans-43"/>
     <use x="131.103516" xlink:href="#DejaVuSans-6f"/>
     <use x="192.285156" xlink:href="#DejaVuSans-6d"/>
     <use x="289.697266" xlink:href="#DejaVuSans-70"/>
     <use x="353.173828" xlink:href="#DejaVuSans-43"/>
     <use x="422.998047" xlink:href="#DejaVuSans-6f"/>
     <use x="484.179688" xlink:href="#DejaVuSans-72"/>
     <use x="525.292969" xlink:href="#DejaVuSans-20"/>
     <use x="557.080078" xlink:href="#DejaVuSans-28"/>
     <use x="596.09375" xlink:href="#DejaVuSans-63"/>
     <use x="651.074219" xlink:href="#DejaVuSans-6f"/>
     <use x="712.255859" xlink:href="#DejaVuSans-6d"/>
     <use x="809.667969" xlink:href="#DejaVuSans-62"/>
     <use x="873.144531" xlink:href="#DejaVuSans-69"/>
     <use x="900.927734" xlink:href="#DejaVuSans-6e"/>
     <use x="964.306641" xlink:href="#DejaVuSans-65"/>
     <use x="1025.830078" xlink:href="#DejaVuSans-64"/>
     <use x="1089.306641" xlink:href="#DejaVuSans-20"/>
     <use x="1121.09375" xlink:href="#DejaVuSans-6d"/>
     <use x="1218.505859" xlink:href="#DejaVuSans-61"/>
     <use x="1279.785156" xlink:href="#DejaVuSans-73"/>
     <use x="1331.884766" xlink:href="#DejaVuSans-6b"/>
     <use x="1389.794922" xlink:href="#DejaVuSans-29"/>
    </g>
   </g>
  </g>
  <g id="axes_4">
   <g id="patch_26">
    <path d="M 892.024104 296.2356 
L 1134.6328 296.2356 
L 1134.6328 19.0356 
L 892.024104 19.0356 
z
" style="fill:#ffffff;"/>
   </g>
   <g id="matplotlib.axis_7">
    <g id="xtick_19">
     <g id="text_46">
      <!-- 0 -->
      <g style="fill:#262626;" transform="translate(904.522497 307.926762)rotate(-90)scale(0.053299 -0.053299)">
       <use xlink:href="#DejaVuSans-30"/>
      </g>
     </g>
    </g>
    <g id="xtick_20">
     <g id="text_47">
      <!-- 2 -->
      <g style="fill:#262626;" transform="translate(948.633169 307.926762)rotate(-90)scale(0.053299 -0.053299)">
       <use xlink:href="#DejaVuSans-32"/>
      </g>
     </g>
    </g>
    <g id="xtick_21">
     <g id="text_48">
      <!-- 4 -->
      <g style="fill:#262626;" transform="translate(992.743841 307.926762)rotate(-90)scale(0.053299 -0.053299)">
       <use xlink:href="#DejaVuSans-34"/>
      </g>
     </g>
    </g>
    <g id="xtick_22">
     <g id="text_49">
      <!-- 6 -->
      <g style="fill:#262626;" transform="translate(1036.854513 307.926762)rotate(-90)scale(0.053299 -0.053299)">
       <use xlink:href="#DejaVuSans-36"/>
      </g>
     </g>
    </g>
    <g id="xtick_23">
     <g id="text_50">
      <!-- 8 -->
      <g style="fill:#262626;" transform="translate(1080.965185 307.926762)rotate(-90)scale(0.053299 -0.053299)">
       <use xlink:href="#DejaVuSans-38"/>
      </g>
     </g>
    </g>
    <g id="xtick_24">
     <g id="text_51">
      <!-- 10 -->
      <g style="fill:#262626;" transform="translate(1125.075857 311.317923)rotate(-90)scale(0.053299 -0.053299)">
       <use xlink:href="#DejaVuSans-31"/>
       <use x="63.623047" xlink:href="#DejaVuSans-30"/>
      </g>
     </g>
    </g>
    <g id="text_52">
     <!-- number of components in model -->
     <g style="fill:#262626;" transform="translate(950.576252 321.153523)scale(0.0768 -0.0768)">
      <use xlink:href="#DejaVuSans-6e"/>
      <use x="63.378906" xlink:href="#DejaVuSans-75"/>
      <use x="126.757812" xlink:href="#DejaVuSans-6d"/>
      <use x="224.169922" xlink:href="#DejaVuSans-62"/>
      <use x="287.646484" xlink:href="#DejaVuSans-65"/>
      <use x="349.169922" xlink:href="#DejaVuSans-72"/>
      <use x="390.283203" xlink:href="#DejaVuSans-20"/>
      <use x="422.070312" xlink:href="#DejaVuSans-6f"/>
      <use x="483.251953" xlink:href="#DejaVuSans-66"/>
      <use x="518.457031" xlink:href="#DejaVuSans-20"/>
      <use x="550.244141" xlink:href="#DejaVuSans-63"/>
      <use x="605.224609" xlink:href="#DejaVuSans-6f"/>
      <use x="666.40625" xlink:href="#DejaVuSans-6d"/>
      <use x="763.818359" xlink:href="#DejaVuSans-70"/>
      <use x="827.294922" xlink:href="#DejaVuSans-6f"/>
      <use x="888.476562" xlink:href="#DejaVuSans-6e"/>
      <use x="951.855469" xlink:href="#DejaVuSans-65"/>
      <use x="1013.378906" xlink:href="#DejaVuSans-6e"/>
      <use x="1076.757812" xlink:href="#DejaVuSans-74"/>
      <use x="1115.966797" xlink:href="#DejaVuSans-73"/>
      <use x="1168.066406" xlink:href="#DejaVuSans-20"/>
      <use x="1199.853516" xlink:href="#DejaVuSans-69"/>
      <use x="1227.636719" xlink:href="#DejaVuSans-6e"/>
      <use x="1291.015625" xlink:href="#DejaVuSans-20"/>
      <use x="1322.802734" xlink:href="#DejaVuSans-6d"/>
      <use x="1420.214844" xlink:href="#DejaVuSans-6f"/>
      <use x="1481.396484" xlink:href="#DejaVuSans-64"/>
      <use x="1544.873047" xlink:href="#DejaVuSans-65"/>
      <use x="1606.396484" xlink:href="#DejaVuSans-6c"/>
     </g>
    </g>
   </g>
   <g id="matplotlib.axis_8">
    <g id="text_53">
     <!-- cumulative variance explained (%) -->
     <g style="fill:#262626;" transform="translate(886.426904 224.6148)rotate(-90)scale(0.0768 -0.0768)">
      <use xlink:href="#DejaVuSans-63"/>
      <use x="54.980469" xlink:href="#DejaVuSans-75"/>
      <use x="118.359375" xlink:href="#DejaVuSans-6d"/>
      <use x="215.771484" xlink:href="#DejaVuSans-75"/>
      <use x="279.150391" xlink:href="#DejaVuSans-6c"/>
      <use x="306.933594" xlink:href="#DejaVuSans-61"/>
      <use x="368.212891" xlink:href="#DejaVuSans-74"/>
      <use x="407.421875" xlink:href="#DejaVuSans-69"/>
      <use x="435.205078" xlink:href="#DejaVuSans-76"/>
      <use x="494.384766" xlink:href="#DejaVuSans-65"/>
      <use x="555.908203" xlink:href="#DejaVuSans-20"/>
      <use x="587.695312" xlink:href="#DejaVuSans-76"/>
      <use x="646.875" xlink:href="#DejaVuSans-61"/>
      <use x="708.154297" xlink:href="#DejaVuSans-72"/>
      <use x="749.267578" xlink:href="#DejaVuSans-69"/>
      <use x="777.050781" xlink:href="#DejaVuSans-61"/>
      <use x="838.330078" xlink:href="#DejaVuSans-6e"/>
      <use x="901.708984" xlink:href="#DejaVuSans-63"/>
      <use x="956.689453" xlink:href="#DejaVuSans-65"/>
      <use x="1018.212891" xlink:href="#DejaVuSans-20"/>
      <use x="1050" xlink:href="#DejaVuSans-65"/>
      <use x="1111.507812" xlink:href="#DejaVuSans-78"/>
      <use x="1170.6875" xlink:href="#DejaVuSans-70"/>
      <use x="1234.164062" xlink:href="#DejaVuSans-6c"/>
      <use x="1261.947266" xlink:href="#DejaVuSans-61"/>
      <use x="1323.226562" xlink:href="#DejaVuSans-69"/>
      <use x="1351.009766" xlink:href="#DejaVuSans-6e"/>
      <use x="1414.388672" xlink:href="#DejaVuSans-65"/>
      <use x="1475.912109" xlink:href="#DejaVuSans-64"/>
      <use x="1539.388672" xlink:href="#DejaVuSans-20"/>
      <use x="1571.175781" xlink:href="#DejaVuSans-28"/>
      <use x="1610.189453" xlink:href="#DejaVuSans-25"/>
      <use x="1705.208984" xlink:href="#DejaVuSans-29"/>
     </g>
    </g>
   </g>
   <g id="line2d_22">
    <path clip-path="url(#pf078a36ad4)" d="M 903.051772 283.6356 
L 925.107108 190.059127 
L 947.162444 150.807186 
L 969.21778 111.987623 
L 991.273116 85.440537 
L 1013.328452 64.413691 
L 1035.383788 50.561905 
L 1057.439124 43.380033 
L 1079.49446 37.289597 
L 1101.549796 31.6356 
L 1123.605132 31.6356 
" style="fill:none;stroke:#800080;stroke-linecap:round;stroke-width:2.5;"/>
   </g>
   <g id="line2d_23">
    <path clip-path="url(#pf078a36ad4)" d="M 892.024104 157.6356 
L 1134.6328 157.6356 
" style="fill:none;stroke:#d3d3d3;stroke-linecap:round;stroke-width:0.25;"/>
   </g>
   <g id="line2d_24">
    <path clip-path="url(#pf078a36ad4)" d="M 947.162444 296.2356 
L 947.162444 19.0356 
" style="fill:none;stroke:#1f77b4;stroke-dasharray:2,3.3;stroke-dashoffset:0;stroke-width:2;"/>
   </g>
   <g id="line2d_25">
    <path clip-path="url(#pf078a36ad4)" d="M 892.024104 107.2356 
L 1134.6328 107.2356 
" style="fill:none;stroke:#d3d3d3;stroke-linecap:round;stroke-width:0.25;"/>
   </g>
   <g id="line2d_26">
    <path clip-path="url(#pf078a36ad4)" d="M 991.273116 296.2356 
L 991.273116 19.0356 
" style="fill:none;stroke:#ff7f0e;stroke-dasharray:2,3.3;stroke-dashoffset:0;stroke-width:2;"/>
   </g>
   <g id="line2d_27">
    <path clip-path="url(#pf078a36ad4)" d="M 892.024104 56.8356 
L 1134.6328 56.8356 
" style="fill:none;stroke:#d3d3d3;stroke-linecap:round;stroke-width:0.25;"/>
   </g>
   <g id="line2d_28">
    <path clip-path="url(#pf078a36ad4)" d="M 1035.383788 296.2356 
L 1035.383788 19.0356 
" style="fill:none;stroke:#2ca02c;stroke-dasharray:2,3.3;stroke-dashoffset:0;stroke-width:2;"/>
   </g>
   <g id="patch_27">
    <path d="M 892.024104 296.2356 
L 1134.6328 296.2356 
" style="fill:none;stroke:#cccccc;stroke-linecap:square;stroke-linejoin:miter;"/>
   </g>
   <g id="text_54">
    <g id="patch_28">
     <path d="M 903.051772 160.343033 
L 909.834096 160.343033 
Q 911.433072 160.343033 911.433072 158.744057 
L 911.433072 153.585694 
Q 911.433072 151.986718 909.834096 151.986718 
L 903.051772 151.986718 
Q 901.452796 151.986718 901.452796 153.585694 
L 901.452796 158.744057 
Q 901.452796 160.343033 903.051772 160.343033 
z
" style="fill:#ffffff;opacity:0.8;"/>
    </g>
    <!-- 50 -->
    <g style="fill:#262626;" transform="translate(903.051772 157.6356)scale(0.053299 -0.053299)">
     <use xlink:href="#DejaVuSans-35"/>
     <use x="63.623047" xlink:href="#DejaVuSans-30"/>
    </g>
   </g>
   <g id="text_55">
    <g id="patch_29">
     <path d="M 953.137933 261.610318 
L 953.137933 212.277434 
Q 953.137933 210.943418 951.803917 210.943418 
L 942.520972 210.943418 
Q 941.186956 210.943418 941.186956 212.277434 
L 941.186956 261.610318 
Q 941.186956 262.944334 942.520972 262.944334 
L 951.803917 262.944334 
Q 953.137933 262.944334 953.137933 261.610318 
z
" style="fill:#ffffff;opacity:0.8;"/>
    </g>
    <!-- 2 components explain -->
    <g style="fill:#262626;" transform="translate(945.899784 261.610318)rotate(-90)scale(0.044467 -0.044467)">
     <use xlink:href="#DejaVuSans-32"/>
     <use x="63.623047" xlink:href="#DejaVuSans-20"/>
     <use x="95.410156" xlink:href="#DejaVuSans-63"/>
     <use x="150.390625" xlink:href="#DejaVuSans-6f"/>
     <use x="211.572266" xlink:href="#DejaVuSans-6d"/>
     <use x="308.984375" xlink:href="#DejaVuSans-70"/>
     <use x="372.460938" xlink:href="#DejaVuSans-6f"/>
     <use x="433.642578" xlink:href="#DejaVuSans-6e"/>
     <use x="497.021484" xlink:href="#DejaVuSans-65"/>
     <use x="558.544922" xlink:href="#DejaVuSans-6e"/>
     <use x="621.923828" xlink:href="#DejaVuSans-74"/>
     <use x="661.132812" xlink:href="#DejaVuSans-73"/>
     <use x="713.232422" xlink:href="#DejaVuSans-20"/>
     <use x="745.019531" xlink:href="#DejaVuSans-65"/>
     <use x="806.527344" xlink:href="#DejaVuSans-78"/>
     <use x="865.707031" xlink:href="#DejaVuSans-70"/>
     <use x="929.183594" xlink:href="#DejaVuSans-6c"/>
     <use x="956.966797" xlink:href="#DejaVuSans-61"/>
     <use x="1018.246094" xlink:href="#DejaVuSans-69"/>
     <use x="1046.029297" xlink:href="#DejaVuSans-6e"/>
    </g>
    <!-- 50% of variance -->
    <g style="fill:#262626;" transform="translate(950.879138 255.014235)rotate(-90)scale(0.044467 -0.044467)">
     <use xlink:href="#DejaVuSans-35"/>
     <use x="63.623047" xlink:href="#DejaVuSans-30"/>
     <use x="127.246094" xlink:href="#DejaVuSans-25"/>
     <use x="222.265625" xlink:href="#DejaVuSans-20"/>
     <use x="254.052734" xlink:href="#DejaVuSans-6f"/>
     <use x="315.234375" xlink:href="#DejaVuSans-66"/>
     <use x="350.439453" xlink:href="#DejaVuSans-20"/>
     <use x="382.226562" xlink:href="#DejaVuSans-76"/>
     <use x="441.40625" xlink:href="#DejaVuSans-61"/>
     <use x="502.685547" xlink:href="#DejaVuSans-72"/>
     <use x="543.798828" xlink:href="#DejaVuSans-69"/>
     <use x="571.582031" xlink:href="#DejaVuSans-61"/>
     <use x="632.861328" xlink:href="#DejaVuSans-6e"/>
     <use x="696.240234" xlink:href="#DejaVuSans-63"/>
     <use x="751.220703" xlink:href="#DejaVuSans-65"/>
    </g>
   </g>
   <g id="text_56">
    <g id="patch_30">
     <path d="M 903.051772 109.943033 
L 909.834096 109.943033 
Q 911.433072 109.943033 911.433072 108.344057 
L 911.433072 103.185694 
Q 911.433072 101.586718 909.834096 101.586718 
L 903.051772 101.586718 
Q 901.452796 101.586718 901.452796 103.185694 
L 901.452796 108.344057 
Q 901.452796 109.943033 903.051772 109.943033 
z
" style="fill:#ffffff;opacity:0.8;"/>
    </g>
    <!-- 70 -->
    <g style="fill:#262626;" transform="translate(903.051772 107.2356)scale(0.053299 -0.053299)">
     <use xlink:href="#DejaVuSans-37"/>
     <use x="63.623047" xlink:href="#DejaVuSans-30"/>
    </g>
   </g>
   <g id="text_57">
    <g id="patch_31">
     <path d="M 997.248605 261.610318 
L 997.248605 212.277434 
Q 997.248605 210.943418 995.914589 210.943418 
L 986.631644 210.943418 
Q 985.297628 210.943418 985.297628 212.277434 
L 985.297628 261.610318 
Q 985.297628 262.944334 986.631644 262.944334 
L 995.914589 262.944334 
Q 997.248605 262.944334 997.248605 261.610318 
z
" style="fill:#ffffff;opacity:0.8;"/>
    </g>
    <!-- 4 components explain -->
    <g style="fill:#262626;" transform="translate(990.010456 261.610318)rotate(-90)scale(0.044467 -0.044467)">
     <use xlink:href="#DejaVuSans-34"/>
     <use x="63.623047" xlink:href="#DejaVuSans-20"/>
     <use x="95.410156" xlink:href="#DejaVuSans-63"/>
     <use x="150.390625" xlink:href="#DejaVuSans-6f"/>
     <use x="211.572266" xlink:href="#DejaVuSans-6d"/>
     <use x="308.984375" xlink:href="#DejaVuSans-70"/>
     <use x="372.460938" xlink:href="#DejaVuSans-6f"/>
     <use x="433.642578" xlink:href="#DejaVuSans-6e"/>
     <use x="497.021484" xlink:href="#DejaVuSans-65"/>
     <use x="558.544922" xlink:href="#DejaVuSans-6e"/>
     <use x="621.923828" xlink:href="#DejaVuSans-74"/>
     <use x="661.132812" xlink:href="#DejaVuSans-73"/>
     <use x="713.232422" xlink:href="#DejaVuSans-20"/>
     <use x="745.019531" xlink:href="#DejaVuSans-65"/>
     <use x="806.527344" xlink:href="#DejaVuSans-78"/>
     <use x="865.707031" xlink:href="#DejaVuSans-70"/>
     <use x="929.183594" xlink:href="#DejaVuSans-6c"/>
     <use x="956.966797" xlink:href="#DejaVuSans-61"/>
     <use x="1018.246094" xlink:href="#DejaVuSans-69"/>
     <use x="1046.029297" xlink:href="#DejaVuSans-6e"/>
    </g>
    <!-- 70% of variance -->
    <g style="fill:#262626;" transform="translate(994.98981 255.014235)rotate(-90)scale(0.044467 -0.044467)">
     <use xlink:href="#DejaVuSans-37"/>
     <use x="63.623047" xlink:href="#DejaVuSans-30"/>
     <use x="127.246094" xlink:href="#DejaVuSans-25"/>
     <use x="222.265625" xlink:href="#DejaVuSans-20"/>
     <use x="254.052734" xlink:href="#DejaVuSans-6f"/>
     <use x="315.234375" xlink:href="#DejaVuSans-66"/>
     <use x="350.439453" xlink:href="#DejaVuSans-20"/>
     <use x="382.226562" xlink:href="#DejaVuSans-76"/>
     <use x="441.40625" xlink:href="#DejaVuSans-61"/>
     <use x="502.685547" xlink:href="#DejaVuSans-72"/>
     <use x="543.798828" xlink:href="#DejaVuSans-69"/>
     <use x="571.582031" xlink:href="#DejaVuSans-61"/>
     <use x="632.861328" xlink:href="#DejaVuSans-6e"/>
     <use x="696.240234" xlink:href="#DejaVuSans-63"/>
     <use x="751.220703" xlink:href="#DejaVuSans-65"/>
    </g>
   </g>
   <g id="text_58">
    <g id="patch_32">
     <path d="M 903.051772 59.543033 
L 909.834096 59.543033 
Q 911.433072 59.543033 911.433072 57.944057 
L 911.433072 52.785694 
Q 911.433072 51.186718 909.834096 51.186718 
L 903.051772 51.186718 
Q 901.452796 51.186718 901.452796 52.785694 
L 901.452796 57.944057 
Q 901.452796 59.543033 903.051772 59.543033 
z
" style="fill:#ffffff;opacity:0.8;"/>
    </g>
    <!-- 90 -->
    <g style="fill:#262626;" transform="translate(903.051772 56.8356)scale(0.053299 -0.053299)">
     <use xlink:href="#DejaVuSans-39"/>
     <use x="63.623047" xlink:href="#DejaVuSans-30"/>
    </g>
   </g>
   <g id="text_59">
    <g id="patch_33">
     <path d="M 1041.359277 261.610318 
L 1041.359277 212.277434 
Q 1041.359277 210.943418 1040.025261 210.943418 
L 1030.742316 210.943418 
Q 1029.4083 210.943418 1029.4083 212.277434 
L 1029.4083 261.610318 
Q 1029.4083 262.944334 1030.742316 262.944334 
L 1040.025261 262.944334 
Q 1041.359277 262.944334 1041.359277 261.610318 
z
" style="fill:#ffffff;opacity:0.8;"/>
    </g>
    <!-- 6 components explain -->
    <g style="fill:#262626;" transform="translate(1034.121128 261.610318)rotate(-90)scale(0.044467 -0.044467)">
     <use xlink:href="#DejaVuSans-36"/>
     <use x="63.623047" xlink:href="#DejaVuSans-20"/>
     <use x="95.410156" xlink:href="#DejaVuSans-63"/>
     <use x="150.390625" xlink:href="#DejaVuSans-6f"/>
     <use x="211.572266" xlink:href="#DejaVuSans-6d"/>
     <use x="308.984375" xlink:href="#DejaVuSans-70"/>
     <use x="372.460938" xlink:href="#DejaVuSans-6f"/>
     <use x="433.642578" xlink:href="#DejaVuSans-6e"/>
     <use x="497.021484" xlink:href="#DejaVuSans-65"/>
     <use x="558.544922" xlink:href="#DejaVuSans-6e"/>
     <use x="621.923828" xlink:href="#DejaVuSans-74"/>
     <use x="661.132812" xlink:href="#DejaVuSans-73"/>
     <use x="713.232422" xlink:href="#DejaVuSans-20"/>
     <use x="745.019531" xlink:href="#DejaVuSans-65"/>
     <use x="806.527344" xlink:href="#DejaVuSans-78"/>
     <use x="865.707031" xlink:href="#DejaVuSans-70"/>
     <use x="929.183594" xlink:href="#DejaVuSans-6c"/>
     <use x="956.966797" xlink:href="#DejaVuSans-61"/>
     <use x="1018.246094" xlink:href="#DejaVuSans-69"/>
     <use x="1046.029297" xlink:href="#DejaVuSans-6e"/>
    </g>
    <!-- 90% of variance -->
    <g style="fill:#262626;" transform="translate(1039.100482 255.014235)rotate(-90)scale(0.044467 -0.044467)">
     <use xlink:href="#DejaVuSans-39"/>
     <use x="63.623047" xlink:href="#DejaVuSans-30"/>
     <use x="127.246094" xlink:href="#DejaVuSans-25"/>
     <use x="222.265625" xlink:href="#DejaVuSans-20"/>
     <use x="254.052734" xlink:href="#DejaVuSans-6f"/>
     <use x="315.234375" xlink:href="#DejaVuSans-66"/>
     <use x="350.439453" xlink:href="#DejaVuSans-20"/>
     <use x="382.226562" xlink:href="#DejaVuSans-76"/>
     <use x="441.40625" xlink:href="#DejaVuSans-61"/>
     <use x="502.685547" xlink:href="#DejaVuSans-72"/>
     <use x="543.798828" xlink:href="#DejaVuSans-69"/>
     <use x="571.582031" xlink:href="#DejaVuSans-61"/>
     <use x="632.861328" xlink:href="#DejaVuSans-6e"/>
     <use x="696.240234" xlink:href="#DejaVuSans-63"/>
     <use x="751.220703" xlink:href="#DejaVuSans-65"/>
    </g>
   </g>
   <g id="text_60">
    <!-- tCompCor -->
    <g style="fill:#262626;" transform="translate(994.004252 13.0356)scale(0.0768 -0.0768)">
     <use xlink:href="#DejaVuSans-74"/>
     <use x="39.208984" xlink:href="#DejaVuSans-43"/>
     <use x="109.033203" xlink:href="#DejaVuSans-6f"/>
     <use x="170.214844" xlink:href="#DejaVuSans-6d"/>
     <use x="267.626953" xlink:href="#DejaVuSans-70"/>
     <use x="331.103516" xlink:href="#DejaVuSans-43"/>
     <use x="400.927734" xlink:href="#DejaVuSans-6f"/>
     <use x="462.109375" xlink:href="#DejaVuSans-72"/>
    </g>
   </g>
  </g>
 </g>
 <defs>
  <clipPath id="pfc0d1a2a7c">
   <rect height="277.2" width="242.608696" x="18.6328" y="19.0356"/>
  </clipPath>
  <clipPath id="p3bd03661ff">
   <rect height="277.2" width="242.608696" x="309.763235" y="19.0356"/>
  </clipPath>
  <clipPath id="pc80283f0a1">
   <rect height="277.2" width="242.608696" x="600.89367" y="19.0356"/>
  </clipPath>
  <clipPath id="pf078a36ad4">
   <rect height="277.2" width="242.608696" x="892.024104" y="19.0356"/>
  </clipPath>
 </defs>
</svg>
