<?xml version="1.0" encoding="utf-8" standalone="no"?>
<!DOCTYPE svg PUBLIC "-//W3C//DTD SVG 1.1//EN"
  "http://www.w3.org/Graphics/SVG/1.1/DTD/svg11.dtd">
<!-- Created with matplotlib (http://matplotlib.org/) -->
<svg height="340.642975pt" version="1.1" viewBox="0 0 1147.578125 340.642975" width="1147.578125pt" xmlns="http://www.w3.org/2000/svg" xmlns:xlink="http://www.w3.org/1999/xlink">
 <defs>
  <style type="text/css">
*{stroke-linecap:butt;stroke-linejoin:round;}
  </style>
 </defs>
 <g id="figure_1">
  <g id="patch_1">
   <path d="M 0 340.642975 
L 1147.578125 340.642975 
L 1147.578125 0 
L 0 0 
z
" style="fill:#ffffff;"/>
  </g>
  <g id="axes_1">
   <g id="patch_2">
    <path d="M 20.878125 299.518125 
L 263.486821 299.518125 
L 263.486821 22.318125 
L 20.878125 22.318125 
z
" style="fill:#ffffff;"/>
   </g>
   <g id="matplotlib.axis_1">
    <g id="xtick_1">
     <g id="line2d_1">
      <defs>
       <path d="M 0 0 
L 0 3.5 
" id="m61765ecc9c" style="stroke:#000000;stroke-width:0.8;"/>
      </defs>
      <g>
       <use style="stroke:#000000;stroke-width:0.8;" x="31.905793" xlink:href="#m61765ecc9c" y="299.518125"/>
      </g>
     </g>
     <g id="text_1">
      <!-- 0 -->
      <defs>
       <path d="M 31.78125 66.40625 
Q 24.171875 66.40625 20.328125 58.90625 
Q 16.5 51.421875 16.5 36.375 
Q 16.5 21.390625 20.328125 13.890625 
Q 24.171875 6.390625 31.78125 6.390625 
Q 39.453125 6.390625 43.28125 13.890625 
Q 47.125 21.390625 47.125 36.375 
Q 47.125 51.421875 43.28125 58.90625 
Q 39.453125 66.40625 31.78125 66.40625 
z
M 31.78125 74.21875 
Q 44.046875 74.21875 50.515625 64.515625 
Q 56.984375 54.828125 56.984375 36.375 
Q 56.984375 17.96875 50.515625 8.265625 
Q 44.046875 -1.421875 31.78125 -1.421875 
Q 19.53125 -1.421875 13.0625 8.265625 
Q 6.59375 17.96875 6.59375 36.375 
Q 6.59375 54.828125 13.0625 64.515625 
Q 19.53125 74.21875 31.78125 74.21875 
z
" id="DejaVuSans-30"/>
      </defs>
      <g transform="translate(33.820799 310.9337)rotate(-90)scale(0.0694 -0.0694)">
       <use xlink:href="#DejaVuSans-30"/>
      </g>
     </g>
    </g>
    <g id="xtick_2">
     <g id="line2d_2">
      <g>
       <use style="stroke:#000000;stroke-width:0.8;" x="89.946151" xlink:href="#m61765ecc9c" y="299.518125"/>
      </g>
     </g>
     <g id="text_2">
      <!-- 50 -->
      <defs>
       <path d="M 10.796875 72.90625 
L 49.515625 72.90625 
L 49.515625 64.59375 
L 19.828125 64.59375 
L 19.828125 46.734375 
Q 21.96875 47.46875 24.109375 47.828125 
Q 26.265625 48.1875 28.421875 48.1875 
Q 40.625 48.1875 47.75 41.5 
Q 54.890625 34.8125 54.890625 23.390625 
Q 54.890625 11.625 47.5625 5.09375 
Q 40.234375 -1.421875 26.90625 -1.421875 
Q 22.3125 -1.421875 17.546875 -0.640625 
Q 12.796875 0.140625 7.71875 1.703125 
L 7.71875 11.625 
Q 12.109375 9.234375 16.796875 8.0625 
Q 21.484375 6.890625 26.703125 6.890625 
Q 35.15625 6.890625 40.078125 11.328125 
Q 45.015625 15.765625 45.015625 23.390625 
Q 45.015625 31 40.078125 35.4375 
Q 35.15625 39.890625 26.703125 39.890625 
Q 22.75 39.890625 18.8125 39.015625 
Q 14.890625 38.140625 10.796875 36.28125 
z
" id="DejaVuSans-35"/>
      </defs>
      <g transform="translate(91.861157 315.349275)rotate(-90)scale(0.0694 -0.0694)">
       <use xlink:href="#DejaVuSans-35"/>
       <use x="63.623047" xlink:href="#DejaVuSans-30"/>
      </g>
     </g>
    </g>
    <g id="xtick_3">
     <g id="line2d_3">
      <g>
       <use style="stroke:#000000;stroke-width:0.8;" x="147.986509" xlink:href="#m61765ecc9c" y="299.518125"/>
      </g>
     </g>
     <g id="text_3">
      <!-- 100 -->
      <defs>
       <path d="M 12.40625 8.296875 
L 28.515625 8.296875 
L 28.515625 63.921875 
L 10.984375 60.40625 
L 10.984375 69.390625 
L 28.421875 72.90625 
L 38.28125 72.90625 
L 38.28125 8.296875 
L 54.390625 8.296875 
L 54.390625 0 
L 12.40625 0 
z
" id="DejaVuSans-31"/>
      </defs>
      <g transform="translate(149.901515 319.76485)rotate(-90)scale(0.0694 -0.0694)">
       <use xlink:href="#DejaVuSans-31"/>
       <use x="63.623047" xlink:href="#DejaVuSans-30"/>
       <use x="127.246094" xlink:href="#DejaVuSans-30"/>
      </g>
     </g>
    </g>
    <g id="xtick_4">
     <g id="line2d_4">
      <g>
       <use style="stroke:#000000;stroke-width:0.8;" x="206.026866" xlink:href="#m61765ecc9c" y="299.518125"/>
      </g>
     </g>
     <g id="text_4">
      <!-- 150 -->
      <g transform="translate(207.941873 319.76485)rotate(-90)scale(0.0694 -0.0694)">
       <use xlink:href="#DejaVuSans-31"/>
       <use x="63.623047" xlink:href="#DejaVuSans-35"/>
       <use x="127.246094" xlink:href="#DejaVuSans-30"/>
      </g>
     </g>
    </g>
    <g id="text_5">
     <!-- number of components in model -->
     <defs>
      <path d="M 54.890625 33.015625 
L 54.890625 0 
L 45.90625 0 
L 45.90625 32.71875 
Q 45.90625 40.484375 42.875 44.328125 
Q 39.84375 48.1875 33.796875 48.1875 
Q 26.515625 48.1875 22.3125 43.546875 
Q 18.109375 38.921875 18.109375 30.90625 
L 18.109375 0 
L 9.078125 0 
L 9.078125 54.6875 
L 18.109375 54.6875 
L 18.109375 46.1875 
Q 21.34375 51.125 25.703125 53.5625 
Q 30.078125 56 35.796875 56 
Q 45.21875 56 50.046875 50.171875 
Q 54.890625 44.34375 54.890625 33.015625 
z
" id="DejaVuSans-6e"/>
      <path d="M 8.5 21.578125 
L 8.5 54.6875 
L 17.484375 54.6875 
L 17.484375 21.921875 
Q 17.484375 14.15625 20.5 10.265625 
Q 23.53125 6.390625 29.59375 6.390625 
Q 36.859375 6.390625 41.078125 11.03125 
Q 45.3125 15.671875 45.3125 23.6875 
L 45.3125 54.6875 
L 54.296875 54.6875 
L 54.296875 0 
L 45.3125 0 
L 45.3125 8.40625 
Q 42.046875 3.421875 37.71875 1 
Q 33.40625 -1.421875 27.6875 -1.421875 
Q 18.265625 -1.421875 13.375 4.4375 
Q 8.5 10.296875 8.5 21.578125 
z
M 31.109375 56 
z
" id="DejaVuSans-75"/>
      <path d="M 52 44.1875 
Q 55.375 50.25 60.0625 53.125 
Q 64.75 56 71.09375 56 
Q 79.640625 56 84.28125 50.015625 
Q 88.921875 44.046875 88.921875 33.015625 
L 88.921875 0 
L 79.890625 0 
L 79.890625 32.71875 
Q 79.890625 40.578125 77.09375 44.375 
Q 74.3125 48.1875 68.609375 48.1875 
Q 61.625 48.1875 57.5625 43.546875 
Q 53.515625 38.921875 53.515625 30.90625 
L 53.515625 0 
L 44.484375 0 
L 44.484375 32.71875 
Q 44.484375 40.625 41.703125 44.40625 
Q 38.921875 48.1875 33.109375 48.1875 
Q 26.21875 48.1875 22.15625 43.53125 
Q 18.109375 38.875 18.109375 30.90625 
L 18.109375 0 
L 9.078125 0 
L 9.078125 54.6875 
L 18.109375 54.6875 
L 18.109375 46.1875 
Q 21.1875 51.21875 25.484375 53.609375 
Q 29.78125 56 35.6875 56 
Q 41.65625 56 45.828125 52.96875 
Q 50 49.953125 52 44.1875 
z
" id="DejaVuSans-6d"/>
      <path d="M 48.6875 27.296875 
Q 48.6875 37.203125 44.609375 42.84375 
Q 40.53125 48.484375 33.40625 48.484375 
Q 26.265625 48.484375 22.1875 42.84375 
Q 18.109375 37.203125 18.109375 27.296875 
Q 18.109375 17.390625 22.1875 11.75 
Q 26.265625 6.109375 33.40625 6.109375 
Q 40.53125 6.109375 44.609375 11.75 
Q 48.6875 17.390625 48.6875 27.296875 
z
M 18.109375 46.390625 
Q 20.953125 51.265625 25.265625 53.625 
Q 29.59375 56 35.59375 56 
Q 45.5625 56 51.78125 48.09375 
Q 58.015625 40.1875 58.015625 27.296875 
Q 58.015625 14.40625 51.78125 6.484375 
Q 45.5625 -1.421875 35.59375 -1.421875 
Q 29.59375 -1.421875 25.265625 0.953125 
Q 20.953125 3.328125 18.109375 8.203125 
L 18.109375 0 
L 9.078125 0 
L 9.078125 75.984375 
L 18.109375 75.984375 
z
" id="DejaVuSans-62"/>
      <path d="M 56.203125 29.59375 
L 56.203125 25.203125 
L 14.890625 25.203125 
Q 15.484375 15.921875 20.484375 11.0625 
Q 25.484375 6.203125 34.421875 6.203125 
Q 39.59375 6.203125 44.453125 7.46875 
Q 49.3125 8.734375 54.109375 11.28125 
L 54.109375 2.78125 
Q 49.265625 0.734375 44.1875 -0.34375 
Q 39.109375 -1.421875 33.890625 -1.421875 
Q 20.796875 -1.421875 13.15625 6.1875 
Q 5.515625 13.8125 5.515625 26.8125 
Q 5.515625 40.234375 12.765625 48.109375 
Q 20.015625 56 32.328125 56 
Q 43.359375 56 49.78125 48.890625 
Q 56.203125 41.796875 56.203125 29.59375 
z
M 47.21875 32.234375 
Q 47.125 39.59375 43.09375 43.984375 
Q 39.0625 48.390625 32.421875 48.390625 
Q 24.90625 48.390625 20.390625 44.140625 
Q 15.875 39.890625 15.1875 32.171875 
z
" id="DejaVuSans-65"/>
      <path d="M 41.109375 46.296875 
Q 39.59375 47.171875 37.8125 47.578125 
Q 36.03125 48 33.890625 48 
Q 26.265625 48 22.1875 43.046875 
Q 18.109375 38.09375 18.109375 28.8125 
L 18.109375 0 
L 9.078125 0 
L 9.078125 54.6875 
L 18.109375 54.6875 
L 18.109375 46.1875 
Q 20.953125 51.171875 25.484375 53.578125 
Q 30.03125 56 36.53125 56 
Q 37.453125 56 38.578125 55.875 
Q 39.703125 55.765625 41.0625 55.515625 
z
" id="DejaVuSans-72"/>
      <path id="DejaVuSans-20"/>
      <path d="M 30.609375 48.390625 
Q 23.390625 48.390625 19.1875 42.75 
Q 14.984375 37.109375 14.984375 27.296875 
Q 14.984375 17.484375 19.15625 11.84375 
Q 23.34375 6.203125 30.609375 6.203125 
Q 37.796875 6.203125 41.984375 11.859375 
Q 46.1875 17.53125 46.1875 27.296875 
Q 46.1875 37.015625 41.984375 42.703125 
Q 37.796875 48.390625 30.609375 48.390625 
z
M 30.609375 56 
Q 42.328125 56 49.015625 48.375 
Q 55.71875 40.765625 55.71875 27.296875 
Q 55.71875 13.875 49.015625 6.21875 
Q 42.328125 -1.421875 30.609375 -1.421875 
Q 18.84375 -1.421875 12.171875 6.21875 
Q 5.515625 13.875 5.515625 27.296875 
Q 5.515625 40.765625 12.171875 48.375 
Q 18.84375 56 30.609375 56 
z
" id="DejaVuSans-6f"/>
      <path d="M 37.109375 75.984375 
L 37.109375 68.5 
L 28.515625 68.5 
Q 23.6875 68.5 21.796875 66.546875 
Q 19.921875 64.59375 19.921875 59.515625 
L 19.921875 54.6875 
L 34.71875 54.6875 
L 34.71875 47.703125 
L 19.921875 47.703125 
L 19.921875 0 
L 10.890625 0 
L 10.890625 47.703125 
L 2.296875 47.703125 
L 2.296875 54.6875 
L 10.890625 54.6875 
L 10.890625 58.5 
Q 10.890625 67.625 15.140625 71.796875 
Q 19.390625 75.984375 28.609375 75.984375 
z
" id="DejaVuSans-66"/>
      <path d="M 48.78125 52.59375 
L 48.78125 44.1875 
Q 44.96875 46.296875 41.140625 47.34375 
Q 37.3125 48.390625 33.40625 48.390625 
Q 24.65625 48.390625 19.8125 42.84375 
Q 14.984375 37.3125 14.984375 27.296875 
Q 14.984375 17.28125 19.8125 11.734375 
Q 24.65625 6.203125 33.40625 6.203125 
Q 37.3125 6.203125 41.140625 7.25 
Q 44.96875 8.296875 48.78125 10.40625 
L 48.78125 2.09375 
Q 45.015625 0.34375 40.984375 -0.53125 
Q 36.96875 -1.421875 32.421875 -1.421875 
Q 20.0625 -1.421875 12.78125 6.34375 
Q 5.515625 14.109375 5.515625 27.296875 
Q 5.515625 40.671875 12.859375 48.328125 
Q 20.21875 56 33.015625 56 
Q 37.15625 56 41.109375 55.140625 
Q 45.0625 54.296875 48.78125 52.59375 
z
" id="DejaVuSans-63"/>
      <path d="M 18.109375 8.203125 
L 18.109375 -20.796875 
L 9.078125 -20.796875 
L 9.078125 54.6875 
L 18.109375 54.6875 
L 18.109375 46.390625 
Q 20.953125 51.265625 25.265625 53.625 
Q 29.59375 56 35.59375 56 
Q 45.5625 56 51.78125 48.09375 
Q 58.015625 40.1875 58.015625 27.296875 
Q 58.015625 14.40625 51.78125 6.484375 
Q 45.5625 -1.421875 35.59375 -1.421875 
Q 29.59375 -1.421875 25.265625 0.953125 
Q 20.953125 3.328125 18.109375 8.203125 
z
M 48.6875 27.296875 
Q 48.6875 37.203125 44.609375 42.84375 
Q 40.53125 48.484375 33.40625 48.484375 
Q 26.265625 48.484375 22.1875 42.84375 
Q 18.109375 37.203125 18.109375 27.296875 
Q 18.109375 17.390625 22.1875 11.75 
Q 26.265625 6.109375 33.40625 6.109375 
Q 40.53125 6.109375 44.609375 11.75 
Q 48.6875 17.390625 48.6875 27.296875 
z
" id="DejaVuSans-70"/>
      <path d="M 18.3125 70.21875 
L 18.3125 54.6875 
L 36.8125 54.6875 
L 36.8125 47.703125 
L 18.3125 47.703125 
L 18.3125 18.015625 
Q 18.3125 11.328125 20.140625 9.421875 
Q 21.96875 7.515625 27.59375 7.515625 
L 36.8125 7.515625 
L 36.8125 0 
L 27.59375 0 
Q 17.1875 0 13.234375 3.875 
Q 9.28125 7.765625 9.28125 18.015625 
L 9.28125 47.703125 
L 2.6875 47.703125 
L 2.6875 54.6875 
L 9.28125 54.6875 
L 9.28125 70.21875 
z
" id="DejaVuSans-74"/>
      <path d="M 44.28125 53.078125 
L 44.28125 44.578125 
Q 40.484375 46.53125 36.375 47.5 
Q 32.28125 48.484375 27.875 48.484375 
Q 21.1875 48.484375 17.84375 46.4375 
Q 14.5 44.390625 14.5 40.28125 
Q 14.5 37.15625 16.890625 35.375 
Q 19.28125 33.59375 26.515625 31.984375 
L 29.59375 31.296875 
Q 39.15625 29.25 43.1875 25.515625 
Q 47.21875 21.78125 47.21875 15.09375 
Q 47.21875 7.46875 41.1875 3.015625 
Q 35.15625 -1.421875 24.609375 -1.421875 
Q 20.21875 -1.421875 15.453125 -0.5625 
Q 10.6875 0.296875 5.421875 2 
L 5.421875 11.28125 
Q 10.40625 8.6875 15.234375 7.390625 
Q 20.0625 6.109375 24.8125 6.109375 
Q 31.15625 6.109375 34.5625 8.28125 
Q 37.984375 10.453125 37.984375 14.40625 
Q 37.984375 18.0625 35.515625 20.015625 
Q 33.0625 21.96875 24.703125 23.78125 
L 21.578125 24.515625 
Q 13.234375 26.265625 9.515625 29.90625 
Q 5.8125 33.546875 5.8125 39.890625 
Q 5.8125 47.609375 11.28125 51.796875 
Q 16.75 56 26.8125 56 
Q 31.78125 56 36.171875 55.265625 
Q 40.578125 54.546875 44.28125 53.078125 
z
" id="DejaVuSans-73"/>
      <path d="M 9.421875 54.6875 
L 18.40625 54.6875 
L 18.40625 0 
L 9.421875 0 
z
M 9.421875 75.984375 
L 18.40625 75.984375 
L 18.40625 64.59375 
L 9.421875 64.59375 
z
" id="DejaVuSans-69"/>
      <path d="M 45.40625 46.390625 
L 45.40625 75.984375 
L 54.390625 75.984375 
L 54.390625 0 
L 45.40625 0 
L 45.40625 8.203125 
Q 42.578125 3.328125 38.25 0.953125 
Q 33.9375 -1.421875 27.875 -1.421875 
Q 17.96875 -1.421875 11.734375 6.484375 
Q 5.515625 14.40625 5.515625 27.296875 
Q 5.515625 40.1875 11.734375 48.09375 
Q 17.96875 56 27.875 56 
Q 33.9375 56 38.25 53.625 
Q 42.578125 51.265625 45.40625 46.390625 
z
M 14.796875 27.296875 
Q 14.796875 17.390625 18.875 11.75 
Q 22.953125 6.109375 30.078125 6.109375 
Q 37.203125 6.109375 41.296875 11.75 
Q 45.40625 17.390625 45.40625 27.296875 
Q 45.40625 37.203125 41.296875 42.84375 
Q 37.203125 48.484375 30.078125 48.484375 
Q 22.953125 48.484375 18.875 42.84375 
Q 14.796875 37.203125 14.796875 27.296875 
z
" id="DejaVuSans-64"/>
      <path d="M 9.421875 75.984375 
L 18.40625 75.984375 
L 18.40625 0 
L 9.421875 0 
z
" id="DejaVuSans-6c"/>
     </defs>
     <g transform="translate(60.473879 331.363288)scale(0.1 -0.1)">
      <use xlink:href="#DejaVuSans-6e"/>
      <use x="63.378906" xlink:href="#DejaVuSans-75"/>
      <use x="126.757812" xlink:href="#DejaVuSans-6d"/>
      <use x="224.169922" xlink:href="#DejaVuSans-62"/>
      <use x="287.646484" xlink:href="#DejaVuSans-65"/>
      <use x="349.169922" xlink:href="#DejaVuSans-72"/>
      <use x="390.283203" xlink:href="#DejaVuSans-20"/>
      <use x="422.070312" xlink:href="#DejaVuSans-6f"/>
      <use x="483.251953" xlink:href="#DejaVuSans-66"/>
      <use x="518.457031" xlink:href="#DejaVuSans-20"/>
      <use x="550.244141" xlink:href="#DejaVuSans-63"/>
      <use x="605.224609" xlink:href="#DejaVuSans-6f"/>
      <use x="666.40625" xlink:href="#DejaVuSans-6d"/>
      <use x="763.818359" xlink:href="#DejaVuSans-70"/>
      <use x="827.294922" xlink:href="#DejaVuSans-6f"/>
      <use x="888.476562" xlink:href="#DejaVuSans-6e"/>
      <use x="951.855469" xlink:href="#DejaVuSans-65"/>
      <use x="1013.378906" xlink:href="#DejaVuSans-6e"/>
      <use x="1076.757812" xlink:href="#DejaVuSans-74"/>
      <use x="1115.966797" xlink:href="#DejaVuSans-73"/>
      <use x="1168.066406" xlink:href="#DejaVuSans-20"/>
      <use x="1199.853516" xlink:href="#DejaVuSans-69"/>
      <use x="1227.636719" xlink:href="#DejaVuSans-6e"/>
      <use x="1291.015625" xlink:href="#DejaVuSans-20"/>
      <use x="1322.802734" xlink:href="#DejaVuSans-6d"/>
      <use x="1420.214844" xlink:href="#DejaVuSans-6f"/>
      <use x="1481.396484" xlink:href="#DejaVuSans-64"/>
      <use x="1544.873047" xlink:href="#DejaVuSans-65"/>
      <use x="1606.396484" xlink:href="#DejaVuSans-6c"/>
     </g>
    </g>
   </g>
   <g id="matplotlib.axis_2">
    <g id="text_6">
     <!-- cumulative variance explained (%) -->
     <defs>
      <path d="M 34.28125 27.484375 
Q 23.390625 27.484375 19.1875 25 
Q 14.984375 22.515625 14.984375 16.5 
Q 14.984375 11.71875 18.140625 8.90625 
Q 21.296875 6.109375 26.703125 6.109375 
Q 34.1875 6.109375 38.703125 11.40625 
Q 43.21875 16.703125 43.21875 25.484375 
L 43.21875 27.484375 
z
M 52.203125 31.203125 
L 52.203125 0 
L 43.21875 0 
L 43.21875 8.296875 
Q 40.140625 3.328125 35.546875 0.953125 
Q 30.953125 -1.421875 24.3125 -1.421875 
Q 15.921875 -1.421875 10.953125 3.296875 
Q 6 8.015625 6 15.921875 
Q 6 25.140625 12.171875 29.828125 
Q 18.359375 34.515625 30.609375 34.515625 
L 43.21875 34.515625 
L 43.21875 35.40625 
Q 43.21875 41.609375 39.140625 45 
Q 35.0625 48.390625 27.6875 48.390625 
Q 23 48.390625 18.546875 47.265625 
Q 14.109375 46.140625 10.015625 43.890625 
L 10.015625 52.203125 
Q 14.9375 54.109375 19.578125 55.046875 
Q 24.21875 56 28.609375 56 
Q 40.484375 56 46.34375 49.84375 
Q 52.203125 43.703125 52.203125 31.203125 
z
" id="DejaVuSans-61"/>
      <path d="M 2.984375 54.6875 
L 12.5 54.6875 
L 29.59375 8.796875 
L 46.6875 54.6875 
L 56.203125 54.6875 
L 35.6875 0 
L 23.484375 0 
z
" id="DejaVuSans-76"/>
      <path d="M 54.890625 54.6875 
L 35.109375 28.078125 
L 55.90625 0 
L 45.3125 0 
L 29.390625 21.484375 
L 13.484375 0 
L 2.875 0 
L 24.125 28.609375 
L 4.6875 54.6875 
L 15.28125 54.6875 
L 29.78125 35.203125 
L 44.28125 54.6875 
z
" id="DejaVuSans-78"/>
      <path d="M 31 75.875 
Q 24.46875 64.65625 21.28125 53.65625 
Q 18.109375 42.671875 18.109375 31.390625 
Q 18.109375 20.125 21.3125 9.0625 
Q 24.515625 -2 31 -13.1875 
L 23.1875 -13.1875 
Q 15.875 -1.703125 12.234375 9.375 
Q 8.59375 20.453125 8.59375 31.390625 
Q 8.59375 42.28125 12.203125 53.3125 
Q 15.828125 64.359375 23.1875 75.875 
z
" id="DejaVuSans-28"/>
      <path d="M 72.703125 32.078125 
Q 68.453125 32.078125 66.03125 28.46875 
Q 63.625 24.859375 63.625 18.40625 
Q 63.625 12.0625 66.03125 8.421875 
Q 68.453125 4.78125 72.703125 4.78125 
Q 76.859375 4.78125 79.265625 8.421875 
Q 81.6875 12.0625 81.6875 18.40625 
Q 81.6875 24.8125 79.265625 28.4375 
Q 76.859375 32.078125 72.703125 32.078125 
z
M 72.703125 38.28125 
Q 80.421875 38.28125 84.953125 32.90625 
Q 89.5 27.546875 89.5 18.40625 
Q 89.5 9.28125 84.9375 3.921875 
Q 80.375 -1.421875 72.703125 -1.421875 
Q 64.890625 -1.421875 60.34375 3.921875 
Q 55.8125 9.28125 55.8125 18.40625 
Q 55.8125 27.59375 60.375 32.9375 
Q 64.9375 38.28125 72.703125 38.28125 
z
M 22.3125 68.015625 
Q 18.109375 68.015625 15.6875 64.375 
Q 13.28125 60.75 13.28125 54.390625 
Q 13.28125 47.953125 15.671875 44.328125 
Q 18.0625 40.71875 22.3125 40.71875 
Q 26.5625 40.71875 28.96875 44.328125 
Q 31.390625 47.953125 31.390625 54.390625 
Q 31.390625 60.6875 28.953125 64.34375 
Q 26.515625 68.015625 22.3125 68.015625 
z
M 66.40625 74.21875 
L 74.21875 74.21875 
L 28.609375 -1.421875 
L 20.796875 -1.421875 
z
M 22.3125 74.21875 
Q 30.03125 74.21875 34.609375 68.875 
Q 39.203125 63.53125 39.203125 54.390625 
Q 39.203125 45.171875 34.640625 39.84375 
Q 30.078125 34.515625 22.3125 34.515625 
Q 14.546875 34.515625 10.03125 39.859375 
Q 5.515625 45.21875 5.515625 54.390625 
Q 5.515625 63.484375 10.046875 68.84375 
Q 14.59375 74.21875 22.3125 74.21875 
z
" id="DejaVuSans-25"/>
      <path d="M 8.015625 75.875 
L 15.828125 75.875 
Q 23.140625 64.359375 26.78125 53.3125 
Q 30.421875 42.28125 30.421875 31.390625 
Q 30.421875 20.453125 26.78125 9.375 
Q 23.140625 -1.703125 15.828125 -13.1875 
L 8.015625 -13.1875 
Q 14.5 -2 17.703125 9.0625 
Q 20.90625 20.125 20.90625 31.390625 
Q 20.90625 42.671875 17.703125 53.65625 
Q 14.5 64.65625 8.015625 75.875 
z
" id="DejaVuSans-29"/>
     </defs>
     <g transform="translate(14.798438 248.130625)rotate(-90)scale(0.1 -0.1)">
      <use xlink:href="#DejaVuSans-63"/>
      <use x="54.980469" xlink:href="#DejaVuSans-75"/>
      <use x="118.359375" xlink:href="#DejaVuSans-6d"/>
      <use x="215.771484" xlink:href="#DejaVuSans-75"/>
      <use x="279.150391" xlink:href="#DejaVuSans-6c"/>
      <use x="306.933594" xlink:href="#DejaVuSans-61"/>
      <use x="368.212891" xlink:href="#DejaVuSans-74"/>
      <use x="407.421875" xlink:href="#DejaVuSans-69"/>
      <use x="435.205078" xlink:href="#DejaVuSans-76"/>
      <use x="494.384766" xlink:href="#DejaVuSans-65"/>
      <use x="555.908203" xlink:href="#DejaVuSans-20"/>
      <use x="587.695312" xlink:href="#DejaVuSans-76"/>
      <use x="646.875" xlink:href="#DejaVuSans-61"/>
      <use x="708.154297" xlink:href="#DejaVuSans-72"/>
      <use x="749.267578" xlink:href="#DejaVuSans-69"/>
      <use x="777.050781" xlink:href="#DejaVuSans-61"/>
      <use x="838.330078" xlink:href="#DejaVuSans-6e"/>
      <use x="901.708984" xlink:href="#DejaVuSans-63"/>
      <use x="956.689453" xlink:href="#DejaVuSans-65"/>
      <use x="1018.212891" xlink:href="#DejaVuSans-20"/>
      <use x="1050" xlink:href="#DejaVuSans-65"/>
      <use x="1111.507812" xlink:href="#DejaVuSans-78"/>
      <use x="1170.6875" xlink:href="#DejaVuSans-70"/>
      <use x="1234.164062" xlink:href="#DejaVuSans-6c"/>
      <use x="1261.947266" xlink:href="#DejaVuSans-61"/>
      <use x="1323.226562" xlink:href="#DejaVuSans-69"/>
      <use x="1351.009766" xlink:href="#DejaVuSans-6e"/>
      <use x="1414.388672" xlink:href="#DejaVuSans-65"/>
      <use x="1475.912109" xlink:href="#DejaVuSans-64"/>
      <use x="1539.388672" xlink:href="#DejaVuSans-20"/>
      <use x="1571.175781" xlink:href="#DejaVuSans-28"/>
      <use x="1610.189453" xlink:href="#DejaVuSans-25"/>
      <use x="1705.208984" xlink:href="#DejaVuSans-29"/>
     </g>
    </g>
   </g>
   <g id="line2d_5">
    <path clip-path="url(#pbc11ce667e)" d="M 31.905793 286.918125 
L 33.0666 267.726472 
L 34.227407 255.572489 
L 35.388214 246.936465 
L 36.549022 241.454178 
L 38.870636 232.8332 
L 41.19225 224.906591 
L 43.513865 218.257684 
L 46.996286 209.191666 
L 49.3179 203.593584 
L 52.800322 195.918603 
L 56.282743 188.700056 
L 60.925972 179.752042 
L 66.730008 169.372031 
L 72.534043 159.732359 
L 77.177272 152.389957 
L 82.981308 143.677275 
L 87.624536 137.202227 
L 93.428572 129.552043 
L 98.071801 123.751784 
L 103.875837 116.82493 
L 109.679872 110.358192 
L 115.483908 104.249308 
L 121.287944 98.4738 
L 127.09198 93.022222 
L 132.896016 87.885082 
L 138.700051 83.023978 
L 144.504087 78.439009 
L 149.147316 74.958691 
L 156.112159 70.119287 
L 161.916194 66.36326 
L 168.881037 62.158525 
L 175.84588 58.288786 
L 181.649916 55.293116 
L 188.614759 51.975499 
L 195.579602 48.95525 
L 201.383638 46.652964 
L 207.187674 44.561287 
L 214.152517 42.308371 
L 222.278167 39.973273 
L 228.082202 38.51302 
L 235.047045 36.991298 
L 242.011888 35.731606 
L 247.815924 34.918125 
L 252.459153 34.918125 
L 252.459153 34.918125 
" style="fill:none;stroke:#800080;stroke-linecap:square;stroke-width:2.5;"/>
   </g>
   <g id="line2d_6">
    <path clip-path="url(#pbc11ce667e)" d="M 20.878125 160.918125 
L 263.486821 160.918125 
" style="fill:none;stroke:#d3d3d3;stroke-linecap:square;stroke-width:0.25;"/>
   </g>
   <g id="line2d_7">
    <path clip-path="url(#pbc11ce667e)" d="M 72.534043 299.518125 
L 72.534043 22.318125 
" style="fill:none;stroke:#1f77b4;stroke-dasharray:2,3.3;stroke-dashoffset:0;stroke-width:2;"/>
   </g>
   <g id="line2d_8">
    <path clip-path="url(#pbc11ce667e)" d="M 20.878125 110.518125 
L 263.486821 110.518125 
" style="fill:none;stroke:#d3d3d3;stroke-linecap:square;stroke-width:0.25;"/>
   </g>
   <g id="line2d_9">
    <path clip-path="url(#pbc11ce667e)" d="M 109.679872 299.518125 
L 109.679872 22.318125 
" style="fill:none;stroke:#ff7f0e;stroke-dasharray:2,3.3;stroke-dashoffset:0;stroke-width:2;"/>
   </g>
   <g id="line2d_10">
    <path clip-path="url(#pbc11ce667e)" d="M 20.878125 60.118125 
L 263.486821 60.118125 
" style="fill:none;stroke:#d3d3d3;stroke-linecap:square;stroke-width:0.25;"/>
   </g>
   <g id="line2d_11">
    <path clip-path="url(#pbc11ce667e)" d="M 173.524266 299.518125 
L 173.524266 22.318125 
" style="fill:none;stroke:#2ca02c;stroke-dasharray:2,3.3;stroke-dashoffset:0;stroke-width:2;"/>
   </g>
   <g id="patch_3">
    <path d="M 20.878125 299.518125 
L 263.486821 299.518125 
" style="fill:none;stroke:#000000;stroke-linecap:square;stroke-linejoin:miter;stroke-width:0.8;"/>
   </g>
   <g id="text_7">
    <g id="patch_4">
     <path d="M 31.905793 164.443428 
L 40.736943 164.443428 
Q 42.818943 164.443428 42.818943 162.361428 
L 42.818943 155.644809 
Q 42.818943 153.562809 40.736943 153.562809 
L 31.905793 153.562809 
Q 29.823793 153.562809 29.823793 155.644809 
L 29.823793 162.361428 
Q 29.823793 164.443428 31.905793 164.443428 
z
" style="fill:#ffffff;opacity:0.8;"/>
    </g>
    <!-- 50 -->
    <g transform="translate(31.905793 160.918125)scale(0.0694 -0.0694)">
     <use xlink:href="#DejaVuSans-35"/>
     <use x="63.623047" xlink:href="#DejaVuSans-30"/>
    </g>
   </g>
   <g id="text_8">
    <g id="patch_5">
     <path d="M 80.314627 280.95451 
L 80.314627 213.035096 
Q 80.314627 211.298096 78.577627 211.298096 
L 66.49046 211.298096 
Q 64.75346 211.298096 64.75346 213.035096 
L 64.75346 280.95451 
Q 64.75346 282.69151 66.49046 282.69151 
L 78.577627 282.69151 
Q 80.314627 282.69151 80.314627 280.95451 
z
" style="fill:#ffffff;opacity:0.8;"/>
    </g>
    <!-- 35 components explain -->
    <defs>
     <path d="M 40.578125 39.3125 
Q 47.65625 37.796875 51.625 33 
Q 55.609375 28.21875 55.609375 21.1875 
Q 55.609375 10.40625 48.1875 4.484375 
Q 40.765625 -1.421875 27.09375 -1.421875 
Q 22.515625 -1.421875 17.65625 -0.515625 
Q 12.796875 0.390625 7.625 2.203125 
L 7.625 11.71875 
Q 11.71875 9.328125 16.59375 8.109375 
Q 21.484375 6.890625 26.8125 6.890625 
Q 36.078125 6.890625 40.9375 10.546875 
Q 45.796875 14.203125 45.796875 21.1875 
Q 45.796875 27.640625 41.28125 31.265625 
Q 36.765625 34.90625 28.71875 34.90625 
L 20.21875 34.90625 
L 20.21875 43.015625 
L 29.109375 43.015625 
Q 36.375 43.015625 40.234375 45.921875 
Q 44.09375 48.828125 44.09375 54.296875 
Q 44.09375 59.90625 40.109375 62.90625 
Q 36.140625 65.921875 28.71875 65.921875 
Q 24.65625 65.921875 20.015625 65.03125 
Q 15.375 64.15625 9.8125 62.3125 
L 9.8125 71.09375 
Q 15.4375 72.65625 20.34375 73.4375 
Q 25.25 74.21875 29.59375 74.21875 
Q 40.828125 74.21875 47.359375 69.109375 
Q 53.90625 64.015625 53.90625 55.328125 
Q 53.90625 49.265625 50.4375 45.09375 
Q 46.96875 40.921875 40.578125 39.3125 
z
" id="DejaVuSans-33"/>
    </defs>
    <g transform="translate(70.889955 280.95451)rotate(-90)scale(0.0579 -0.0579)">
     <use xlink:href="#DejaVuSans-33"/>
     <use x="63.623047" xlink:href="#DejaVuSans-35"/>
     <use x="127.246094" xlink:href="#DejaVuSans-20"/>
     <use x="159.033203" xlink:href="#DejaVuSans-63"/>
     <use x="214.013672" xlink:href="#DejaVuSans-6f"/>
     <use x="275.195312" xlink:href="#DejaVuSans-6d"/>
     <use x="372.607422" xlink:href="#DejaVuSans-70"/>
     <use x="436.083984" xlink:href="#DejaVuSans-6f"/>
     <use x="497.265625" xlink:href="#DejaVuSans-6e"/>
     <use x="560.644531" xlink:href="#DejaVuSans-65"/>
     <use x="622.167969" xlink:href="#DejaVuSans-6e"/>
     <use x="685.546875" xlink:href="#DejaVuSans-74"/>
     <use x="724.755859" xlink:href="#DejaVuSans-73"/>
     <use x="776.855469" xlink:href="#DejaVuSans-20"/>
     <use x="808.642578" xlink:href="#DejaVuSans-65"/>
     <use x="870.150391" xlink:href="#DejaVuSans-78"/>
     <use x="929.330078" xlink:href="#DejaVuSans-70"/>
     <use x="992.806641" xlink:href="#DejaVuSans-6c"/>
     <use x="1020.589844" xlink:href="#DejaVuSans-61"/>
     <use x="1081.869141" xlink:href="#DejaVuSans-69"/>
     <use x="1109.652344" xlink:href="#DejaVuSans-6e"/>
    </g>
    <!-- 50% of variance -->
    <g transform="translate(77.373488 270.523916)rotate(-90)scale(0.0579 -0.0579)">
     <use xlink:href="#DejaVuSans-35"/>
     <use x="63.623047" xlink:href="#DejaVuSans-30"/>
     <use x="127.246094" xlink:href="#DejaVuSans-25"/>
     <use x="222.265625" xlink:href="#DejaVuSans-20"/>
     <use x="254.052734" xlink:href="#DejaVuSans-6f"/>
     <use x="315.234375" xlink:href="#DejaVuSans-66"/>
     <use x="350.439453" xlink:href="#DejaVuSans-20"/>
     <use x="382.226562" xlink:href="#DejaVuSans-76"/>
     <use x="441.40625" xlink:href="#DejaVuSans-61"/>
     <use x="502.685547" xlink:href="#DejaVuSans-72"/>
     <use x="543.798828" xlink:href="#DejaVuSans-69"/>
     <use x="571.582031" xlink:href="#DejaVuSans-61"/>
     <use x="632.861328" xlink:href="#DejaVuSans-6e"/>
     <use x="696.240234" xlink:href="#DejaVuSans-63"/>
     <use x="751.220703" xlink:href="#DejaVuSans-65"/>
    </g>
   </g>
   <g id="text_9">
    <g id="patch_6">
     <path d="M 31.905793 114.043428 
L 40.736943 114.043428 
Q 42.818943 114.043428 42.818943 111.961428 
L 42.818943 105.244809 
Q 42.818943 103.162809 40.736943 103.162809 
L 31.905793 103.162809 
Q 29.823793 103.162809 29.823793 105.244809 
L 29.823793 111.961428 
Q 29.823793 114.043428 31.905793 114.043428 
z
" style="fill:#ffffff;opacity:0.8;"/>
    </g>
    <!-- 70 -->
    <defs>
     <path d="M 8.203125 72.90625 
L 55.078125 72.90625 
L 55.078125 68.703125 
L 28.609375 0 
L 18.3125 0 
L 43.21875 64.59375 
L 8.203125 64.59375 
z
" id="DejaVuSans-37"/>
    </defs>
    <g transform="translate(31.905793 110.518125)scale(0.0694 -0.0694)">
     <use xlink:href="#DejaVuSans-37"/>
     <use x="63.623047" xlink:href="#DejaVuSans-30"/>
    </g>
   </g>
   <g id="text_10">
    <g id="patch_7">
     <path d="M 117.460456 280.95451 
L 117.460456 213.035096 
Q 117.460456 211.298096 115.723456 211.298096 
L 103.636289 211.298096 
Q 101.899289 211.298096 101.899289 213.035096 
L 101.899289 280.95451 
Q 101.899289 282.69151 103.636289 282.69151 
L 115.723456 282.69151 
Q 117.460456 282.69151 117.460456 280.95451 
z
" style="fill:#ffffff;opacity:0.8;"/>
    </g>
    <!-- 67 components explain -->
    <defs>
     <path d="M 33.015625 40.375 
Q 26.375 40.375 22.484375 35.828125 
Q 18.609375 31.296875 18.609375 23.390625 
Q 18.609375 15.53125 22.484375 10.953125 
Q 26.375 6.390625 33.015625 6.390625 
Q 39.65625 6.390625 43.53125 10.953125 
Q 47.40625 15.53125 47.40625 23.390625 
Q 47.40625 31.296875 43.53125 35.828125 
Q 39.65625 40.375 33.015625 40.375 
z
M 52.59375 71.296875 
L 52.59375 62.3125 
Q 48.875 64.0625 45.09375 64.984375 
Q 41.3125 65.921875 37.59375 65.921875 
Q 27.828125 65.921875 22.671875 59.328125 
Q 17.53125 52.734375 16.796875 39.40625 
Q 19.671875 43.65625 24.015625 45.921875 
Q 28.375 48.1875 33.59375 48.1875 
Q 44.578125 48.1875 50.953125 41.515625 
Q 57.328125 34.859375 57.328125 23.390625 
Q 57.328125 12.15625 50.6875 5.359375 
Q 44.046875 -1.421875 33.015625 -1.421875 
Q 20.359375 -1.421875 13.671875 8.265625 
Q 6.984375 17.96875 6.984375 36.375 
Q 6.984375 53.65625 15.1875 63.9375 
Q 23.390625 74.21875 37.203125 74.21875 
Q 40.921875 74.21875 44.703125 73.484375 
Q 48.484375 72.75 52.59375 71.296875 
z
" id="DejaVuSans-36"/>
    </defs>
    <g transform="translate(108.035784 280.95451)rotate(-90)scale(0.0579 -0.0579)">
     <use xlink:href="#DejaVuSans-36"/>
     <use x="63.623047" xlink:href="#DejaVuSans-37"/>
     <use x="127.246094" xlink:href="#DejaVuSans-20"/>
     <use x="159.033203" xlink:href="#DejaVuSans-63"/>
     <use x="214.013672" xlink:href="#DejaVuSans-6f"/>
     <use x="275.195312" xlink:href="#DejaVuSans-6d"/>
     <use x="372.607422" xlink:href="#DejaVuSans-70"/>
     <use x="436.083984" xlink:href="#DejaVuSans-6f"/>
     <use x="497.265625" xlink:href="#DejaVuSans-6e"/>
     <use x="560.644531" xlink:href="#DejaVuSans-65"/>
     <use x="622.167969" xlink:href="#DejaVuSans-6e"/>
     <use x="685.546875" xlink:href="#DejaVuSans-74"/>
     <use x="724.755859" xlink:href="#DejaVuSans-73"/>
     <use x="776.855469" xlink:href="#DejaVuSans-20"/>
     <use x="808.642578" xlink:href="#DejaVuSans-65"/>
     <use x="870.150391" xlink:href="#DejaVuSans-78"/>
     <use x="929.330078" xlink:href="#DejaVuSans-70"/>
     <use x="992.806641" xlink:href="#DejaVuSans-6c"/>
     <use x="1020.589844" xlink:href="#DejaVuSans-61"/>
     <use x="1081.869141" xlink:href="#DejaVuSans-69"/>
     <use x="1109.652344" xlink:href="#DejaVuSans-6e"/>
    </g>
    <!-- 70% of variance -->
    <g transform="translate(114.519317 270.523916)rotate(-90)scale(0.0579 -0.0579)">
     <use xlink:href="#DejaVuSans-37"/>
     <use x="63.623047" xlink:href="#DejaVuSans-30"/>
     <use x="127.246094" xlink:href="#DejaVuSans-25"/>
     <use x="222.265625" xlink:href="#DejaVuSans-20"/>
     <use x="254.052734" xlink:href="#DejaVuSans-6f"/>
     <use x="315.234375" xlink:href="#DejaVuSans-66"/>
     <use x="350.439453" xlink:href="#DejaVuSans-20"/>
     <use x="382.226562" xlink:href="#DejaVuSans-76"/>
     <use x="441.40625" xlink:href="#DejaVuSans-61"/>
     <use x="502.685547" xlink:href="#DejaVuSans-72"/>
     <use x="543.798828" xlink:href="#DejaVuSans-69"/>
     <use x="571.582031" xlink:href="#DejaVuSans-61"/>
     <use x="632.861328" xlink:href="#DejaVuSans-6e"/>
     <use x="696.240234" xlink:href="#DejaVuSans-63"/>
     <use x="751.220703" xlink:href="#DejaVuSans-65"/>
    </g>
   </g>
   <g id="text_11">
    <g id="patch_8">
     <path d="M 31.905793 63.643428 
L 40.736943 63.643428 
Q 42.818943 63.643428 42.818943 61.561428 
L 42.818943 54.844809 
Q 42.818943 52.762809 40.736943 52.762809 
L 31.905793 52.762809 
Q 29.823793 52.762809 29.823793 54.844809 
L 29.823793 61.561428 
Q 29.823793 63.643428 31.905793 63.643428 
z
" style="fill:#ffffff;opacity:0.8;"/>
    </g>
    <!-- 90 -->
    <defs>
     <path d="M 10.984375 1.515625 
L 10.984375 10.5 
Q 14.703125 8.734375 18.5 7.8125 
Q 22.3125 6.890625 25.984375 6.890625 
Q 35.75 6.890625 40.890625 13.453125 
Q 46.046875 20.015625 46.78125 33.40625 
Q 43.953125 29.203125 39.59375 26.953125 
Q 35.25 24.703125 29.984375 24.703125 
Q 19.046875 24.703125 12.671875 31.3125 
Q 6.296875 37.9375 6.296875 49.421875 
Q 6.296875 60.640625 12.9375 67.421875 
Q 19.578125 74.21875 30.609375 74.21875 
Q 43.265625 74.21875 49.921875 64.515625 
Q 56.59375 54.828125 56.59375 36.375 
Q 56.59375 19.140625 48.40625 8.859375 
Q 40.234375 -1.421875 26.421875 -1.421875 
Q 22.703125 -1.421875 18.890625 -0.6875 
Q 15.09375 0.046875 10.984375 1.515625 
z
M 30.609375 32.421875 
Q 37.25 32.421875 41.125 36.953125 
Q 45.015625 41.5 45.015625 49.421875 
Q 45.015625 57.28125 41.125 61.84375 
Q 37.25 66.40625 30.609375 66.40625 
Q 23.96875 66.40625 20.09375 61.84375 
Q 16.21875 57.28125 16.21875 49.421875 
Q 16.21875 41.5 20.09375 36.953125 
Q 23.96875 32.421875 30.609375 32.421875 
z
" id="DejaVuSans-39"/>
    </defs>
    <g transform="translate(31.905793 60.118125)scale(0.0694 -0.0694)">
     <use xlink:href="#DejaVuSans-39"/>
     <use x="63.623047" xlink:href="#DejaVuSans-30"/>
    </g>
   </g>
   <g id="text_12">
    <g id="patch_9">
     <path d="M 181.30485 284.638398 
L 181.30485 213.035096 
Q 181.30485 211.298096 179.56785 211.298096 
L 167.480682 211.298096 
Q 165.743682 211.298096 165.743682 213.035096 
L 165.743682 284.638398 
Q 165.743682 286.375398 167.480682 286.375398 
L 179.56785 286.375398 
Q 181.30485 286.375398 181.30485 284.638398 
z
" style="fill:#ffffff;opacity:0.8;"/>
    </g>
    <!-- 122 components explain -->
    <defs>
     <path d="M 19.1875 8.296875 
L 53.609375 8.296875 
L 53.609375 0 
L 7.328125 0 
L 7.328125 8.296875 
Q 12.9375 14.109375 22.625 23.890625 
Q 32.328125 33.6875 34.8125 36.53125 
Q 39.546875 41.84375 41.421875 45.53125 
Q 43.3125 49.21875 43.3125 52.78125 
Q 43.3125 58.59375 39.234375 62.25 
Q 35.15625 65.921875 28.609375 65.921875 
Q 23.96875 65.921875 18.8125 64.3125 
Q 13.671875 62.703125 7.8125 59.421875 
L 7.8125 69.390625 
Q 13.765625 71.78125 18.9375 73 
Q 24.125 74.21875 28.421875 74.21875 
Q 39.75 74.21875 46.484375 68.546875 
Q 53.21875 62.890625 53.21875 53.421875 
Q 53.21875 48.921875 51.53125 44.890625 
Q 49.859375 40.875 45.40625 35.40625 
Q 44.1875 33.984375 37.640625 27.21875 
Q 31.109375 20.453125 19.1875 8.296875 
z
" id="DejaVuSans-32"/>
    </defs>
    <g transform="translate(171.880177 284.638398)rotate(-90)scale(0.0579 -0.0579)">
     <use xlink:href="#DejaVuSans-31"/>
     <use x="63.623047" xlink:href="#DejaVuSans-32"/>
     <use x="127.246094" xlink:href="#DejaVuSans-32"/>
     <use x="190.869141" xlink:href="#DejaVuSans-20"/>
     <use x="222.65625" xlink:href="#DejaVuSans-63"/>
     <use x="277.636719" xlink:href="#DejaVuSans-6f"/>
     <use x="338.818359" xlink:href="#DejaVuSans-6d"/>
     <use x="436.230469" xlink:href="#DejaVuSans-70"/>
     <use x="499.707031" xlink:href="#DejaVuSans-6f"/>
     <use x="560.888672" xlink:href="#DejaVuSans-6e"/>
     <use x="624.267578" xlink:href="#DejaVuSans-65"/>
     <use x="685.791016" xlink:href="#DejaVuSans-6e"/>
     <use x="749.169922" xlink:href="#DejaVuSans-74"/>
     <use x="788.378906" xlink:href="#DejaVuSans-73"/>
     <use x="840.478516" xlink:href="#DejaVuSans-20"/>
     <use x="872.265625" xlink:href="#DejaVuSans-65"/>
     <use x="933.773438" xlink:href="#DejaVuSans-78"/>
     <use x="992.953125" xlink:href="#DejaVuSans-70"/>
     <use x="1056.429688" xlink:href="#DejaVuSans-6c"/>
     <use x="1084.212891" xlink:href="#DejaVuSans-61"/>
     <use x="1145.492188" xlink:href="#DejaVuSans-69"/>
     <use x="1173.275391" xlink:href="#DejaVuSans-6e"/>
    </g>
    <!-- 90% of variance -->
    <g transform="translate(178.363711 272.36586)rotate(-90)scale(0.0579 -0.0579)">
     <use xlink:href="#DejaVuSans-39"/>
     <use x="63.623047" xlink:href="#DejaVuSans-30"/>
     <use x="127.246094" xlink:href="#DejaVuSans-25"/>
     <use x="222.265625" xlink:href="#DejaVuSans-20"/>
     <use x="254.052734" xlink:href="#DejaVuSans-6f"/>
     <use x="315.234375" xlink:href="#DejaVuSans-66"/>
     <use x="350.439453" xlink:href="#DejaVuSans-20"/>
     <use x="382.226562" xlink:href="#DejaVuSans-76"/>
     <use x="441.40625" xlink:href="#DejaVuSans-61"/>
     <use x="502.685547" xlink:href="#DejaVuSans-72"/>
     <use x="543.798828" xlink:href="#DejaVuSans-69"/>
     <use x="571.582031" xlink:href="#DejaVuSans-61"/>
     <use x="632.861328" xlink:href="#DejaVuSans-6e"/>
     <use x="696.240234" xlink:href="#DejaVuSans-63"/>
     <use x="751.220703" xlink:href="#DejaVuSans-65"/>
    </g>
   </g>
   <g id="text_13">
    <!-- aCompCor (CSF mask) -->
    <defs>
     <path d="M 64.40625 67.28125 
L 64.40625 56.890625 
Q 59.421875 61.53125 53.78125 63.8125 
Q 48.140625 66.109375 41.796875 66.109375 
Q 29.296875 66.109375 22.65625 58.46875 
Q 16.015625 50.828125 16.015625 36.375 
Q 16.015625 21.96875 22.65625 14.328125 
Q 29.296875 6.6875 41.796875 6.6875 
Q 48.140625 6.6875 53.78125 8.984375 
Q 59.421875 11.28125 64.40625 15.921875 
L 64.40625 5.609375 
Q 59.234375 2.09375 53.4375 0.328125 
Q 47.65625 -1.421875 41.21875 -1.421875 
Q 24.65625 -1.421875 15.125 8.703125 
Q 5.609375 18.84375 5.609375 36.375 
Q 5.609375 53.953125 15.125 64.078125 
Q 24.65625 74.21875 41.21875 74.21875 
Q 47.75 74.21875 53.53125 72.484375 
Q 59.328125 70.75 64.40625 67.28125 
z
" id="DejaVuSans-43"/>
     <path d="M 53.515625 70.515625 
L 53.515625 60.890625 
Q 47.90625 63.578125 42.921875 64.890625 
Q 37.9375 66.21875 33.296875 66.21875 
Q 25.25 66.21875 20.875 63.09375 
Q 16.5 59.96875 16.5 54.203125 
Q 16.5 49.359375 19.40625 46.890625 
Q 22.3125 44.4375 30.421875 42.921875 
L 36.375 41.703125 
Q 47.40625 39.59375 52.65625 34.296875 
Q 57.90625 29 57.90625 20.125 
Q 57.90625 9.515625 50.796875 4.046875 
Q 43.703125 -1.421875 29.984375 -1.421875 
Q 24.8125 -1.421875 18.96875 -0.25 
Q 13.140625 0.921875 6.890625 3.21875 
L 6.890625 13.375 
Q 12.890625 10.015625 18.65625 8.296875 
Q 24.421875 6.59375 29.984375 6.59375 
Q 38.421875 6.59375 43.015625 9.90625 
Q 47.609375 13.234375 47.609375 19.390625 
Q 47.609375 24.75 44.3125 27.78125 
Q 41.015625 30.8125 33.5 32.328125 
L 27.484375 33.5 
Q 16.453125 35.6875 11.515625 40.375 
Q 6.59375 45.0625 6.59375 53.421875 
Q 6.59375 63.09375 13.40625 68.65625 
Q 20.21875 74.21875 32.171875 74.21875 
Q 37.3125 74.21875 42.625 73.28125 
Q 47.953125 72.359375 53.515625 70.515625 
z
" id="DejaVuSans-53"/>
     <path d="M 9.8125 72.90625 
L 51.703125 72.90625 
L 51.703125 64.59375 
L 19.671875 64.59375 
L 19.671875 43.109375 
L 48.578125 43.109375 
L 48.578125 34.8125 
L 19.671875 34.8125 
L 19.671875 0 
L 9.8125 0 
z
" id="DejaVuSans-46"/>
     <path d="M 9.078125 75.984375 
L 18.109375 75.984375 
L 18.109375 31.109375 
L 44.921875 54.6875 
L 56.390625 54.6875 
L 27.390625 29.109375 
L 57.625 0 
L 45.90625 0 
L 18.109375 26.703125 
L 18.109375 0 
L 9.078125 0 
z
" id="DejaVuSans-6b"/>
    </defs>
    <g transform="translate(74.59716 16.318125)scale(0.12 -0.12)">
     <use xlink:href="#DejaVuSans-61"/>
     <use x="61.279297" xlink:href="#DejaVuSans-43"/>
     <use x="131.103516" xlink:href="#DejaVuSans-6f"/>
     <use x="192.285156" xlink:href="#DejaVuSans-6d"/>
     <use x="289.697266" xlink:href="#DejaVuSans-70"/>
     <use x="353.173828" xlink:href="#DejaVuSans-43"/>
     <use x="422.998047" xlink:href="#DejaVuSans-6f"/>
     <use x="484.179688" xlink:href="#DejaVuSans-72"/>
     <use x="525.292969" xlink:href="#DejaVuSans-20"/>
     <use x="557.080078" xlink:href="#DejaVuSans-28"/>
     <use x="596.09375" xlink:href="#DejaVuSans-43"/>
     <use x="665.917969" xlink:href="#DejaVuSans-53"/>
     <use x="729.394531" xlink:href="#DejaVuSans-46"/>
     <use x="786.914062" xlink:href="#DejaVuSans-20"/>
     <use x="818.701172" xlink:href="#DejaVuSans-6d"/>
     <use x="916.113281" xlink:href="#DejaVuSans-61"/>
     <use x="977.392578" xlink:href="#DejaVuSans-73"/>
     <use x="1029.492188" xlink:href="#DejaVuSans-6b"/>
     <use x="1087.402344" xlink:href="#DejaVuSans-29"/>
    </g>
   </g>
  </g>
  <g id="axes_2">
   <g id="patch_10">
    <path d="M 312.00856 299.518125 
L 554.617255 299.518125 
L 554.617255 22.318125 
L 312.00856 22.318125 
z
" style="fill:#ffffff;"/>
   </g>
   <g id="matplotlib.axis_3">
    <g id="xtick_5">
     <g id="line2d_12">
      <g>
       <use style="stroke:#000000;stroke-width:0.8;" x="323.036228" xlink:href="#m61765ecc9c" y="299.518125"/>
      </g>
     </g>
     <g id="text_14">
      <!-- 0 -->
      <g transform="translate(324.951234 310.9337)rotate(-90)scale(0.0694 -0.0694)">
       <use xlink:href="#DejaVuSans-30"/>
      </g>
     </g>
    </g>
    <g id="xtick_6">
     <g id="line2d_13">
      <g>
       <use style="stroke:#000000;stroke-width:0.8;" x="381.076586" xlink:href="#m61765ecc9c" y="299.518125"/>
      </g>
     </g>
     <g id="text_15">
      <!-- 50 -->
      <g transform="translate(382.991592 315.349275)rotate(-90)scale(0.0694 -0.0694)">
       <use xlink:href="#DejaVuSans-35"/>
       <use x="63.623047" xlink:href="#DejaVuSans-30"/>
      </g>
     </g>
    </g>
    <g id="xtick_7">
     <g id="line2d_14">
      <g>
       <use style="stroke:#000000;stroke-width:0.8;" x="439.116943" xlink:href="#m61765ecc9c" y="299.518125"/>
      </g>
     </g>
     <g id="text_16">
      <!-- 100 -->
      <g transform="translate(441.03195 319.76485)rotate(-90)scale(0.0694 -0.0694)">
       <use xlink:href="#DejaVuSans-31"/>
       <use x="63.623047" xlink:href="#DejaVuSans-30"/>
       <use x="127.246094" xlink:href="#DejaVuSans-30"/>
      </g>
     </g>
    </g>
    <g id="xtick_8">
     <g id="line2d_15">
      <g>
       <use style="stroke:#000000;stroke-width:0.8;" x="497.157301" xlink:href="#m61765ecc9c" y="299.518125"/>
      </g>
     </g>
     <g id="text_17">
      <!-- 150 -->
      <g transform="translate(499.072307 319.76485)rotate(-90)scale(0.0694 -0.0694)">
       <use xlink:href="#DejaVuSans-31"/>
       <use x="63.623047" xlink:href="#DejaVuSans-35"/>
       <use x="127.246094" xlink:href="#DejaVuSans-30"/>
      </g>
     </g>
    </g>
    <g id="text_18">
     <!-- number of components in model -->
     <g transform="translate(351.604314 331.363288)scale(0.1 -0.1)">
      <use xlink:href="#DejaVuSans-6e"/>
      <use x="63.378906" xlink:href="#DejaVuSans-75"/>
      <use x="126.757812" xlink:href="#DejaVuSans-6d"/>
      <use x="224.169922" xlink:href="#DejaVuSans-62"/>
      <use x="287.646484" xlink:href="#DejaVuSans-65"/>
      <use x="349.169922" xlink:href="#DejaVuSans-72"/>
      <use x="390.283203" xlink:href="#DejaVuSans-20"/>
      <use x="422.070312" xlink:href="#DejaVuSans-6f"/>
      <use x="483.251953" xlink:href="#DejaVuSans-66"/>
      <use x="518.457031" xlink:href="#DejaVuSans-20"/>
      <use x="550.244141" xlink:href="#DejaVuSans-63"/>
      <use x="605.224609" xlink:href="#DejaVuSans-6f"/>
      <use x="666.40625" xlink:href="#DejaVuSans-6d"/>
      <use x="763.818359" xlink:href="#DejaVuSans-70"/>
      <use x="827.294922" xlink:href="#DejaVuSans-6f"/>
      <use x="888.476562" xlink:href="#DejaVuSans-6e"/>
      <use x="951.855469" xlink:href="#DejaVuSans-65"/>
      <use x="1013.378906" xlink:href="#DejaVuSans-6e"/>
      <use x="1076.757812" xlink:href="#DejaVuSans-74"/>
      <use x="1115.966797" xlink:href="#DejaVuSans-73"/>
      <use x="1168.066406" xlink:href="#DejaVuSans-20"/>
      <use x="1199.853516" xlink:href="#DejaVuSans-69"/>
      <use x="1227.636719" xlink:href="#DejaVuSans-6e"/>
      <use x="1291.015625" xlink:href="#DejaVuSans-20"/>
      <use x="1322.802734" xlink:href="#DejaVuSans-6d"/>
      <use x="1420.214844" xlink:href="#DejaVuSans-6f"/>
      <use x="1481.396484" xlink:href="#DejaVuSans-64"/>
      <use x="1544.873047" xlink:href="#DejaVuSans-65"/>
      <use x="1606.396484" xlink:href="#DejaVuSans-6c"/>
     </g>
    </g>
   </g>
   <g id="matplotlib.axis_4">
    <g id="text_19">
     <!-- cumulative variance explained (%) -->
     <g transform="translate(305.928872 248.130625)rotate(-90)scale(0.1 -0.1)">
      <use xlink:href="#DejaVuSans-63"/>
      <use x="54.980469" xlink:href="#DejaVuSans-75"/>
      <use x="118.359375" xlink:href="#DejaVuSans-6d"/>
      <use x="215.771484" xlink:href="#DejaVuSans-75"/>
      <use x="279.150391" xlink:href="#DejaVuSans-6c"/>
      <use x="306.933594" xlink:href="#DejaVuSans-61"/>
      <use x="368.212891" xlink:href="#DejaVuSans-74"/>
      <use x="407.421875" xlink:href="#DejaVuSans-69"/>
      <use x="435.205078" xlink:href="#DejaVuSans-76"/>
      <use x="494.384766" xlink:href="#DejaVuSans-65"/>
      <use x="555.908203" xlink:href="#DejaVuSans-20"/>
      <use x="587.695312" xlink:href="#DejaVuSans-76"/>
      <use x="646.875" xlink:href="#DejaVuSans-61"/>
      <use x="708.154297" xlink:href="#DejaVuSans-72"/>
      <use x="749.267578" xlink:href="#DejaVuSans-69"/>
      <use x="777.050781" xlink:href="#DejaVuSans-61"/>
      <use x="838.330078" xlink:href="#DejaVuSans-6e"/>
      <use x="901.708984" xlink:href="#DejaVuSans-63"/>
      <use x="956.689453" xlink:href="#DejaVuSans-65"/>
      <use x="1018.212891" xlink:href="#DejaVuSans-20"/>
      <use x="1050" xlink:href="#DejaVuSans-65"/>
      <use x="1111.507812" xlink:href="#DejaVuSans-78"/>
      <use x="1170.6875" xlink:href="#DejaVuSans-70"/>
      <use x="1234.164062" xlink:href="#DejaVuSans-6c"/>
      <use x="1261.947266" xlink:href="#DejaVuSans-61"/>
      <use x="1323.226562" xlink:href="#DejaVuSans-69"/>
      <use x="1351.009766" xlink:href="#DejaVuSans-6e"/>
      <use x="1414.388672" xlink:href="#DejaVuSans-65"/>
      <use x="1475.912109" xlink:href="#DejaVuSans-64"/>
      <use x="1539.388672" xlink:href="#DejaVuSans-20"/>
      <use x="1571.175781" xlink:href="#DejaVuSans-28"/>
      <use x="1610.189453" xlink:href="#DejaVuSans-25"/>
      <use x="1705.208984" xlink:href="#DejaVuSans-29"/>
     </g>
    </g>
   </g>
   <g id="line2d_16">
    <path clip-path="url(#p4091c9880e)" d="M 323.036228 286.918125 
L 324.197035 275.888216 
L 325.357842 270.088057 
L 326.518649 266.505713 
L 327.679456 263.366742 
L 330.001071 258.148394 
L 332.322685 253.908447 
L 335.805106 248.170486 
L 338.126721 244.581642 
L 342.769949 237.850378 
L 349.734792 228.365167 
L 356.699635 219.240664 
L 364.825285 208.931937 
L 374.111743 197.458843 
L 384.559007 184.932962 
L 393.845464 174.118137 
L 404.292729 162.25087 
L 414.739993 150.695058 
L 426.348065 138.18291 
L 437.956136 126.023494 
L 449.564208 114.200411 
L 460.011472 103.849664 
L 470.458737 93.801241 
L 482.066808 82.907286 
L 493.67488 72.329308 
L 502.961337 64.11253 
L 514.569409 54.148663 
L 525.016673 45.498633 
L 534.30313 38.147855 
L 537.785552 35.572397 
L 538.946359 34.918125 
L 543.589587 34.918125 
L 543.589587 34.918125 
" style="fill:none;stroke:#800080;stroke-linecap:square;stroke-width:2.5;"/>
   </g>
   <g id="line2d_17">
    <path clip-path="url(#p4091c9880e)" d="M 312.00856 160.918125 
L 554.617255 160.918125 
" style="fill:none;stroke:#d3d3d3;stroke-linecap:square;stroke-width:0.25;"/>
   </g>
   <g id="line2d_18">
    <path clip-path="url(#p4091c9880e)" d="M 406.614343 299.518125 
L 406.614343 22.318125 
" style="fill:none;stroke:#1f77b4;stroke-dasharray:2,3.3;stroke-dashoffset:0;stroke-width:2;"/>
   </g>
   <g id="line2d_19">
    <path clip-path="url(#p4091c9880e)" d="M 312.00856 110.518125 
L 554.617255 110.518125 
" style="fill:none;stroke:#d3d3d3;stroke-linecap:square;stroke-width:0.25;"/>
   </g>
   <g id="line2d_20">
    <path clip-path="url(#p4091c9880e)" d="M 454.207436 299.518125 
L 454.207436 22.318125 
" style="fill:none;stroke:#ff7f0e;stroke-dasharray:2,3.3;stroke-dashoffset:0;stroke-width:2;"/>
   </g>
   <g id="line2d_21">
    <path clip-path="url(#p4091c9880e)" d="M 312.00856 60.118125 
L 554.617255 60.118125 
" style="fill:none;stroke:#d3d3d3;stroke-linecap:square;stroke-width:0.25;"/>
   </g>
   <g id="line2d_22">
    <path clip-path="url(#p4091c9880e)" d="M 507.604566 299.518125 
L 507.604566 22.318125 
" style="fill:none;stroke:#2ca02c;stroke-dasharray:2,3.3;stroke-dashoffset:0;stroke-width:2;"/>
   </g>
   <g id="patch_11">
    <path d="M 312.00856 299.518125 
L 554.617255 299.518125 
" style="fill:none;stroke:#000000;stroke-linecap:square;stroke-linejoin:miter;stroke-width:0.8;"/>
   </g>
   <g id="text_20">
    <g id="patch_12">
     <path d="M 323.036228 164.443428 
L 331.867378 164.443428 
Q 333.949378 164.443428 333.949378 162.361428 
L 333.949378 155.644809 
Q 333.949378 153.562809 331.867378 153.562809 
L 323.036228 153.562809 
Q 320.954228 153.562809 320.954228 155.644809 
L 320.954228 162.361428 
Q 320.954228 164.443428 323.036228 164.443428 
z
" style="fill:#ffffff;opacity:0.8;"/>
    </g>
    <!-- 50 -->
    <g transform="translate(323.036228 160.918125)scale(0.0694 -0.0694)">
     <use xlink:href="#DejaVuSans-35"/>
     <use x="63.623047" xlink:href="#DejaVuSans-30"/>
    </g>
   </g>
   <g id="text_21">
    <g id="patch_13">
     <path d="M 414.394927 280.95451 
L 414.394927 213.035096 
Q 414.394927 211.298096 412.657927 211.298096 
L 400.570759 211.298096 
Q 398.833759 211.298096 398.833759 213.035096 
L 398.833759 280.95451 
Q 398.833759 282.69151 400.570759 282.69151 
L 412.657927 282.69151 
Q 414.394927 282.69151 414.394927 280.95451 
z
" style="fill:#ffffff;opacity:0.8;"/>
    </g>
    <!-- 72 components explain -->
    <g transform="translate(404.970254 280.95451)rotate(-90)scale(0.0579 -0.0579)">
     <use xlink:href="#DejaVuSans-37"/>
     <use x="63.623047" xlink:href="#DejaVuSans-32"/>
     <use x="127.246094" xlink:href="#DejaVuSans-20"/>
     <use x="159.033203" xlink:href="#DejaVuSans-63"/>
     <use x="214.013672" xlink:href="#DejaVuSans-6f"/>
     <use x="275.195312" xlink:href="#DejaVuSans-6d"/>
     <use x="372.607422" xlink:href="#DejaVuSans-70"/>
     <use x="436.083984" xlink:href="#DejaVuSans-6f"/>
     <use x="497.265625" xlink:href="#DejaVuSans-6e"/>
     <use x="560.644531" xlink:href="#DejaVuSans-65"/>
     <use x="622.167969" xlink:href="#DejaVuSans-6e"/>
     <use x="685.546875" xlink:href="#DejaVuSans-74"/>
     <use x="724.755859" xlink:href="#DejaVuSans-73"/>
     <use x="776.855469" xlink:href="#DejaVuSans-20"/>
     <use x="808.642578" xlink:href="#DejaVuSans-65"/>
     <use x="870.150391" xlink:href="#DejaVuSans-78"/>
     <use x="929.330078" xlink:href="#DejaVuSans-70"/>
     <use x="992.806641" xlink:href="#DejaVuSans-6c"/>
     <use x="1020.589844" xlink:href="#DejaVuSans-61"/>
     <use x="1081.869141" xlink:href="#DejaVuSans-69"/>
     <use x="1109.652344" xlink:href="#DejaVuSans-6e"/>
    </g>
    <!-- 50% of variance -->
    <g transform="translate(411.453788 270.523916)rotate(-90)scale(0.0579 -0.0579)">
     <use xlink:href="#DejaVuSans-35"/>
     <use x="63.623047" xlink:href="#DejaVuSans-30"/>
     <use x="127.246094" xlink:href="#DejaVuSans-25"/>
     <use x="222.265625" xlink:href="#DejaVuSans-20"/>
     <use x="254.052734" xlink:href="#DejaVuSans-6f"/>
     <use x="315.234375" xlink:href="#DejaVuSans-66"/>
     <use x="350.439453" xlink:href="#DejaVuSans-20"/>
     <use x="382.226562" xlink:href="#DejaVuSans-76"/>
     <use x="441.40625" xlink:href="#DejaVuSans-61"/>
     <use x="502.685547" xlink:href="#DejaVuSans-72"/>
     <use x="543.798828" xlink:href="#DejaVuSans-69"/>
     <use x="571.582031" xlink:href="#DejaVuSans-61"/>
     <use x="632.861328" xlink:href="#DejaVuSans-6e"/>
     <use x="696.240234" xlink:href="#DejaVuSans-63"/>
     <use x="751.220703" xlink:href="#DejaVuSans-65"/>
    </g>
   </g>
   <g id="text_22">
    <g id="patch_14">
     <path d="M 323.036228 114.043428 
L 331.867378 114.043428 
Q 333.949378 114.043428 333.949378 111.961428 
L 333.949378 105.244809 
Q 333.949378 103.162809 331.867378 103.162809 
L 323.036228 103.162809 
Q 320.954228 103.162809 320.954228 105.244809 
L 320.954228 111.961428 
Q 320.954228 114.043428 323.036228 114.043428 
z
" style="fill:#ffffff;opacity:0.8;"/>
    </g>
    <!-- 70 -->
    <g transform="translate(323.036228 110.518125)scale(0.0694 -0.0694)">
     <use xlink:href="#DejaVuSans-37"/>
     <use x="63.623047" xlink:href="#DejaVuSans-30"/>
    </g>
   </g>
   <g id="text_23">
    <g id="patch_15">
     <path d="M 461.98802 284.638398 
L 461.98802 213.035096 
Q 461.98802 211.298096 460.25102 211.298096 
L 448.163853 211.298096 
Q 446.426853 211.298096 446.426853 213.035096 
L 446.426853 284.638398 
Q 446.426853 286.375398 448.163853 286.375398 
L 460.25102 286.375398 
Q 461.98802 286.375398 461.98802 284.638398 
z
" style="fill:#ffffff;opacity:0.8;"/>
    </g>
    <!-- 113 components explain -->
    <g transform="translate(452.563348 284.638398)rotate(-90)scale(0.0579 -0.0579)">
     <use xlink:href="#DejaVuSans-31"/>
     <use x="63.623047" xlink:href="#DejaVuSans-31"/>
     <use x="127.246094" xlink:href="#DejaVuSans-33"/>
     <use x="190.869141" xlink:href="#DejaVuSans-20"/>
     <use x="222.65625" xlink:href="#DejaVuSans-63"/>
     <use x="277.636719" xlink:href="#DejaVuSans-6f"/>
     <use x="338.818359" xlink:href="#DejaVuSans-6d"/>
     <use x="436.230469" xlink:href="#DejaVuSans-70"/>
     <use x="499.707031" xlink:href="#DejaVuSans-6f"/>
     <use x="560.888672" xlink:href="#DejaVuSans-6e"/>
     <use x="624.267578" xlink:href="#DejaVuSans-65"/>
     <use x="685.791016" xlink:href="#DejaVuSans-6e"/>
     <use x="749.169922" xlink:href="#DejaVuSans-74"/>
     <use x="788.378906" xlink:href="#DejaVuSans-73"/>
     <use x="840.478516" xlink:href="#DejaVuSans-20"/>
     <use x="872.265625" xlink:href="#DejaVuSans-65"/>
     <use x="933.773438" xlink:href="#DejaVuSans-78"/>
     <use x="992.953125" xlink:href="#DejaVuSans-70"/>
     <use x="1056.429688" xlink:href="#DejaVuSans-6c"/>
     <use x="1084.212891" xlink:href="#DejaVuSans-61"/>
     <use x="1145.492188" xlink:href="#DejaVuSans-69"/>
     <use x="1173.275391" xlink:href="#DejaVuSans-6e"/>
    </g>
    <!-- 70% of variance -->
    <g transform="translate(459.046881 272.36586)rotate(-90)scale(0.0579 -0.0579)">
     <use xlink:href="#DejaVuSans-37"/>
     <use x="63.623047" xlink:href="#DejaVuSans-30"/>
     <use x="127.246094" xlink:href="#DejaVuSans-25"/>
     <use x="222.265625" xlink:href="#DejaVuSans-20"/>
     <use x="254.052734" xlink:href="#DejaVuSans-6f"/>
     <use x="315.234375" xlink:href="#DejaVuSans-66"/>
     <use x="350.439453" xlink:href="#DejaVuSans-20"/>
     <use x="382.226562" xlink:href="#DejaVuSans-76"/>
     <use x="441.40625" xlink:href="#DejaVuSans-61"/>
     <use x="502.685547" xlink:href="#DejaVuSans-72"/>
     <use x="543.798828" xlink:href="#DejaVuSans-69"/>
     <use x="571.582031" xlink:href="#DejaVuSans-61"/>
     <use x="632.861328" xlink:href="#DejaVuSans-6e"/>
     <use x="696.240234" xlink:href="#DejaVuSans-63"/>
     <use x="751.220703" xlink:href="#DejaVuSans-65"/>
    </g>
   </g>
   <g id="text_24">
    <g id="patch_16">
     <path d="M 323.036228 63.643428 
L 331.867378 63.643428 
Q 333.949378 63.643428 333.949378 61.561428 
L 333.949378 54.844809 
Q 333.949378 52.762809 331.867378 52.762809 
L 323.036228 52.762809 
Q 320.954228 52.762809 320.954228 54.844809 
L 320.954228 61.561428 
Q 320.954228 63.643428 323.036228 63.643428 
z
" style="fill:#ffffff;opacity:0.8;"/>
    </g>
    <!-- 90 -->
    <g transform="translate(323.036228 60.118125)scale(0.0694 -0.0694)">
     <use xlink:href="#DejaVuSans-39"/>
     <use x="63.623047" xlink:href="#DejaVuSans-30"/>
    </g>
   </g>
   <g id="text_25">
    <g id="patch_17">
     <path d="M 515.38515 284.638398 
L 515.38515 213.035096 
Q 515.38515 211.298096 513.64815 211.298096 
L 501.560982 211.298096 
Q 499.823982 211.298096 499.823982 213.035096 
L 499.823982 284.638398 
Q 499.823982 286.375398 501.560982 286.375398 
L 513.64815 286.375398 
Q 515.38515 286.375398 515.38515 284.638398 
z
" style="fill:#ffffff;opacity:0.8;"/>
    </g>
    <!-- 159 components explain -->
    <g transform="translate(505.960477 284.638398)rotate(-90)scale(0.0579 -0.0579)">
     <use xlink:href="#DejaVuSans-31"/>
     <use x="63.623047" xlink:href="#DejaVuSans-35"/>
     <use x="127.246094" xlink:href="#DejaVuSans-39"/>
     <use x="190.869141" xlink:href="#DejaVuSans-20"/>
     <use x="222.65625" xlink:href="#DejaVuSans-63"/>
     <use x="277.636719" xlink:href="#DejaVuSans-6f"/>
     <use x="338.818359" xlink:href="#DejaVuSans-6d"/>
     <use x="436.230469" xlink:href="#DejaVuSans-70"/>
     <use x="499.707031" xlink:href="#DejaVuSans-6f"/>
     <use x="560.888672" xlink:href="#DejaVuSans-6e"/>
     <use x="624.267578" xlink:href="#DejaVuSans-65"/>
     <use x="685.791016" xlink:href="#DejaVuSans-6e"/>
     <use x="749.169922" xlink:href="#DejaVuSans-74"/>
     <use x="788.378906" xlink:href="#DejaVuSans-73"/>
     <use x="840.478516" xlink:href="#DejaVuSans-20"/>
     <use x="872.265625" xlink:href="#DejaVuSans-65"/>
     <use x="933.773438" xlink:href="#DejaVuSans-78"/>
     <use x="992.953125" xlink:href="#DejaVuSans-70"/>
     <use x="1056.429688" xlink:href="#DejaVuSans-6c"/>
     <use x="1084.212891" xlink:href="#DejaVuSans-61"/>
     <use x="1145.492188" xlink:href="#DejaVuSans-69"/>
     <use x="1173.275391" xlink:href="#DejaVuSans-6e"/>
    </g>
    <!-- 90% of variance -->
    <g transform="translate(512.44401 272.36586)rotate(-90)scale(0.0579 -0.0579)">
     <use xlink:href="#DejaVuSans-39"/>
     <use x="63.623047" xlink:href="#DejaVuSans-30"/>
     <use x="127.246094" xlink:href="#DejaVuSans-25"/>
     <use x="222.265625" xlink:href="#DejaVuSans-20"/>
     <use x="254.052734" xlink:href="#DejaVuSans-6f"/>
     <use x="315.234375" xlink:href="#DejaVuSans-66"/>
     <use x="350.439453" xlink:href="#DejaVuSans-20"/>
     <use x="382.226562" xlink:href="#DejaVuSans-76"/>
     <use x="441.40625" xlink:href="#DejaVuSans-61"/>
     <use x="502.685547" xlink:href="#DejaVuSans-72"/>
     <use x="543.798828" xlink:href="#DejaVuSans-69"/>
     <use x="571.582031" xlink:href="#DejaVuSans-61"/>
     <use x="632.861328" xlink:href="#DejaVuSans-6e"/>
     <use x="696.240234" xlink:href="#DejaVuSans-63"/>
     <use x="751.220703" xlink:href="#DejaVuSans-65"/>
    </g>
   </g>
   <g id="text_26">
    <!-- aCompCor (WM mask) -->
    <defs>
     <path d="M 3.328125 72.90625 
L 13.28125 72.90625 
L 28.609375 11.28125 
L 43.890625 72.90625 
L 54.984375 72.90625 
L 70.3125 11.28125 
L 85.59375 72.90625 
L 95.609375 72.90625 
L 77.296875 0 
L 64.890625 0 
L 49.515625 63.28125 
L 33.984375 0 
L 21.578125 0 
z
" id="DejaVuSans-57"/>
     <path d="M 9.8125 72.90625 
L 24.515625 72.90625 
L 43.109375 23.296875 
L 61.8125 72.90625 
L 76.515625 72.90625 
L 76.515625 0 
L 66.890625 0 
L 66.890625 64.015625 
L 48.09375 14.015625 
L 38.1875 14.015625 
L 19.390625 64.015625 
L 19.390625 0 
L 9.8125 0 
z
" id="DejaVuSans-4d"/>
    </defs>
    <g transform="translate(366.067908 16.318125)scale(0.12 -0.12)">
     <use xlink:href="#DejaVuSans-61"/>
     <use x="61.279297" xlink:href="#DejaVuSans-43"/>
     <use x="131.103516" xlink:href="#DejaVuSans-6f"/>
     <use x="192.285156" xlink:href="#DejaVuSans-6d"/>
     <use x="289.697266" xlink:href="#DejaVuSans-70"/>
     <use x="353.173828" xlink:href="#DejaVuSans-43"/>
     <use x="422.998047" xlink:href="#DejaVuSans-6f"/>
     <use x="484.179688" xlink:href="#DejaVuSans-72"/>
     <use x="525.292969" xlink:href="#DejaVuSans-20"/>
     <use x="557.080078" xlink:href="#DejaVuSans-28"/>
     <use x="596.09375" xlink:href="#DejaVuSans-57"/>
     <use x="694.970703" xlink:href="#DejaVuSans-4d"/>
     <use x="781.25" xlink:href="#DejaVuSans-20"/>
     <use x="813.037109" xlink:href="#DejaVuSans-6d"/>
     <use x="910.449219" xlink:href="#DejaVuSans-61"/>
     <use x="971.728516" xlink:href="#DejaVuSans-73"/>
     <use x="1023.828125" xlink:href="#DejaVuSans-6b"/>
     <use x="1081.738281" xlink:href="#DejaVuSans-29"/>
    </g>
   </g>
  </g>
  <g id="axes_3">
   <g id="patch_18">
    <path d="M 603.138995 299.518125 
L 845.74769 299.518125 
L 845.74769 22.318125 
L 603.138995 22.318125 
z
" style="fill:#ffffff;"/>
   </g>
   <g id="matplotlib.axis_5">
    <g id="xtick_9">
     <g id="line2d_23">
      <g>
       <use style="stroke:#000000;stroke-width:0.8;" x="614.166663" xlink:href="#m61765ecc9c" y="299.518125"/>
      </g>
     </g>
     <g id="text_27">
      <!-- 0 -->
      <g transform="translate(616.081669 310.9337)rotate(-90)scale(0.0694 -0.0694)">
       <use xlink:href="#DejaVuSans-30"/>
      </g>
     </g>
    </g>
    <g id="xtick_10">
     <g id="line2d_24">
      <g>
       <use style="stroke:#000000;stroke-width:0.8;" x="672.20702" xlink:href="#m61765ecc9c" y="299.518125"/>
      </g>
     </g>
     <g id="text_28">
      <!-- 50 -->
      <g transform="translate(674.122027 315.349275)rotate(-90)scale(0.0694 -0.0694)">
       <use xlink:href="#DejaVuSans-35"/>
       <use x="63.623047" xlink:href="#DejaVuSans-30"/>
      </g>
     </g>
    </g>
    <g id="xtick_11">
     <g id="line2d_25">
      <g>
       <use style="stroke:#000000;stroke-width:0.8;" x="730.247378" xlink:href="#m61765ecc9c" y="299.518125"/>
      </g>
     </g>
     <g id="text_29">
      <!-- 100 -->
      <g transform="translate(732.162384 319.76485)rotate(-90)scale(0.0694 -0.0694)">
       <use xlink:href="#DejaVuSans-31"/>
       <use x="63.623047" xlink:href="#DejaVuSans-30"/>
       <use x="127.246094" xlink:href="#DejaVuSans-30"/>
      </g>
     </g>
    </g>
    <g id="xtick_12">
     <g id="line2d_26">
      <g>
       <use style="stroke:#000000;stroke-width:0.8;" x="788.287736" xlink:href="#m61765ecc9c" y="299.518125"/>
      </g>
     </g>
     <g id="text_30">
      <!-- 150 -->
      <g transform="translate(790.202742 319.76485)rotate(-90)scale(0.0694 -0.0694)">
       <use xlink:href="#DejaVuSans-31"/>
       <use x="63.623047" xlink:href="#DejaVuSans-35"/>
       <use x="127.246094" xlink:href="#DejaVuSans-30"/>
      </g>
     </g>
    </g>
    <g id="text_31">
     <!-- number of components in model -->
     <g transform="translate(642.734749 331.363288)scale(0.1 -0.1)">
      <use xlink:href="#DejaVuSans-6e"/>
      <use x="63.378906" xlink:href="#DejaVuSans-75"/>
      <use x="126.757812" xlink:href="#DejaVuSans-6d"/>
      <use x="224.169922" xlink:href="#DejaVuSans-62"/>
      <use x="287.646484" xlink:href="#DejaVuSans-65"/>
      <use x="349.169922" xlink:href="#DejaVuSans-72"/>
      <use x="390.283203" xlink:href="#DejaVuSans-20"/>
      <use x="422.070312" xlink:href="#DejaVuSans-6f"/>
      <use x="483.251953" xlink:href="#DejaVuSans-66"/>
      <use x="518.457031" xlink:href="#DejaVuSans-20"/>
      <use x="550.244141" xlink:href="#DejaVuSans-63"/>
      <use x="605.224609" xlink:href="#DejaVuSans-6f"/>
      <use x="666.40625" xlink:href="#DejaVuSans-6d"/>
      <use x="763.818359" xlink:href="#DejaVuSans-70"/>
      <use x="827.294922" xlink:href="#DejaVuSans-6f"/>
      <use x="888.476562" xlink:href="#DejaVuSans-6e"/>
      <use x="951.855469" xlink:href="#DejaVuSans-65"/>
      <use x="1013.378906" xlink:href="#DejaVuSans-6e"/>
      <use x="1076.757812" xlink:href="#DejaVuSans-74"/>
      <use x="1115.966797" xlink:href="#DejaVuSans-73"/>
      <use x="1168.066406" xlink:href="#DejaVuSans-20"/>
      <use x="1199.853516" xlink:href="#DejaVuSans-69"/>
      <use x="1227.636719" xlink:href="#DejaVuSans-6e"/>
      <use x="1291.015625" xlink:href="#DejaVuSans-20"/>
      <use x="1322.802734" xlink:href="#DejaVuSans-6d"/>
      <use x="1420.214844" xlink:href="#DejaVuSans-6f"/>
      <use x="1481.396484" xlink:href="#DejaVuSans-64"/>
      <use x="1544.873047" xlink:href="#DejaVuSans-65"/>
      <use x="1606.396484" xlink:href="#DejaVuSans-6c"/>
     </g>
    </g>
   </g>
   <g id="matplotlib.axis_6">
    <g id="text_32">
     <!-- cumulative variance explained (%) -->
     <g transform="translate(597.059307 248.130625)rotate(-90)scale(0.1 -0.1)">
      <use xlink:href="#DejaVuSans-63"/>
      <use x="54.980469" xlink:href="#DejaVuSans-75"/>
      <use x="118.359375" xlink:href="#DejaVuSans-6d"/>
      <use x="215.771484" xlink:href="#DejaVuSans-75"/>
      <use x="279.150391" xlink:href="#DejaVuSans-6c"/>
      <use x="306.933594" xlink:href="#DejaVuSans-61"/>
      <use x="368.212891" xlink:href="#DejaVuSans-74"/>
      <use x="407.421875" xlink:href="#DejaVuSans-69"/>
      <use x="435.205078" xlink:href="#DejaVuSans-76"/>
      <use x="494.384766" xlink:href="#DejaVuSans-65"/>
      <use x="555.908203" xlink:href="#DejaVuSans-20"/>
      <use x="587.695312" xlink:href="#DejaVuSans-76"/>
      <use x="646.875" xlink:href="#DejaVuSans-61"/>
      <use x="708.154297" xlink:href="#DejaVuSans-72"/>
      <use x="749.267578" xlink:href="#DejaVuSans-69"/>
      <use x="777.050781" xlink:href="#DejaVuSans-61"/>
      <use x="838.330078" xlink:href="#DejaVuSans-6e"/>
      <use x="901.708984" xlink:href="#DejaVuSans-63"/>
      <use x="956.689453" xlink:href="#DejaVuSans-65"/>
      <use x="1018.212891" xlink:href="#DejaVuSans-20"/>
      <use x="1050" xlink:href="#DejaVuSans-65"/>
      <use x="1111.507812" xlink:href="#DejaVuSans-78"/>
      <use x="1170.6875" xlink:href="#DejaVuSans-70"/>
      <use x="1234.164062" xlink:href="#DejaVuSans-6c"/>
      <use x="1261.947266" xlink:href="#DejaVuSans-61"/>
      <use x="1323.226562" xlink:href="#DejaVuSans-69"/>
      <use x="1351.009766" xlink:href="#DejaVuSans-6e"/>
      <use x="1414.388672" xlink:href="#DejaVuSans-65"/>
      <use x="1475.912109" xlink:href="#DejaVuSans-64"/>
      <use x="1539.388672" xlink:href="#DejaVuSans-20"/>
      <use x="1571.175781" xlink:href="#DejaVuSans-28"/>
      <use x="1610.189453" xlink:href="#DejaVuSans-25"/>
      <use x="1705.208984" xlink:href="#DejaVuSans-29"/>
     </g>
    </g>
   </g>
   <g id="line2d_27">
    <path clip-path="url(#p8e9368defa)" d="M 614.166663 286.918125 
L 615.32747 275.933091 
L 616.488277 270.067332 
L 617.649084 266.494538 
L 618.809891 263.389516 
L 621.131505 258.155447 
L 623.45312 253.942732 
L 626.935541 248.128563 
L 629.257156 244.533045 
L 633.900384 237.809073 
L 639.70442 229.897429 
L 646.669263 220.737901 
L 654.794913 210.415855 
L 664.08137 198.933556 
L 674.528635 186.384992 
L 683.815092 175.567628 
L 694.262356 163.683939 
L 705.870428 150.842546 
L 717.478499 138.34187 
L 727.925764 127.396257 
L 738.373028 116.715389 
L 748.820293 106.290905 
L 760.428364 95.058728 
L 772.036436 84.125541 
L 783.644507 73.513057 
L 794.091772 64.223889 
L 805.699843 54.224824 
L 814.986301 46.491688 
L 823.111951 39.975564 
L 827.755179 36.389318 
L 828.915986 35.572362 
L 830.076794 34.918125 
L 834.720022 34.918125 
L 834.720022 34.918125 
" style="fill:none;stroke:#800080;stroke-linecap:square;stroke-width:2.5;"/>
   </g>
   <g id="line2d_28">
    <path clip-path="url(#p8e9368defa)" d="M 603.138995 160.918125 
L 845.74769 160.918125 
" style="fill:none;stroke:#d3d3d3;stroke-linecap:square;stroke-width:0.25;"/>
   </g>
   <g id="line2d_29">
    <path clip-path="url(#p8e9368defa)" d="M 697.744778 299.518125 
L 697.744778 22.318125 
" style="fill:none;stroke:#1f77b4;stroke-dasharray:2,3.3;stroke-dashoffset:0;stroke-width:2;"/>
   </g>
   <g id="line2d_30">
    <path clip-path="url(#p8e9368defa)" d="M 603.138995 110.518125 
L 845.74769 110.518125 
" style="fill:none;stroke:#d3d3d3;stroke-linecap:square;stroke-width:0.25;"/>
   </g>
   <g id="line2d_31">
    <path clip-path="url(#p8e9368defa)" d="M 745.337871 299.518125 
L 745.337871 22.318125 
" style="fill:none;stroke:#ff7f0e;stroke-dasharray:2,3.3;stroke-dashoffset:0;stroke-width:2;"/>
   </g>
   <g id="line2d_32">
    <path clip-path="url(#p8e9368defa)" d="M 603.138995 60.118125 
L 845.74769 60.118125 
" style="fill:none;stroke:#d3d3d3;stroke-linecap:square;stroke-width:0.25;"/>
   </g>
   <g id="line2d_33">
    <path clip-path="url(#p8e9368defa)" d="M 799.895808 299.518125 
L 799.895808 22.318125 
" style="fill:none;stroke:#2ca02c;stroke-dasharray:2,3.3;stroke-dashoffset:0;stroke-width:2;"/>
   </g>
   <g id="patch_19">
    <path d="M 603.138995 299.518125 
L 845.74769 299.518125 
" style="fill:none;stroke:#000000;stroke-linecap:square;stroke-linejoin:miter;stroke-width:0.8;"/>
   </g>
   <g id="text_33">
    <g id="patch_20">
     <path d="M 614.166663 164.443428 
L 622.997813 164.443428 
Q 625.079813 164.443428 625.079813 162.361428 
L 625.079813 155.644809 
Q 625.079813 153.562809 622.997813 153.562809 
L 614.166663 153.562809 
Q 612.084663 153.562809 612.084663 155.644809 
L 612.084663 162.361428 
Q 612.084663 164.443428 614.166663 164.443428 
z
" style="fill:#ffffff;opacity:0.8;"/>
    </g>
    <!-- 50 -->
    <g transform="translate(614.166663 160.918125)scale(0.0694 -0.0694)">
     <use xlink:href="#DejaVuSans-35"/>
     <use x="63.623047" xlink:href="#DejaVuSans-30"/>
    </g>
   </g>
   <g id="text_34">
    <g id="patch_21">
     <path d="M 705.525362 280.95451 
L 705.525362 213.035096 
Q 705.525362 211.298096 703.788362 211.298096 
L 691.701194 211.298096 
Q 689.964194 211.298096 689.964194 213.035096 
L 689.964194 280.95451 
Q 689.964194 282.69151 691.701194 282.69151 
L 703.788362 282.69151 
Q 705.525362 282.69151 705.525362 280.95451 
z
" style="fill:#ffffff;opacity:0.8;"/>
    </g>
    <!-- 72 components explain -->
    <g transform="translate(696.100689 280.95451)rotate(-90)scale(0.0579 -0.0579)">
     <use xlink:href="#DejaVuSans-37"/>
     <use x="63.623047" xlink:href="#DejaVuSans-32"/>
     <use x="127.246094" xlink:href="#DejaVuSans-20"/>
     <use x="159.033203" xlink:href="#DejaVuSans-63"/>
     <use x="214.013672" xlink:href="#DejaVuSans-6f"/>
     <use x="275.195312" xlink:href="#DejaVuSans-6d"/>
     <use x="372.607422" xlink:href="#DejaVuSans-70"/>
     <use x="436.083984" xlink:href="#DejaVuSans-6f"/>
     <use x="497.265625" xlink:href="#DejaVuSans-6e"/>
     <use x="560.644531" xlink:href="#DejaVuSans-65"/>
     <use x="622.167969" xlink:href="#DejaVuSans-6e"/>
     <use x="685.546875" xlink:href="#DejaVuSans-74"/>
     <use x="724.755859" xlink:href="#DejaVuSans-73"/>
     <use x="776.855469" xlink:href="#DejaVuSans-20"/>
     <use x="808.642578" xlink:href="#DejaVuSans-65"/>
     <use x="870.150391" xlink:href="#DejaVuSans-78"/>
     <use x="929.330078" xlink:href="#DejaVuSans-70"/>
     <use x="992.806641" xlink:href="#DejaVuSans-6c"/>
     <use x="1020.589844" xlink:href="#DejaVuSans-61"/>
     <use x="1081.869141" xlink:href="#DejaVuSans-69"/>
     <use x="1109.652344" xlink:href="#DejaVuSans-6e"/>
    </g>
    <!-- 50% of variance -->
    <g transform="translate(702.584223 270.523916)rotate(-90)scale(0.0579 -0.0579)">
     <use xlink:href="#DejaVuSans-35"/>
     <use x="63.623047" xlink:href="#DejaVuSans-30"/>
     <use x="127.246094" xlink:href="#DejaVuSans-25"/>
     <use x="222.265625" xlink:href="#DejaVuSans-20"/>
     <use x="254.052734" xlink:href="#DejaVuSans-6f"/>
     <use x="315.234375" xlink:href="#DejaVuSans-66"/>
     <use x="350.439453" xlink:href="#DejaVuSans-20"/>
     <use x="382.226562" xlink:href="#DejaVuSans-76"/>
     <use x="441.40625" xlink:href="#DejaVuSans-61"/>
     <use x="502.685547" xlink:href="#DejaVuSans-72"/>
     <use x="543.798828" xlink:href="#DejaVuSans-69"/>
     <use x="571.582031" xlink:href="#DejaVuSans-61"/>
     <use x="632.861328" xlink:href="#DejaVuSans-6e"/>
     <use x="696.240234" xlink:href="#DejaVuSans-63"/>
     <use x="751.220703" xlink:href="#DejaVuSans-65"/>
    </g>
   </g>
   <g id="text_35">
    <g id="patch_22">
     <path d="M 614.166663 114.043428 
L 622.997813 114.043428 
Q 625.079813 114.043428 625.079813 111.961428 
L 625.079813 105.244809 
Q 625.079813 103.162809 622.997813 103.162809 
L 614.166663 103.162809 
Q 612.084663 103.162809 612.084663 105.244809 
L 612.084663 111.961428 
Q 612.084663 114.043428 614.166663 114.043428 
z
" style="fill:#ffffff;opacity:0.8;"/>
    </g>
    <!-- 70 -->
    <g transform="translate(614.166663 110.518125)scale(0.0694 -0.0694)">
     <use xlink:href="#DejaVuSans-37"/>
     <use x="63.623047" xlink:href="#DejaVuSans-30"/>
    </g>
   </g>
   <g id="text_36">
    <g id="patch_23">
     <path d="M 753.118455 284.638398 
L 753.118455 213.035096 
Q 753.118455 211.298096 751.381455 211.298096 
L 739.294287 211.298096 
Q 737.557287 211.298096 737.557287 213.035096 
L 737.557287 284.638398 
Q 737.557287 286.375398 739.294287 286.375398 
L 751.381455 286.375398 
Q 753.118455 286.375398 753.118455 284.638398 
z
" style="fill:#ffffff;opacity:0.8;"/>
    </g>
    <!-- 113 components explain -->
    <g transform="translate(743.693783 284.638398)rotate(-90)scale(0.0579 -0.0579)">
     <use xlink:href="#DejaVuSans-31"/>
     <use x="63.623047" xlink:href="#DejaVuSans-31"/>
     <use x="127.246094" xlink:href="#DejaVuSans-33"/>
     <use x="190.869141" xlink:href="#DejaVuSans-20"/>
     <use x="222.65625" xlink:href="#DejaVuSans-63"/>
     <use x="277.636719" xlink:href="#DejaVuSans-6f"/>
     <use x="338.818359" xlink:href="#DejaVuSans-6d"/>
     <use x="436.230469" xlink:href="#DejaVuSans-70"/>
     <use x="499.707031" xlink:href="#DejaVuSans-6f"/>
     <use x="560.888672" xlink:href="#DejaVuSans-6e"/>
     <use x="624.267578" xlink:href="#DejaVuSans-65"/>
     <use x="685.791016" xlink:href="#DejaVuSans-6e"/>
     <use x="749.169922" xlink:href="#DejaVuSans-74"/>
     <use x="788.378906" xlink:href="#DejaVuSans-73"/>
     <use x="840.478516" xlink:href="#DejaVuSans-20"/>
     <use x="872.265625" xlink:href="#DejaVuSans-65"/>
     <use x="933.773438" xlink:href="#DejaVuSans-78"/>
     <use x="992.953125" xlink:href="#DejaVuSans-70"/>
     <use x="1056.429688" xlink:href="#DejaVuSans-6c"/>
     <use x="1084.212891" xlink:href="#DejaVuSans-61"/>
     <use x="1145.492188" xlink:href="#DejaVuSans-69"/>
     <use x="1173.275391" xlink:href="#DejaVuSans-6e"/>
    </g>
    <!-- 70% of variance -->
    <g transform="translate(750.177316 272.36586)rotate(-90)scale(0.0579 -0.0579)">
     <use xlink:href="#DejaVuSans-37"/>
     <use x="63.623047" xlink:href="#DejaVuSans-30"/>
     <use x="127.246094" xlink:href="#DejaVuSans-25"/>
     <use x="222.265625" xlink:href="#DejaVuSans-20"/>
     <use x="254.052734" xlink:href="#DejaVuSans-6f"/>
     <use x="315.234375" xlink:href="#DejaVuSans-66"/>
     <use x="350.439453" xlink:href="#DejaVuSans-20"/>
     <use x="382.226562" xlink:href="#DejaVuSans-76"/>
     <use x="441.40625" xlink:href="#DejaVuSans-61"/>
     <use x="502.685547" xlink:href="#DejaVuSans-72"/>
     <use x="543.798828" xlink:href="#DejaVuSans-69"/>
     <use x="571.582031" xlink:href="#DejaVuSans-61"/>
     <use x="632.861328" xlink:href="#DejaVuSans-6e"/>
     <use x="696.240234" xlink:href="#DejaVuSans-63"/>
     <use x="751.220703" xlink:href="#DejaVuSans-65"/>
    </g>
   </g>
   <g id="text_37">
    <g id="patch_24">
     <path d="M 614.166663 63.643428 
L 622.997813 63.643428 
Q 625.079813 63.643428 625.079813 61.561428 
L 625.079813 54.844809 
Q 625.079813 52.762809 622.997813 52.762809 
L 614.166663 52.762809 
Q 612.084663 52.762809 612.084663 54.844809 
L 612.084663 61.561428 
Q 612.084663 63.643428 614.166663 63.643428 
z
" style="fill:#ffffff;opacity:0.8;"/>
    </g>
    <!-- 90 -->
    <g transform="translate(614.166663 60.118125)scale(0.0694 -0.0694)">
     <use xlink:href="#DejaVuSans-39"/>
     <use x="63.623047" xlink:href="#DejaVuSans-30"/>
    </g>
   </g>
   <g id="text_38">
    <g id="patch_25">
     <path d="M 807.676391 284.638398 
L 807.676391 213.035096 
Q 807.676391 211.298096 805.939391 211.298096 
L 793.852224 211.298096 
Q 792.115224 211.298096 792.115224 213.035096 
L 792.115224 284.638398 
Q 792.115224 286.375398 793.852224 286.375398 
L 805.939391 286.375398 
Q 807.676391 286.375398 807.676391 284.638398 
z
" style="fill:#ffffff;opacity:0.8;"/>
    </g>
    <!-- 160 components explain -->
    <g transform="translate(798.251719 284.638398)rotate(-90)scale(0.0579 -0.0579)">
     <use xlink:href="#DejaVuSans-31"/>
     <use x="63.623047" xlink:href="#DejaVuSans-36"/>
     <use x="127.246094" xlink:href="#DejaVuSans-30"/>
     <use x="190.869141" xlink:href="#DejaVuSans-20"/>
     <use x="222.65625" xlink:href="#DejaVuSans-63"/>
     <use x="277.636719" xlink:href="#DejaVuSans-6f"/>
     <use x="338.818359" xlink:href="#DejaVuSans-6d"/>
     <use x="436.230469" xlink:href="#DejaVuSans-70"/>
     <use x="499.707031" xlink:href="#DejaVuSans-6f"/>
     <use x="560.888672" xlink:href="#DejaVuSans-6e"/>
     <use x="624.267578" xlink:href="#DejaVuSans-65"/>
     <use x="685.791016" xlink:href="#DejaVuSans-6e"/>
     <use x="749.169922" xlink:href="#DejaVuSans-74"/>
     <use x="788.378906" xlink:href="#DejaVuSans-73"/>
     <use x="840.478516" xlink:href="#DejaVuSans-20"/>
     <use x="872.265625" xlink:href="#DejaVuSans-65"/>
     <use x="933.773438" xlink:href="#DejaVuSans-78"/>
     <use x="992.953125" xlink:href="#DejaVuSans-70"/>
     <use x="1056.429688" xlink:href="#DejaVuSans-6c"/>
     <use x="1084.212891" xlink:href="#DejaVuSans-61"/>
     <use x="1145.492188" xlink:href="#DejaVuSans-69"/>
     <use x="1173.275391" xlink:href="#DejaVuSans-6e"/>
    </g>
    <!-- 90% of variance -->
    <g transform="translate(804.735252 272.36586)rotate(-90)scale(0.0579 -0.0579)">
     <use xlink:href="#DejaVuSans-39"/>
     <use x="63.623047" xlink:href="#DejaVuSans-30"/>
     <use x="127.246094" xlink:href="#DejaVuSans-25"/>
     <use x="222.265625" xlink:href="#DejaVuSans-20"/>
     <use x="254.052734" xlink:href="#DejaVuSans-6f"/>
     <use x="315.234375" xlink:href="#DejaVuSans-66"/>
     <use x="350.439453" xlink:href="#DejaVuSans-20"/>
     <use x="382.226562" xlink:href="#DejaVuSans-76"/>
     <use x="441.40625" xlink:href="#DejaVuSans-61"/>
     <use x="502.685547" xlink:href="#DejaVuSans-72"/>
     <use x="543.798828" xlink:href="#DejaVuSans-69"/>
     <use x="571.582031" xlink:href="#DejaVuSans-61"/>
     <use x="632.861328" xlink:href="#DejaVuSans-6e"/>
     <use x="696.240234" xlink:href="#DejaVuSans-63"/>
     <use x="751.220703" xlink:href="#DejaVuSans-65"/>
    </g>
   </g>
   <g id="text_39">
    <!-- aCompCor (combined mask) -->
    <g transform="translate(638.713655 16.318125)scale(0.12 -0.12)">
     <use xlink:href="#DejaVuSans-61"/>
     <use x="61.279297" xlink:href="#DejaVuSans-43"/>
     <use x="131.103516" xlink:href="#DejaVuSans-6f"/>
     <use x="192.285156" xlink:href="#DejaVuSans-6d"/>
     <use x="289.697266" xlink:href="#DejaVuSans-70"/>
     <use x="353.173828" xlink:href="#DejaVuSans-43"/>
     <use x="422.998047" xlink:href="#DejaVuSans-6f"/>
     <use x="484.179688" xlink:href="#DejaVuSans-72"/>
     <use x="525.292969" xlink:href="#DejaVuSans-20"/>
     <use x="557.080078" xlink:href="#DejaVuSans-28"/>
     <use x="596.09375" xlink:href="#DejaVuSans-63"/>
     <use x="651.074219" xlink:href="#DejaVuSans-6f"/>
     <use x="712.255859" xlink:href="#DejaVuSans-6d"/>
     <use x="809.667969" xlink:href="#DejaVuSans-62"/>
     <use x="873.144531" xlink:href="#DejaVuSans-69"/>
     <use x="900.927734" xlink:href="#DejaVuSans-6e"/>
     <use x="964.306641" xlink:href="#DejaVuSans-65"/>
     <use x="1025.830078" xlink:href="#DejaVuSans-64"/>
     <use x="1089.306641" xlink:href="#DejaVuSans-20"/>
     <use x="1121.09375" xlink:href="#DejaVuSans-6d"/>
     <use x="1218.505859" xlink:href="#DejaVuSans-61"/>
     <use x="1279.785156" xlink:href="#DejaVuSans-73"/>
     <use x="1331.884766" xlink:href="#DejaVuSans-6b"/>
     <use x="1389.794922" xlink:href="#DejaVuSans-29"/>
    </g>
   </g>
  </g>
  <g id="axes_4">
   <g id="patch_26">
    <path d="M 894.269429 299.518125 
L 1136.878125 299.518125 
L 1136.878125 22.318125 
L 894.269429 22.318125 
z
" style="fill:#ffffff;"/>
   </g>
   <g id="matplotlib.axis_7">
    <g id="xtick_13">
     <g id="line2d_34">
      <g>
       <use style="stroke:#000000;stroke-width:0.8;" x="905.297097" xlink:href="#m61765ecc9c" y="299.518125"/>
      </g>
     </g>
     <g id="text_40">
      <!-- 0 -->
      <g transform="translate(907.212104 310.9337)rotate(-90)scale(0.0694 -0.0694)">
       <use xlink:href="#DejaVuSans-30"/>
      </g>
     </g>
    </g>
    <g id="xtick_14">
     <g id="line2d_35">
      <g>
       <use style="stroke:#000000;stroke-width:0.8;" x="963.337455" xlink:href="#m61765ecc9c" y="299.518125"/>
      </g>
     </g>
     <g id="text_41">
      <!-- 50 -->
      <g transform="translate(965.252461 315.349275)rotate(-90)scale(0.0694 -0.0694)">
       <use xlink:href="#DejaVuSans-35"/>
       <use x="63.623047" xlink:href="#DejaVuSans-30"/>
      </g>
     </g>
    </g>
    <g id="xtick_15">
     <g id="line2d_36">
      <g>
       <use style="stroke:#000000;stroke-width:0.8;" x="1021.377813" xlink:href="#m61765ecc9c" y="299.518125"/>
      </g>
     </g>
     <g id="text_42">
      <!-- 100 -->
      <g transform="translate(1023.292819 319.76485)rotate(-90)scale(0.0694 -0.0694)">
       <use xlink:href="#DejaVuSans-31"/>
       <use x="63.623047" xlink:href="#DejaVuSans-30"/>
       <use x="127.246094" xlink:href="#DejaVuSans-30"/>
      </g>
     </g>
    </g>
    <g id="xtick_16">
     <g id="line2d_37">
      <g>
       <use style="stroke:#000000;stroke-width:0.8;" x="1079.418171" xlink:href="#m61765ecc9c" y="299.518125"/>
      </g>
     </g>
     <g id="text_43">
      <!-- 150 -->
      <g transform="translate(1081.333177 319.76485)rotate(-90)scale(0.0694 -0.0694)">
       <use xlink:href="#DejaVuSans-31"/>
       <use x="63.623047" xlink:href="#DejaVuSans-35"/>
       <use x="127.246094" xlink:href="#DejaVuSans-30"/>
      </g>
     </g>
    </g>
    <g id="text_44">
     <!-- number of components in model -->
     <g transform="translate(933.865183 331.363288)scale(0.1 -0.1)">
      <use xlink:href="#DejaVuSans-6e"/>
      <use x="63.378906" xlink:href="#DejaVuSans-75"/>
      <use x="126.757812" xlink:href="#DejaVuSans-6d"/>
      <use x="224.169922" xlink:href="#DejaVuSans-62"/>
      <use x="287.646484" xlink:href="#DejaVuSans-65"/>
      <use x="349.169922" xlink:href="#DejaVuSans-72"/>
      <use x="390.283203" xlink:href="#DejaVuSans-20"/>
      <use x="422.070312" xlink:href="#DejaVuSans-6f"/>
      <use x="483.251953" xlink:href="#DejaVuSans-66"/>
      <use x="518.457031" xlink:href="#DejaVuSans-20"/>
      <use x="550.244141" xlink:href="#DejaVuSans-63"/>
      <use x="605.224609" xlink:href="#DejaVuSans-6f"/>
      <use x="666.40625" xlink:href="#DejaVuSans-6d"/>
      <use x="763.818359" xlink:href="#DejaVuSans-70"/>
      <use x="827.294922" xlink:href="#DejaVuSans-6f"/>
      <use x="888.476562" xlink:href="#DejaVuSans-6e"/>
      <use x="951.855469" xlink:href="#DejaVuSans-65"/>
      <use x="1013.378906" xlink:href="#DejaVuSans-6e"/>
      <use x="1076.757812" xlink:href="#DejaVuSans-74"/>
      <use x="1115.966797" xlink:href="#DejaVuSans-73"/>
      <use x="1168.066406" xlink:href="#DejaVuSans-20"/>
      <use x="1199.853516" xlink:href="#DejaVuSans-69"/>
      <use x="1227.636719" xlink:href="#DejaVuSans-6e"/>
      <use x="1291.015625" xlink:href="#DejaVuSans-20"/>
      <use x="1322.802734" xlink:href="#DejaVuSans-6d"/>
      <use x="1420.214844" xlink:href="#DejaVuSans-6f"/>
      <use x="1481.396484" xlink:href="#DejaVuSans-64"/>
      <use x="1544.873047" xlink:href="#DejaVuSans-65"/>
      <use x="1606.396484" xlink:href="#DejaVuSans-6c"/>
     </g>
    </g>
   </g>
   <g id="matplotlib.axis_8">
    <g id="text_45">
     <!-- cumulative variance explained (%) -->
     <g transform="translate(888.189742 248.130625)rotate(-90)scale(0.1 -0.1)">
      <use xlink:href="#DejaVuSans-63"/>
      <use x="54.980469" xlink:href="#DejaVuSans-75"/>
      <use x="118.359375" xlink:href="#DejaVuSans-6d"/>
      <use x="215.771484" xlink:href="#DejaVuSans-75"/>
      <use x="279.150391" xlink:href="#DejaVuSans-6c"/>
      <use x="306.933594" xlink:href="#DejaVuSans-61"/>
      <use x="368.212891" xlink:href="#DejaVuSans-74"/>
      <use x="407.421875" xlink:href="#DejaVuSans-69"/>
      <use x="435.205078" xlink:href="#DejaVuSans-76"/>
      <use x="494.384766" xlink:href="#DejaVuSans-65"/>
      <use x="555.908203" xlink:href="#DejaVuSans-20"/>
      <use x="587.695312" xlink:href="#DejaVuSans-76"/>
      <use x="646.875" xlink:href="#DejaVuSans-61"/>
      <use x="708.154297" xlink:href="#DejaVuSans-72"/>
      <use x="749.267578" xlink:href="#DejaVuSans-69"/>
      <use x="777.050781" xlink:href="#DejaVuSans-61"/>
      <use x="838.330078" xlink:href="#DejaVuSans-6e"/>
      <use x="901.708984" xlink:href="#DejaVuSans-63"/>
      <use x="956.689453" xlink:href="#DejaVuSans-65"/>
      <use x="1018.212891" xlink:href="#DejaVuSans-20"/>
      <use x="1050" xlink:href="#DejaVuSans-65"/>
      <use x="1111.507812" xlink:href="#DejaVuSans-78"/>
      <use x="1170.6875" xlink:href="#DejaVuSans-70"/>
      <use x="1234.164062" xlink:href="#DejaVuSans-6c"/>
      <use x="1261.947266" xlink:href="#DejaVuSans-61"/>
      <use x="1323.226562" xlink:href="#DejaVuSans-69"/>
      <use x="1351.009766" xlink:href="#DejaVuSans-6e"/>
      <use x="1414.388672" xlink:href="#DejaVuSans-65"/>
      <use x="1475.912109" xlink:href="#DejaVuSans-64"/>
      <use x="1539.388672" xlink:href="#DejaVuSans-20"/>
      <use x="1571.175781" xlink:href="#DejaVuSans-28"/>
      <use x="1610.189453" xlink:href="#DejaVuSans-25"/>
      <use x="1705.208984" xlink:href="#DejaVuSans-29"/>
     </g>
    </g>
   </g>
   <g id="line2d_38">
    <path clip-path="url(#p469e9b4742)" d="M 905.297097 286.918125 
L 906.457904 192.886237 
L 907.618712 144.707475 
L 908.779519 127.435691 
L 909.940326 115.103746 
L 911.101133 107.610933 
L 912.26194 101.891367 
L 914.583555 91.968777 
L 916.905169 83.78349 
L 918.065976 80.549214 
L 919.226783 78.094849 
L 921.548398 74.055015 
L 923.870012 70.471428 
L 925.030819 68.877485 
L 927.352433 66.259161 
L 929.674048 63.908644 
L 931.995662 61.876655 
L 934.317276 60.135469 
L 937.799698 57.850583 
L 941.282119 55.83644 
L 945.925348 53.685592 
L 950.568576 51.905646 
L 955.211805 50.348606 
L 959.855034 49.003803 
L 965.659069 47.55534 
L 971.463105 46.3192 
L 979.588755 44.831596 
L 988.875213 43.437906 
L 999.322477 42.128224 
L 1010.930549 40.907407 
L 1023.699427 39.788613 
L 1038.78992 38.679232 
L 1057.362835 37.552899 
L 1078.257364 36.504484 
L 1101.473507 35.561068 
L 1121.207228 34.918125 
L 1125.850457 34.918125 
L 1125.850457 34.918125 
" style="fill:none;stroke:#800080;stroke-linecap:square;stroke-width:2.5;"/>
   </g>
   <g id="line2d_39">
    <path clip-path="url(#p469e9b4742)" d="M 894.269429 160.918125 
L 1136.878125 160.918125 
" style="fill:none;stroke:#d3d3d3;stroke-linecap:square;stroke-width:0.25;"/>
   </g>
   <g id="line2d_40">
    <path clip-path="url(#p469e9b4742)" d="M 907.618712 299.518125 
L 907.618712 22.318125 
" style="fill:none;stroke:#1f77b4;stroke-dasharray:2,3.3;stroke-dashoffset:0;stroke-width:2;"/>
   </g>
   <g id="line2d_41">
    <path clip-path="url(#p469e9b4742)" d="M 894.269429 110.518125 
L 1136.878125 110.518125 
" style="fill:none;stroke:#d3d3d3;stroke-linecap:square;stroke-width:0.25;"/>
   </g>
   <g id="line2d_42">
    <path clip-path="url(#p469e9b4742)" d="M 911.101133 299.518125 
L 911.101133 22.318125 
" style="fill:none;stroke:#ff7f0e;stroke-dasharray:2,3.3;stroke-dashoffset:0;stroke-width:2;"/>
   </g>
   <g id="line2d_43">
    <path clip-path="url(#p469e9b4742)" d="M 894.269429 60.118125 
L 1136.878125 60.118125 
" style="fill:none;stroke:#d3d3d3;stroke-linecap:square;stroke-width:0.25;"/>
   </g>
   <g id="line2d_44">
    <path clip-path="url(#p469e9b4742)" d="M 935.478083 299.518125 
L 935.478083 22.318125 
" style="fill:none;stroke:#2ca02c;stroke-dasharray:2,3.3;stroke-dashoffset:0;stroke-width:2;"/>
   </g>
   <g id="patch_27">
    <path d="M 894.269429 299.518125 
L 1136.878125 299.518125 
" style="fill:none;stroke:#000000;stroke-linecap:square;stroke-linejoin:miter;stroke-width:0.8;"/>
   </g>
   <g id="text_46">
    <g id="patch_28">
     <path d="M 905.297097 164.443428 
L 914.128247 164.443428 
Q 916.210247 164.443428 916.210247 162.361428 
L 916.210247 155.644809 
Q 916.210247 153.562809 914.128247 153.562809 
L 905.297097 153.562809 
Q 903.215097 153.562809 903.215097 155.644809 
L 903.215097 162.361428 
Q 903.215097 164.443428 905.297097 164.443428 
z
" style="fill:#ffffff;opacity:0.8;"/>
    </g>
    <!-- 50 -->
    <g transform="translate(905.297097 160.918125)scale(0.0694 -0.0694)">
     <use xlink:href="#DejaVuSans-35"/>
     <use x="63.623047" xlink:href="#DejaVuSans-30"/>
    </g>
   </g>
   <g id="text_47">
    <g id="patch_29">
     <path d="M 915.399296 277.270623 
L 915.399296 213.035096 
Q 915.399296 211.298096 913.662296 211.298096 
L 901.575128 211.298096 
Q 899.838128 211.298096 899.838128 213.035096 
L 899.838128 277.270623 
Q 899.838128 279.007623 901.575128 279.007623 
L 913.662296 279.007623 
Q 915.399296 279.007623 915.399296 277.270623 
z
" style="fill:#ffffff;opacity:0.8;"/>
    </g>
    <!-- 2 components explain -->
    <g transform="translate(905.974623 277.270623)rotate(-90)scale(0.0579 -0.0579)">
     <use xlink:href="#DejaVuSans-32"/>
     <use x="63.623047" xlink:href="#DejaVuSans-20"/>
     <use x="95.410156" xlink:href="#DejaVuSans-63"/>
     <use x="150.390625" xlink:href="#DejaVuSans-6f"/>
     <use x="211.572266" xlink:href="#DejaVuSans-6d"/>
     <use x="308.984375" xlink:href="#DejaVuSans-70"/>
     <use x="372.460938" xlink:href="#DejaVuSans-6f"/>
     <use x="433.642578" xlink:href="#DejaVuSans-6e"/>
     <use x="497.021484" xlink:href="#DejaVuSans-65"/>
     <use x="558.544922" xlink:href="#DejaVuSans-6e"/>
     <use x="621.923828" xlink:href="#DejaVuSans-74"/>
     <use x="661.132812" xlink:href="#DejaVuSans-73"/>
     <use x="713.232422" xlink:href="#DejaVuSans-20"/>
     <use x="745.019531" xlink:href="#DejaVuSans-65"/>
     <use x="806.527344" xlink:href="#DejaVuSans-78"/>
     <use x="865.707031" xlink:href="#DejaVuSans-70"/>
     <use x="929.183594" xlink:href="#DejaVuSans-6c"/>
     <use x="956.966797" xlink:href="#DejaVuSans-61"/>
     <use x="1018.246094" xlink:href="#DejaVuSans-69"/>
     <use x="1046.029297" xlink:href="#DejaVuSans-6e"/>
    </g>
    <!-- 50% of variance -->
    <g transform="translate(912.458156 268.681972)rotate(-90)scale(0.0579 -0.0579)">
     <use xlink:href="#DejaVuSans-35"/>
     <use x="63.623047" xlink:href="#DejaVuSans-30"/>
     <use x="127.246094" xlink:href="#DejaVuSans-25"/>
     <use x="222.265625" xlink:href="#DejaVuSans-20"/>
     <use x="254.052734" xlink:href="#DejaVuSans-6f"/>
     <use x="315.234375" xlink:href="#DejaVuSans-66"/>
     <use x="350.439453" xlink:href="#DejaVuSans-20"/>
     <use x="382.226562" xlink:href="#DejaVuSans-76"/>
     <use x="441.40625" xlink:href="#DejaVuSans-61"/>
     <use x="502.685547" xlink:href="#DejaVuSans-72"/>
     <use x="543.798828" xlink:href="#DejaVuSans-69"/>
     <use x="571.582031" xlink:href="#DejaVuSans-61"/>
     <use x="632.861328" xlink:href="#DejaVuSans-6e"/>
     <use x="696.240234" xlink:href="#DejaVuSans-63"/>
     <use x="751.220703" xlink:href="#DejaVuSans-65"/>
    </g>
   </g>
   <g id="text_48">
    <g id="patch_30">
     <path d="M 905.297097 114.043428 
L 914.128247 114.043428 
Q 916.210247 114.043428 916.210247 111.961428 
L 916.210247 105.244809 
Q 916.210247 103.162809 914.128247 103.162809 
L 905.297097 103.162809 
Q 903.215097 103.162809 903.215097 105.244809 
L 903.215097 111.961428 
Q 903.215097 114.043428 905.297097 114.043428 
z
" style="fill:#ffffff;opacity:0.8;"/>
    </g>
    <!-- 70 -->
    <g transform="translate(905.297097 110.518125)scale(0.0694 -0.0694)">
     <use xlink:href="#DejaVuSans-37"/>
     <use x="63.623047" xlink:href="#DejaVuSans-30"/>
    </g>
   </g>
   <g id="text_49">
    <g id="patch_31">
     <path d="M 918.881717 277.270623 
L 918.881717 213.035096 
Q 918.881717 211.298096 917.144717 211.298096 
L 905.057549 211.298096 
Q 903.320549 211.298096 903.320549 213.035096 
L 903.320549 277.270623 
Q 903.320549 279.007623 905.057549 279.007623 
L 917.144717 279.007623 
Q 918.881717 279.007623 918.881717 277.270623 
z
" style="fill:#ffffff;opacity:0.8;"/>
    </g>
    <!-- 5 components explain -->
    <g transform="translate(909.457045 277.270623)rotate(-90)scale(0.0579 -0.0579)">
     <use xlink:href="#DejaVuSans-35"/>
     <use x="63.623047" xlink:href="#DejaVuSans-20"/>
     <use x="95.410156" xlink:href="#DejaVuSans-63"/>
     <use x="150.390625" xlink:href="#DejaVuSans-6f"/>
     <use x="211.572266" xlink:href="#DejaVuSans-6d"/>
     <use x="308.984375" xlink:href="#DejaVuSans-70"/>
     <use x="372.460938" xlink:href="#DejaVuSans-6f"/>
     <use x="433.642578" xlink:href="#DejaVuSans-6e"/>
     <use x="497.021484" xlink:href="#DejaVuSans-65"/>
     <use x="558.544922" xlink:href="#DejaVuSans-6e"/>
     <use x="621.923828" xlink:href="#DejaVuSans-74"/>
     <use x="661.132812" xlink:href="#DejaVuSans-73"/>
     <use x="713.232422" xlink:href="#DejaVuSans-20"/>
     <use x="745.019531" xlink:href="#DejaVuSans-65"/>
     <use x="806.527344" xlink:href="#DejaVuSans-78"/>
     <use x="865.707031" xlink:href="#DejaVuSans-70"/>
     <use x="929.183594" xlink:href="#DejaVuSans-6c"/>
     <use x="956.966797" xlink:href="#DejaVuSans-61"/>
     <use x="1018.246094" xlink:href="#DejaVuSans-69"/>
     <use x="1046.029297" xlink:href="#DejaVuSans-6e"/>
    </g>
    <!-- 70% of variance -->
    <g transform="translate(915.940578 268.681972)rotate(-90)scale(0.0579 -0.0579)">
     <use xlink:href="#DejaVuSans-37"/>
     <use x="63.623047" xlink:href="#DejaVuSans-30"/>
     <use x="127.246094" xlink:href="#DejaVuSans-25"/>
     <use x="222.265625" xlink:href="#DejaVuSans-20"/>
     <use x="254.052734" xlink:href="#DejaVuSans-6f"/>
     <use x="315.234375" xlink:href="#DejaVuSans-66"/>
     <use x="350.439453" xlink:href="#DejaVuSans-20"/>
     <use x="382.226562" xlink:href="#DejaVuSans-76"/>
     <use x="441.40625" xlink:href="#DejaVuSans-61"/>
     <use x="502.685547" xlink:href="#DejaVuSans-72"/>
     <use x="543.798828" xlink:href="#DejaVuSans-69"/>
     <use x="571.582031" xlink:href="#DejaVuSans-61"/>
     <use x="632.861328" xlink:href="#DejaVuSans-6e"/>
     <use x="696.240234" xlink:href="#DejaVuSans-63"/>
     <use x="751.220703" xlink:href="#DejaVuSans-65"/>
    </g>
   </g>
   <g id="text_50">
    <g id="patch_32">
     <path d="M 905.297097 63.643428 
L 914.128247 63.643428 
Q 916.210247 63.643428 916.210247 61.561428 
L 916.210247 54.844809 
Q 916.210247 52.762809 914.128247 52.762809 
L 905.297097 52.762809 
Q 903.215097 52.762809 903.215097 54.844809 
L 903.215097 61.561428 
Q 903.215097 63.643428 905.297097 63.643428 
z
" style="fill:#ffffff;opacity:0.8;"/>
    </g>
    <!-- 90 -->
    <g transform="translate(905.297097 60.118125)scale(0.0694 -0.0694)">
     <use xlink:href="#DejaVuSans-39"/>
     <use x="63.623047" xlink:href="#DejaVuSans-30"/>
    </g>
   </g>
   <g id="text_51">
    <g id="patch_33">
     <path d="M 943.258667 280.95451 
L 943.258667 213.035096 
Q 943.258667 211.298096 941.521667 211.298096 
L 929.434499 211.298096 
Q 927.697499 211.298096 927.697499 213.035096 
L 927.697499 280.95451 
Q 927.697499 282.69151 929.434499 282.69151 
L 941.521667 282.69151 
Q 943.258667 282.69151 943.258667 280.95451 
z
" style="fill:#ffffff;opacity:0.8;"/>
    </g>
    <!-- 26 components explain -->
    <g transform="translate(933.833995 280.95451)rotate(-90)scale(0.0579 -0.0579)">
     <use xlink:href="#DejaVuSans-32"/>
     <use x="63.623047" xlink:href="#DejaVuSans-36"/>
     <use x="127.246094" xlink:href="#DejaVuSans-20"/>
     <use x="159.033203" xlink:href="#DejaVuSans-63"/>
     <use x="214.013672" xlink:href="#DejaVuSans-6f"/>
     <use x="275.195312" xlink:href="#DejaVuSans-6d"/>
     <use x="372.607422" xlink:href="#DejaVuSans-70"/>
     <use x="436.083984" xlink:href="#DejaVuSans-6f"/>
     <use x="497.265625" xlink:href="#DejaVuSans-6e"/>
     <use x="560.644531" xlink:href="#DejaVuSans-65"/>
     <use x="622.167969" xlink:href="#DejaVuSans-6e"/>
     <use x="685.546875" xlink:href="#DejaVuSans-74"/>
     <use x="724.755859" xlink:href="#DejaVuSans-73"/>
     <use x="776.855469" xlink:href="#DejaVuSans-20"/>
     <use x="808.642578" xlink:href="#DejaVuSans-65"/>
     <use x="870.150391" xlink:href="#DejaVuSans-78"/>
     <use x="929.330078" xlink:href="#DejaVuSans-70"/>
     <use x="992.806641" xlink:href="#DejaVuSans-6c"/>
     <use x="1020.589844" xlink:href="#DejaVuSans-61"/>
     <use x="1081.869141" xlink:href="#DejaVuSans-69"/>
     <use x="1109.652344" xlink:href="#DejaVuSans-6e"/>
    </g>
    <!-- 90% of variance -->
    <g transform="translate(940.317528 270.523916)rotate(-90)scale(0.0579 -0.0579)">
     <use xlink:href="#DejaVuSans-39"/>
     <use x="63.623047" xlink:href="#DejaVuSans-30"/>
     <use x="127.246094" xlink:href="#DejaVuSans-25"/>
     <use x="222.265625" xlink:href="#DejaVuSans-20"/>
     <use x="254.052734" xlink:href="#DejaVuSans-6f"/>
     <use x="315.234375" xlink:href="#DejaVuSans-66"/>
     <use x="350.439453" xlink:href="#DejaVuSans-20"/>
     <use x="382.226562" xlink:href="#DejaVuSans-76"/>
     <use x="441.40625" xlink:href="#DejaVuSans-61"/>
     <use x="502.685547" xlink:href="#DejaVuSans-72"/>
     <use x="543.798828" xlink:href="#DejaVuSans-69"/>
     <use x="571.582031" xlink:href="#DejaVuSans-61"/>
     <use x="632.861328" xlink:href="#DejaVuSans-6e"/>
     <use x="696.240234" xlink:href="#DejaVuSans-63"/>
     <use x="751.220703" xlink:href="#DejaVuSans-65"/>
    </g>
   </g>
   <g id="text_52">
    <!-- tCompCor -->
    <g transform="translate(985.379715 16.318125)scale(0.12 -0.12)">
     <use xlink:href="#DejaVuSans-74"/>
     <use x="39.208984" xlink:href="#DejaVuSans-43"/>
     <use x="109.033203" xlink:href="#DejaVuSans-6f"/>
     <use x="170.214844" xlink:href="#DejaVuSans-6d"/>
     <use x="267.626953" xlink:href="#DejaVuSans-70"/>
     <use x="331.103516" xlink:href="#DejaVuSans-43"/>
     <use x="400.927734" xlink:href="#DejaVuSans-6f"/>
     <use x="462.109375" xlink:href="#DejaVuSans-72"/>
    </g>
   </g>
  </g>
 </g>
 <defs>
  <clipPath id="pbc11ce667e">
   <rect height="277.2" width="242.608696" x="20.878125" y="22.318125"/>
  </clipPath>
  <clipPath id="p4091c9880e">
   <rect height="277.2" width="242.608696" x="312.00856" y="22.318125"/>
  </clipPath>
  <clipPath id="p8e9368defa">
   <rect height="277.2" width="242.608696" x="603.138995" y="22.318125"/>
  </clipPath>
  <clipPath id="p469e9b4742">
   <rect height="277.2" width="242.608696" x="894.269429" y="22.318125"/>
  </clipPath>
 </defs>
</svg>
