<?xml version="1.0" encoding="utf-8" standalone="no"?>
<!DOCTYPE svg PUBLIC "-//W3C//DTD SVG 1.1//EN"
  "http://www.w3.org/Graphics/SVG/1.1/DTD/svg11.dtd">
<!-- Created with matplotlib (http://matplotlib.org/) -->
<svg height="340.642975pt" version="1.1" viewBox="0 0 1147.578125 340.642975" width="1147.578125pt" xmlns="http://www.w3.org/2000/svg" xmlns:xlink="http://www.w3.org/1999/xlink">
 <defs>
  <style type="text/css">
*{stroke-linecap:butt;stroke-linejoin:round;}
  </style>
 </defs>
 <g id="figure_1">
  <g id="patch_1">
   <path d="M 0 340.642975 
L 1147.578125 340.642975 
L 1147.578125 0 
L 0 0 
z
" style="fill:#ffffff;"/>
  </g>
  <g id="axes_1">
   <g id="patch_2">
    <path d="M 20.878125 299.518125 
L 263.486821 299.518125 
L 263.486821 22.318125 
L 20.878125 22.318125 
z
" style="fill:#ffffff;"/>
   </g>
   <g id="matplotlib.axis_1">
    <g id="xtick_1">
     <g id="line2d_1">
      <defs>
       <path d="M 0 0 
L 0 3.5 
" id="m4dc18be86e" style="stroke:#000000;stroke-width:0.8;"/>
      </defs>
      <g>
       <use style="stroke:#000000;stroke-width:0.8;" x="31.905793" xlink:href="#m4dc18be86e" y="299.518125"/>
      </g>
     </g>
     <g id="text_1">
      <!-- 0 -->
      <defs>
       <path d="M 31.78125 66.40625 
Q 24.171875 66.40625 20.328125 58.90625 
Q 16.5 51.421875 16.5 36.375 
Q 16.5 21.390625 20.328125 13.890625 
Q 24.171875 6.390625 31.78125 6.390625 
Q 39.453125 6.390625 43.28125 13.890625 
Q 47.125 21.390625 47.125 36.375 
Q 47.125 51.421875 43.28125 58.90625 
Q 39.453125 66.40625 31.78125 66.40625 
z
M 31.78125 74.21875 
Q 44.046875 74.21875 50.515625 64.515625 
Q 56.984375 54.828125 56.984375 36.375 
Q 56.984375 17.96875 50.515625 8.265625 
Q 44.046875 -1.421875 31.78125 -1.421875 
Q 19.53125 -1.421875 13.0625 8.265625 
Q 6.59375 17.96875 6.59375 36.375 
Q 6.59375 54.828125 13.0625 64.515625 
Q 19.53125 74.21875 31.78125 74.21875 
z
" id="DejaVuSans-30"/>
      </defs>
      <g transform="translate(33.820799 310.9337)rotate(-90)scale(0.0694 -0.0694)">
       <use xlink:href="#DejaVuSans-30"/>
      </g>
     </g>
    </g>
    <g id="xtick_2">
     <g id="line2d_2">
      <g>
       <use style="stroke:#000000;stroke-width:0.8;" x="89.946151" xlink:href="#m4dc18be86e" y="299.518125"/>
      </g>
     </g>
     <g id="text_2">
      <!-- 50 -->
      <defs>
       <path d="M 10.796875 72.90625 
L 49.515625 72.90625 
L 49.515625 64.59375 
L 19.828125 64.59375 
L 19.828125 46.734375 
Q 21.96875 47.46875 24.109375 47.828125 
Q 26.265625 48.1875 28.421875 48.1875 
Q 40.625 48.1875 47.75 41.5 
Q 54.890625 34.8125 54.890625 23.390625 
Q 54.890625 11.625 47.5625 5.09375 
Q 40.234375 -1.421875 26.90625 -1.421875 
Q 22.3125 -1.421875 17.546875 -0.640625 
Q 12.796875 0.140625 7.71875 1.703125 
L 7.71875 11.625 
Q 12.109375 9.234375 16.796875 8.0625 
Q 21.484375 6.890625 26.703125 6.890625 
Q 35.15625 6.890625 40.078125 11.328125 
Q 45.015625 15.765625 45.015625 23.390625 
Q 45.015625 31 40.078125 35.4375 
Q 35.15625 39.890625 26.703125 39.890625 
Q 22.75 39.890625 18.8125 39.015625 
Q 14.890625 38.140625 10.796875 36.28125 
z
" id="DejaVuSans-35"/>
      </defs>
      <g transform="translate(91.861157 315.349275)rotate(-90)scale(0.0694 -0.0694)">
       <use xlink:href="#DejaVuSans-35"/>
       <use x="63.623047" xlink:href="#DejaVuSans-30"/>
      </g>
     </g>
    </g>
    <g id="xtick_3">
     <g id="line2d_3">
      <g>
       <use style="stroke:#000000;stroke-width:0.8;" x="147.986509" xlink:href="#m4dc18be86e" y="299.518125"/>
      </g>
     </g>
     <g id="text_3">
      <!-- 100 -->
      <defs>
       <path d="M 12.40625 8.296875 
L 28.515625 8.296875 
L 28.515625 63.921875 
L 10.984375 60.40625 
L 10.984375 69.390625 
L 28.421875 72.90625 
L 38.28125 72.90625 
L 38.28125 8.296875 
L 54.390625 8.296875 
L 54.390625 0 
L 12.40625 0 
z
" id="DejaVuSans-31"/>
      </defs>
      <g transform="translate(149.901515 319.76485)rotate(-90)scale(0.0694 -0.0694)">
       <use xlink:href="#DejaVuSans-31"/>
       <use x="63.623047" xlink:href="#DejaVuSans-30"/>
       <use x="127.246094" xlink:href="#DejaVuSans-30"/>
      </g>
     </g>
    </g>
    <g id="xtick_4">
     <g id="line2d_4">
      <g>
       <use style="stroke:#000000;stroke-width:0.8;" x="206.026866" xlink:href="#m4dc18be86e" y="299.518125"/>
      </g>
     </g>
     <g id="text_4">
      <!-- 150 -->
      <g transform="translate(207.941873 319.76485)rotate(-90)scale(0.0694 -0.0694)">
       <use xlink:href="#DejaVuSans-31"/>
       <use x="63.623047" xlink:href="#DejaVuSans-35"/>
       <use x="127.246094" xlink:href="#DejaVuSans-30"/>
      </g>
     </g>
    </g>
    <g id="text_5">
     <!-- number of components in model -->
     <defs>
      <path d="M 54.890625 33.015625 
L 54.890625 0 
L 45.90625 0 
L 45.90625 32.71875 
Q 45.90625 40.484375 42.875 44.328125 
Q 39.84375 48.1875 33.796875 48.1875 
Q 26.515625 48.1875 22.3125 43.546875 
Q 18.109375 38.921875 18.109375 30.90625 
L 18.109375 0 
L 9.078125 0 
L 9.078125 54.6875 
L 18.109375 54.6875 
L 18.109375 46.1875 
Q 21.34375 51.125 25.703125 53.5625 
Q 30.078125 56 35.796875 56 
Q 45.21875 56 50.046875 50.171875 
Q 54.890625 44.34375 54.890625 33.015625 
z
" id="DejaVuSans-6e"/>
      <path d="M 8.5 21.578125 
L 8.5 54.6875 
L 17.484375 54.6875 
L 17.484375 21.921875 
Q 17.484375 14.15625 20.5 10.265625 
Q 23.53125 6.390625 29.59375 6.390625 
Q 36.859375 6.390625 41.078125 11.03125 
Q 45.3125 15.671875 45.3125 23.6875 
L 45.3125 54.6875 
L 54.296875 54.6875 
L 54.296875 0 
L 45.3125 0 
L 45.3125 8.40625 
Q 42.046875 3.421875 37.71875 1 
Q 33.40625 -1.421875 27.6875 -1.421875 
Q 18.265625 -1.421875 13.375 4.4375 
Q 8.5 10.296875 8.5 21.578125 
z
M 31.109375 56 
z
" id="DejaVuSans-75"/>
      <path d="M 52 44.1875 
Q 55.375 50.25 60.0625 53.125 
Q 64.75 56 71.09375 56 
Q 79.640625 56 84.28125 50.015625 
Q 88.921875 44.046875 88.921875 33.015625 
L 88.921875 0 
L 79.890625 0 
L 79.890625 32.71875 
Q 79.890625 40.578125 77.09375 44.375 
Q 74.3125 48.1875 68.609375 48.1875 
Q 61.625 48.1875 57.5625 43.546875 
Q 53.515625 38.921875 53.515625 30.90625 
L 53.515625 0 
L 44.484375 0 
L 44.484375 32.71875 
Q 44.484375 40.625 41.703125 44.40625 
Q 38.921875 48.1875 33.109375 48.1875 
Q 26.21875 48.1875 22.15625 43.53125 
Q 18.109375 38.875 18.109375 30.90625 
L 18.109375 0 
L 9.078125 0 
L 9.078125 54.6875 
L 18.109375 54.6875 
L 18.109375 46.1875 
Q 21.1875 51.21875 25.484375 53.609375 
Q 29.78125 56 35.6875 56 
Q 41.65625 56 45.828125 52.96875 
Q 50 49.953125 52 44.1875 
z
" id="DejaVuSans-6d"/>
      <path d="M 48.6875 27.296875 
Q 48.6875 37.203125 44.609375 42.84375 
Q 40.53125 48.484375 33.40625 48.484375 
Q 26.265625 48.484375 22.1875 42.84375 
Q 18.109375 37.203125 18.109375 27.296875 
Q 18.109375 17.390625 22.1875 11.75 
Q 26.265625 6.109375 33.40625 6.109375 
Q 40.53125 6.109375 44.609375 11.75 
Q 48.6875 17.390625 48.6875 27.296875 
z
M 18.109375 46.390625 
Q 20.953125 51.265625 25.265625 53.625 
Q 29.59375 56 35.59375 56 
Q 45.5625 56 51.78125 48.09375 
Q 58.015625 40.1875 58.015625 27.296875 
Q 58.015625 14.40625 51.78125 6.484375 
Q 45.5625 -1.421875 35.59375 -1.421875 
Q 29.59375 -1.421875 25.265625 0.953125 
Q 20.953125 3.328125 18.109375 8.203125 
L 18.109375 0 
L 9.078125 0 
L 9.078125 75.984375 
L 18.109375 75.984375 
z
" id="DejaVuSans-62"/>
      <path d="M 56.203125 29.59375 
L 56.203125 25.203125 
L 14.890625 25.203125 
Q 15.484375 15.921875 20.484375 11.0625 
Q 25.484375 6.203125 34.421875 6.203125 
Q 39.59375 6.203125 44.453125 7.46875 
Q 49.3125 8.734375 54.109375 11.28125 
L 54.109375 2.78125 
Q 49.265625 0.734375 44.1875 -0.34375 
Q 39.109375 -1.421875 33.890625 -1.421875 
Q 20.796875 -1.421875 13.15625 6.1875 
Q 5.515625 13.8125 5.515625 26.8125 
Q 5.515625 40.234375 12.765625 48.109375 
Q 20.015625 56 32.328125 56 
Q 43.359375 56 49.78125 48.890625 
Q 56.203125 41.796875 56.203125 29.59375 
z
M 47.21875 32.234375 
Q 47.125 39.59375 43.09375 43.984375 
Q 39.0625 48.390625 32.421875 48.390625 
Q 24.90625 48.390625 20.390625 44.140625 
Q 15.875 39.890625 15.1875 32.171875 
z
" id="DejaVuSans-65"/>
      <path d="M 41.109375 46.296875 
Q 39.59375 47.171875 37.8125 47.578125 
Q 36.03125 48 33.890625 48 
Q 26.265625 48 22.1875 43.046875 
Q 18.109375 38.09375 18.109375 28.8125 
L 18.109375 0 
L 9.078125 0 
L 9.078125 54.6875 
L 18.109375 54.6875 
L 18.109375 46.1875 
Q 20.953125 51.171875 25.484375 53.578125 
Q 30.03125 56 36.53125 56 
Q 37.453125 56 38.578125 55.875 
Q 39.703125 55.765625 41.0625 55.515625 
z
" id="DejaVuSans-72"/>
      <path id="DejaVuSans-20"/>
      <path d="M 30.609375 48.390625 
Q 23.390625 48.390625 19.1875 42.75 
Q 14.984375 37.109375 14.984375 27.296875 
Q 14.984375 17.484375 19.15625 11.84375 
Q 23.34375 6.203125 30.609375 6.203125 
Q 37.796875 6.203125 41.984375 11.859375 
Q 46.1875 17.53125 46.1875 27.296875 
Q 46.1875 37.015625 41.984375 42.703125 
Q 37.796875 48.390625 30.609375 48.390625 
z
M 30.609375 56 
Q 42.328125 56 49.015625 48.375 
Q 55.71875 40.765625 55.71875 27.296875 
Q 55.71875 13.875 49.015625 6.21875 
Q 42.328125 -1.421875 30.609375 -1.421875 
Q 18.84375 -1.421875 12.171875 6.21875 
Q 5.515625 13.875 5.515625 27.296875 
Q 5.515625 40.765625 12.171875 48.375 
Q 18.84375 56 30.609375 56 
z
" id="DejaVuSans-6f"/>
      <path d="M 37.109375 75.984375 
L 37.109375 68.5 
L 28.515625 68.5 
Q 23.6875 68.5 21.796875 66.546875 
Q 19.921875 64.59375 19.921875 59.515625 
L 19.921875 54.6875 
L 34.71875 54.6875 
L 34.71875 47.703125 
L 19.921875 47.703125 
L 19.921875 0 
L 10.890625 0 
L 10.890625 47.703125 
L 2.296875 47.703125 
L 2.296875 54.6875 
L 10.890625 54.6875 
L 10.890625 58.5 
Q 10.890625 67.625 15.140625 71.796875 
Q 19.390625 75.984375 28.609375 75.984375 
z
" id="DejaVuSans-66"/>
      <path d="M 48.78125 52.59375 
L 48.78125 44.1875 
Q 44.96875 46.296875 41.140625 47.34375 
Q 37.3125 48.390625 33.40625 48.390625 
Q 24.65625 48.390625 19.8125 42.84375 
Q 14.984375 37.3125 14.984375 27.296875 
Q 14.984375 17.28125 19.8125 11.734375 
Q 24.65625 6.203125 33.40625 6.203125 
Q 37.3125 6.203125 41.140625 7.25 
Q 44.96875 8.296875 48.78125 10.40625 
L 48.78125 2.09375 
Q 45.015625 0.34375 40.984375 -0.53125 
Q 36.96875 -1.421875 32.421875 -1.421875 
Q 20.0625 -1.421875 12.78125 6.34375 
Q 5.515625 14.109375 5.515625 27.296875 
Q 5.515625 40.671875 12.859375 48.328125 
Q 20.21875 56 33.015625 56 
Q 37.15625 56 41.109375 55.140625 
Q 45.0625 54.296875 48.78125 52.59375 
z
" id="DejaVuSans-63"/>
      <path d="M 18.109375 8.203125 
L 18.109375 -20.796875 
L 9.078125 -20.796875 
L 9.078125 54.6875 
L 18.109375 54.6875 
L 18.109375 46.390625 
Q 20.953125 51.265625 25.265625 53.625 
Q 29.59375 56 35.59375 56 
Q 45.5625 56 51.78125 48.09375 
Q 58.015625 40.1875 58.015625 27.296875 
Q 58.015625 14.40625 51.78125 6.484375 
Q 45.5625 -1.421875 35.59375 -1.421875 
Q 29.59375 -1.421875 25.265625 0.953125 
Q 20.953125 3.328125 18.109375 8.203125 
z
M 48.6875 27.296875 
Q 48.6875 37.203125 44.609375 42.84375 
Q 40.53125 48.484375 33.40625 48.484375 
Q 26.265625 48.484375 22.1875 42.84375 
Q 18.109375 37.203125 18.109375 27.296875 
Q 18.109375 17.390625 22.1875 11.75 
Q 26.265625 6.109375 33.40625 6.109375 
Q 40.53125 6.109375 44.609375 11.75 
Q 48.6875 17.390625 48.6875 27.296875 
z
" id="DejaVuSans-70"/>
      <path d="M 18.3125 70.21875 
L 18.3125 54.6875 
L 36.8125 54.6875 
L 36.8125 47.703125 
L 18.3125 47.703125 
L 18.3125 18.015625 
Q 18.3125 11.328125 20.140625 9.421875 
Q 21.96875 7.515625 27.59375 7.515625 
L 36.8125 7.515625 
L 36.8125 0 
L 27.59375 0 
Q 17.1875 0 13.234375 3.875 
Q 9.28125 7.765625 9.28125 18.015625 
L 9.28125 47.703125 
L 2.6875 47.703125 
L 2.6875 54.6875 
L 9.28125 54.6875 
L 9.28125 70.21875 
z
" id="DejaVuSans-74"/>
      <path d="M 44.28125 53.078125 
L 44.28125 44.578125 
Q 40.484375 46.53125 36.375 47.5 
Q 32.28125 48.484375 27.875 48.484375 
Q 21.1875 48.484375 17.84375 46.4375 
Q 14.5 44.390625 14.5 40.28125 
Q 14.5 37.15625 16.890625 35.375 
Q 19.28125 33.59375 26.515625 31.984375 
L 29.59375 31.296875 
Q 39.15625 29.25 43.1875 25.515625 
Q 47.21875 21.78125 47.21875 15.09375 
Q 47.21875 7.46875 41.1875 3.015625 
Q 35.15625 -1.421875 24.609375 -1.421875 
Q 20.21875 -1.421875 15.453125 -0.5625 
Q 10.6875 0.296875 5.421875 2 
L 5.421875 11.28125 
Q 10.40625 8.6875 15.234375 7.390625 
Q 20.0625 6.109375 24.8125 6.109375 
Q 31.15625 6.109375 34.5625 8.28125 
Q 37.984375 10.453125 37.984375 14.40625 
Q 37.984375 18.0625 35.515625 20.015625 
Q 33.0625 21.96875 24.703125 23.78125 
L 21.578125 24.515625 
Q 13.234375 26.265625 9.515625 29.90625 
Q 5.8125 33.546875 5.8125 39.890625 
Q 5.8125 47.609375 11.28125 51.796875 
Q 16.75 56 26.8125 56 
Q 31.78125 56 36.171875 55.265625 
Q 40.578125 54.546875 44.28125 53.078125 
z
" id="DejaVuSans-73"/>
      <path d="M 9.421875 54.6875 
L 18.40625 54.6875 
L 18.40625 0 
L 9.421875 0 
z
M 9.421875 75.984375 
L 18.40625 75.984375 
L 18.40625 64.59375 
L 9.421875 64.59375 
z
" id="DejaVuSans-69"/>
      <path d="M 45.40625 46.390625 
L 45.40625 75.984375 
L 54.390625 75.984375 
L 54.390625 0 
L 45.40625 0 
L 45.40625 8.203125 
Q 42.578125 3.328125 38.25 0.953125 
Q 33.9375 -1.421875 27.875 -1.421875 
Q 17.96875 -1.421875 11.734375 6.484375 
Q 5.515625 14.40625 5.515625 27.296875 
Q 5.515625 40.1875 11.734375 48.09375 
Q 17.96875 56 27.875 56 
Q 33.9375 56 38.25 53.625 
Q 42.578125 51.265625 45.40625 46.390625 
z
M 14.796875 27.296875 
Q 14.796875 17.390625 18.875 11.75 
Q 22.953125 6.109375 30.078125 6.109375 
Q 37.203125 6.109375 41.296875 11.75 
Q 45.40625 17.390625 45.40625 27.296875 
Q 45.40625 37.203125 41.296875 42.84375 
Q 37.203125 48.484375 30.078125 48.484375 
Q 22.953125 48.484375 18.875 42.84375 
Q 14.796875 37.203125 14.796875 27.296875 
z
" id="DejaVuSans-64"/>
      <path d="M 9.421875 75.984375 
L 18.40625 75.984375 
L 18.40625 0 
L 9.421875 0 
z
" id="DejaVuSans-6c"/>
     </defs>
     <g transform="translate(60.473879 331.363288)scale(0.1 -0.1)">
      <use xlink:href="#DejaVuSans-6e"/>
      <use x="63.378906" xlink:href="#DejaVuSans-75"/>
      <use x="126.757812" xlink:href="#DejaVuSans-6d"/>
      <use x="224.169922" xlink:href="#DejaVuSans-62"/>
      <use x="287.646484" xlink:href="#DejaVuSans-65"/>
      <use x="349.169922" xlink:href="#DejaVuSans-72"/>
      <use x="390.283203" xlink:href="#DejaVuSans-20"/>
      <use x="422.070312" xlink:href="#DejaVuSans-6f"/>
      <use x="483.251953" xlink:href="#DejaVuSans-66"/>
      <use x="518.457031" xlink:href="#DejaVuSans-20"/>
      <use x="550.244141" xlink:href="#DejaVuSans-63"/>
      <use x="605.224609" xlink:href="#DejaVuSans-6f"/>
      <use x="666.40625" xlink:href="#DejaVuSans-6d"/>
      <use x="763.818359" xlink:href="#DejaVuSans-70"/>
      <use x="827.294922" xlink:href="#DejaVuSans-6f"/>
      <use x="888.476562" xlink:href="#DejaVuSans-6e"/>
      <use x="951.855469" xlink:href="#DejaVuSans-65"/>
      <use x="1013.378906" xlink:href="#DejaVuSans-6e"/>
      <use x="1076.757812" xlink:href="#DejaVuSans-74"/>
      <use x="1115.966797" xlink:href="#DejaVuSans-73"/>
      <use x="1168.066406" xlink:href="#DejaVuSans-20"/>
      <use x="1199.853516" xlink:href="#DejaVuSans-69"/>
      <use x="1227.636719" xlink:href="#DejaVuSans-6e"/>
      <use x="1291.015625" xlink:href="#DejaVuSans-20"/>
      <use x="1322.802734" xlink:href="#DejaVuSans-6d"/>
      <use x="1420.214844" xlink:href="#DejaVuSans-6f"/>
      <use x="1481.396484" xlink:href="#DejaVuSans-64"/>
      <use x="1544.873047" xlink:href="#DejaVuSans-65"/>
      <use x="1606.396484" xlink:href="#DejaVuSans-6c"/>
     </g>
    </g>
   </g>
   <g id="matplotlib.axis_2">
    <g id="text_6">
     <!-- cumulative variance explained (%) -->
     <defs>
      <path d="M 34.28125 27.484375 
Q 23.390625 27.484375 19.1875 25 
Q 14.984375 22.515625 14.984375 16.5 
Q 14.984375 11.71875 18.140625 8.90625 
Q 21.296875 6.109375 26.703125 6.109375 
Q 34.1875 6.109375 38.703125 11.40625 
Q 43.21875 16.703125 43.21875 25.484375 
L 43.21875 27.484375 
z
M 52.203125 31.203125 
L 52.203125 0 
L 43.21875 0 
L 43.21875 8.296875 
Q 40.140625 3.328125 35.546875 0.953125 
Q 30.953125 -1.421875 24.3125 -1.421875 
Q 15.921875 -1.421875 10.953125 3.296875 
Q 6 8.015625 6 15.921875 
Q 6 25.140625 12.171875 29.828125 
Q 18.359375 34.515625 30.609375 34.515625 
L 43.21875 34.515625 
L 43.21875 35.40625 
Q 43.21875 41.609375 39.140625 45 
Q 35.0625 48.390625 27.6875 48.390625 
Q 23 48.390625 18.546875 47.265625 
Q 14.109375 46.140625 10.015625 43.890625 
L 10.015625 52.203125 
Q 14.9375 54.109375 19.578125 55.046875 
Q 24.21875 56 28.609375 56 
Q 40.484375 56 46.34375 49.84375 
Q 52.203125 43.703125 52.203125 31.203125 
z
" id="DejaVuSans-61"/>
      <path d="M 2.984375 54.6875 
L 12.5 54.6875 
L 29.59375 8.796875 
L 46.6875 54.6875 
L 56.203125 54.6875 
L 35.6875 0 
L 23.484375 0 
z
" id="DejaVuSans-76"/>
      <path d="M 54.890625 54.6875 
L 35.109375 28.078125 
L 55.90625 0 
L 45.3125 0 
L 29.390625 21.484375 
L 13.484375 0 
L 2.875 0 
L 24.125 28.609375 
L 4.6875 54.6875 
L 15.28125 54.6875 
L 29.78125 35.203125 
L 44.28125 54.6875 
z
" id="DejaVuSans-78"/>
      <path d="M 31 75.875 
Q 24.46875 64.65625 21.28125 53.65625 
Q 18.109375 42.671875 18.109375 31.390625 
Q 18.109375 20.125 21.3125 9.0625 
Q 24.515625 -2 31 -13.1875 
L 23.1875 -13.1875 
Q 15.875 -1.703125 12.234375 9.375 
Q 8.59375 20.453125 8.59375 31.390625 
Q 8.59375 42.28125 12.203125 53.3125 
Q 15.828125 64.359375 23.1875 75.875 
z
" id="DejaVuSans-28"/>
      <path d="M 72.703125 32.078125 
Q 68.453125 32.078125 66.03125 28.46875 
Q 63.625 24.859375 63.625 18.40625 
Q 63.625 12.0625 66.03125 8.421875 
Q 68.453125 4.78125 72.703125 4.78125 
Q 76.859375 4.78125 79.265625 8.421875 
Q 81.6875 12.0625 81.6875 18.40625 
Q 81.6875 24.8125 79.265625 28.4375 
Q 76.859375 32.078125 72.703125 32.078125 
z
M 72.703125 38.28125 
Q 80.421875 38.28125 84.953125 32.90625 
Q 89.5 27.546875 89.5 18.40625 
Q 89.5 9.28125 84.9375 3.921875 
Q 80.375 -1.421875 72.703125 -1.421875 
Q 64.890625 -1.421875 60.34375 3.921875 
Q 55.8125 9.28125 55.8125 18.40625 
Q 55.8125 27.59375 60.375 32.9375 
Q 64.9375 38.28125 72.703125 38.28125 
z
M 22.3125 68.015625 
Q 18.109375 68.015625 15.6875 64.375 
Q 13.28125 60.75 13.28125 54.390625 
Q 13.28125 47.953125 15.671875 44.328125 
Q 18.0625 40.71875 22.3125 40.71875 
Q 26.5625 40.71875 28.96875 44.328125 
Q 31.390625 47.953125 31.390625 54.390625 
Q 31.390625 60.6875 28.953125 64.34375 
Q 26.515625 68.015625 22.3125 68.015625 
z
M 66.40625 74.21875 
L 74.21875 74.21875 
L 28.609375 -1.421875 
L 20.796875 -1.421875 
z
M 22.3125 74.21875 
Q 30.03125 74.21875 34.609375 68.875 
Q 39.203125 63.53125 39.203125 54.390625 
Q 39.203125 45.171875 34.640625 39.84375 
Q 30.078125 34.515625 22.3125 34.515625 
Q 14.546875 34.515625 10.03125 39.859375 
Q 5.515625 45.21875 5.515625 54.390625 
Q 5.515625 63.484375 10.046875 68.84375 
Q 14.59375 74.21875 22.3125 74.21875 
z
" id="DejaVuSans-25"/>
      <path d="M 8.015625 75.875 
L 15.828125 75.875 
Q 23.140625 64.359375 26.78125 53.3125 
Q 30.421875 42.28125 30.421875 31.390625 
Q 30.421875 20.453125 26.78125 9.375 
Q 23.140625 -1.703125 15.828125 -13.1875 
L 8.015625 -13.1875 
Q 14.5 -2 17.703125 9.0625 
Q 20.90625 20.125 20.90625 31.390625 
Q 20.90625 42.671875 17.703125 53.65625 
Q 14.5 64.65625 8.015625 75.875 
z
" id="DejaVuSans-29"/>
     </defs>
     <g transform="translate(14.798438 248.130625)rotate(-90)scale(0.1 -0.1)">
      <use xlink:href="#DejaVuSans-63"/>
      <use x="54.980469" xlink:href="#DejaVuSans-75"/>
      <use x="118.359375" xlink:href="#DejaVuSans-6d"/>
      <use x="215.771484" xlink:href="#DejaVuSans-75"/>
      <use x="279.150391" xlink:href="#DejaVuSans-6c"/>
      <use x="306.933594" xlink:href="#DejaVuSans-61"/>
      <use x="368.212891" xlink:href="#DejaVuSans-74"/>
      <use x="407.421875" xlink:href="#DejaVuSans-69"/>
      <use x="435.205078" xlink:href="#DejaVuSans-76"/>
      <use x="494.384766" xlink:href="#DejaVuSans-65"/>
      <use x="555.908203" xlink:href="#DejaVuSans-20"/>
      <use x="587.695312" xlink:href="#DejaVuSans-76"/>
      <use x="646.875" xlink:href="#DejaVuSans-61"/>
      <use x="708.154297" xlink:href="#DejaVuSans-72"/>
      <use x="749.267578" xlink:href="#DejaVuSans-69"/>
      <use x="777.050781" xlink:href="#DejaVuSans-61"/>
      <use x="838.330078" xlink:href="#DejaVuSans-6e"/>
      <use x="901.708984" xlink:href="#DejaVuSans-63"/>
      <use x="956.689453" xlink:href="#DejaVuSans-65"/>
      <use x="1018.212891" xlink:href="#DejaVuSans-20"/>
      <use x="1050" xlink:href="#DejaVuSans-65"/>
      <use x="1111.507812" xlink:href="#DejaVuSans-78"/>
      <use x="1170.6875" xlink:href="#DejaVuSans-70"/>
      <use x="1234.164062" xlink:href="#DejaVuSans-6c"/>
      <use x="1261.947266" xlink:href="#DejaVuSans-61"/>
      <use x="1323.226562" xlink:href="#DejaVuSans-69"/>
      <use x="1351.009766" xlink:href="#DejaVuSans-6e"/>
      <use x="1414.388672" xlink:href="#DejaVuSans-65"/>
      <use x="1475.912109" xlink:href="#DejaVuSans-64"/>
      <use x="1539.388672" xlink:href="#DejaVuSans-20"/>
      <use x="1571.175781" xlink:href="#DejaVuSans-28"/>
      <use x="1610.189453" xlink:href="#DejaVuSans-25"/>
      <use x="1705.208984" xlink:href="#DejaVuSans-29"/>
     </g>
    </g>
   </g>
   <g id="line2d_5">
    <path clip-path="url(#p142a22a52b)" d="M 31.905793 286.918125 
L 33.0666 261.635295 
L 34.227407 242.053436 
L 35.388214 232.027637 
L 36.549022 223.891987 
L 38.870636 212.189874 
L 40.031443 208.421016 
L 43.513865 198.696012 
L 46.996286 190.584459 
L 50.478707 183.226448 
L 53.961129 176.391712 
L 57.44355 169.991408 
L 63.247586 160.03007 
L 67.890815 152.589385 
L 72.534043 145.5507 
L 78.338079 137.217644 
L 84.142115 129.394578 
L 88.785344 123.553151 
L 94.589379 116.611002 
L 100.393415 110.117043 
L 106.197451 104.028894 
L 110.84068 99.413849 
L 116.644715 93.980565 
L 122.448751 88.866872 
L 128.252787 84.05139 
L 134.056823 79.551652 
L 141.021666 74.546031 
L 146.825701 70.649658 
L 152.629737 66.955194 
L 159.59458 62.834162 
L 165.398616 59.670563 
L 171.202652 56.749316 
L 178.167495 53.521472 
L 185.132338 50.554217 
L 192.097181 47.884303 
L 199.062023 45.457208 
L 204.866059 43.631615 
L 211.830902 41.676682 
L 218.795745 39.913793 
L 225.760588 38.397703 
L 233.886238 36.872758 
L 240.851081 35.786005 
L 247.815924 34.918125 
L 252.459153 34.918125 
L 252.459153 34.918125 
" style="fill:none;stroke:#800080;stroke-linecap:square;stroke-width:2.5;"/>
   </g>
   <g id="line2d_6">
    <path clip-path="url(#p142a22a52b)" d="M 20.878125 160.918125 
L 263.486821 160.918125 
" style="fill:none;stroke:#d3d3d3;stroke-linecap:square;stroke-width:0.25;"/>
   </g>
   <g id="line2d_7">
    <path clip-path="url(#p142a22a52b)" d="M 63.247586 299.518125 
L 63.247586 22.318125 
" style="fill:none;stroke:#1f77b4;stroke-dasharray:2,3.3;stroke-dashoffset:0;stroke-width:2;"/>
   </g>
   <g id="line2d_8">
    <path clip-path="url(#p142a22a52b)" d="M 20.878125 110.518125 
L 263.486821 110.518125 
" style="fill:none;stroke:#d3d3d3;stroke-linecap:square;stroke-width:0.25;"/>
   </g>
   <g id="line2d_9">
    <path clip-path="url(#p142a22a52b)" d="M 100.393415 299.518125 
L 100.393415 22.318125 
" style="fill:none;stroke:#ff7f0e;stroke-dasharray:2,3.3;stroke-dashoffset:0;stroke-width:2;"/>
   </g>
   <g id="line2d_10">
    <path clip-path="url(#p142a22a52b)" d="M 20.878125 60.118125 
L 263.486821 60.118125 
" style="fill:none;stroke:#d3d3d3;stroke-linecap:square;stroke-width:0.25;"/>
   </g>
   <g id="line2d_11">
    <path clip-path="url(#p142a22a52b)" d="M 165.398616 299.518125 
L 165.398616 22.318125 
" style="fill:none;stroke:#2ca02c;stroke-dasharray:2,3.3;stroke-dashoffset:0;stroke-width:2;"/>
   </g>
   <g id="patch_3">
    <path d="M 20.878125 299.518125 
L 263.486821 299.518125 
" style="fill:none;stroke:#000000;stroke-linecap:square;stroke-linejoin:miter;stroke-width:0.8;"/>
   </g>
   <g id="text_7">
    <g id="patch_4">
     <path d="M 31.905793 164.443428 
L 40.736943 164.443428 
Q 42.818943 164.443428 42.818943 162.361428 
L 42.818943 155.644809 
Q 42.818943 153.562809 40.736943 153.562809 
L 31.905793 153.562809 
Q 29.823793 153.562809 29.823793 155.644809 
L 29.823793 162.361428 
Q 29.823793 164.443428 31.905793 164.443428 
z
" style="fill:#ffffff;opacity:0.8;"/>
    </g>
    <!-- 50 -->
    <g transform="translate(31.905793 160.918125)scale(0.0694 -0.0694)">
     <use xlink:href="#DejaVuSans-35"/>
     <use x="63.623047" xlink:href="#DejaVuSans-30"/>
    </g>
   </g>
   <g id="text_8">
    <g id="patch_5">
     <path d="M 71.02817 280.95451 
L 71.02817 213.035096 
Q 71.02817 211.298096 69.29117 211.298096 
L 57.204002 211.298096 
Q 55.467002 211.298096 55.467002 213.035096 
L 55.467002 280.95451 
Q 55.467002 282.69151 57.204002 282.69151 
L 69.29117 282.69151 
Q 71.02817 282.69151 71.02817 280.95451 
z
" style="fill:#ffffff;opacity:0.8;"/>
    </g>
    <!-- 27 components explain -->
    <defs>
     <path d="M 19.1875 8.296875 
L 53.609375 8.296875 
L 53.609375 0 
L 7.328125 0 
L 7.328125 8.296875 
Q 12.9375 14.109375 22.625 23.890625 
Q 32.328125 33.6875 34.8125 36.53125 
Q 39.546875 41.84375 41.421875 45.53125 
Q 43.3125 49.21875 43.3125 52.78125 
Q 43.3125 58.59375 39.234375 62.25 
Q 35.15625 65.921875 28.609375 65.921875 
Q 23.96875 65.921875 18.8125 64.3125 
Q 13.671875 62.703125 7.8125 59.421875 
L 7.8125 69.390625 
Q 13.765625 71.78125 18.9375 73 
Q 24.125 74.21875 28.421875 74.21875 
Q 39.75 74.21875 46.484375 68.546875 
Q 53.21875 62.890625 53.21875 53.421875 
Q 53.21875 48.921875 51.53125 44.890625 
Q 49.859375 40.875 45.40625 35.40625 
Q 44.1875 33.984375 37.640625 27.21875 
Q 31.109375 20.453125 19.1875 8.296875 
z
" id="DejaVuSans-32"/>
     <path d="M 8.203125 72.90625 
L 55.078125 72.90625 
L 55.078125 68.703125 
L 28.609375 0 
L 18.3125 0 
L 43.21875 64.59375 
L 8.203125 64.59375 
z
" id="DejaVuSans-37"/>
    </defs>
    <g transform="translate(61.603498 280.95451)rotate(-90)scale(0.0579 -0.0579)">
     <use xlink:href="#DejaVuSans-32"/>
     <use x="63.623047" xlink:href="#DejaVuSans-37"/>
     <use x="127.246094" xlink:href="#DejaVuSans-20"/>
     <use x="159.033203" xlink:href="#DejaVuSans-63"/>
     <use x="214.013672" xlink:href="#DejaVuSans-6f"/>
     <use x="275.195312" xlink:href="#DejaVuSans-6d"/>
     <use x="372.607422" xlink:href="#DejaVuSans-70"/>
     <use x="436.083984" xlink:href="#DejaVuSans-6f"/>
     <use x="497.265625" xlink:href="#DejaVuSans-6e"/>
     <use x="560.644531" xlink:href="#DejaVuSans-65"/>
     <use x="622.167969" xlink:href="#DejaVuSans-6e"/>
     <use x="685.546875" xlink:href="#DejaVuSans-74"/>
     <use x="724.755859" xlink:href="#DejaVuSans-73"/>
     <use x="776.855469" xlink:href="#DejaVuSans-20"/>
     <use x="808.642578" xlink:href="#DejaVuSans-65"/>
     <use x="870.150391" xlink:href="#DejaVuSans-78"/>
     <use x="929.330078" xlink:href="#DejaVuSans-70"/>
     <use x="992.806641" xlink:href="#DejaVuSans-6c"/>
     <use x="1020.589844" xlink:href="#DejaVuSans-61"/>
     <use x="1081.869141" xlink:href="#DejaVuSans-69"/>
     <use x="1109.652344" xlink:href="#DejaVuSans-6e"/>
    </g>
    <!-- 50% of variance -->
    <g transform="translate(68.087031 270.523916)rotate(-90)scale(0.0579 -0.0579)">
     <use xlink:href="#DejaVuSans-35"/>
     <use x="63.623047" xlink:href="#DejaVuSans-30"/>
     <use x="127.246094" xlink:href="#DejaVuSans-25"/>
     <use x="222.265625" xlink:href="#DejaVuSans-20"/>
     <use x="254.052734" xlink:href="#DejaVuSans-6f"/>
     <use x="315.234375" xlink:href="#DejaVuSans-66"/>
     <use x="350.439453" xlink:href="#DejaVuSans-20"/>
     <use x="382.226562" xlink:href="#DejaVuSans-76"/>
     <use x="441.40625" xlink:href="#DejaVuSans-61"/>
     <use x="502.685547" xlink:href="#DejaVuSans-72"/>
     <use x="543.798828" xlink:href="#DejaVuSans-69"/>
     <use x="571.582031" xlink:href="#DejaVuSans-61"/>
     <use x="632.861328" xlink:href="#DejaVuSans-6e"/>
     <use x="696.240234" xlink:href="#DejaVuSans-63"/>
     <use x="751.220703" xlink:href="#DejaVuSans-65"/>
    </g>
   </g>
   <g id="text_9">
    <g id="patch_6">
     <path d="M 31.905793 114.043428 
L 40.736943 114.043428 
Q 42.818943 114.043428 42.818943 111.961428 
L 42.818943 105.244809 
Q 42.818943 103.162809 40.736943 103.162809 
L 31.905793 103.162809 
Q 29.823793 103.162809 29.823793 105.244809 
L 29.823793 111.961428 
Q 29.823793 114.043428 31.905793 114.043428 
z
" style="fill:#ffffff;opacity:0.8;"/>
    </g>
    <!-- 70 -->
    <g transform="translate(31.905793 110.518125)scale(0.0694 -0.0694)">
     <use xlink:href="#DejaVuSans-37"/>
     <use x="63.623047" xlink:href="#DejaVuSans-30"/>
    </g>
   </g>
   <g id="text_10">
    <g id="patch_7">
     <path d="M 108.173999 280.95451 
L 108.173999 213.035096 
Q 108.173999 211.298096 106.436999 211.298096 
L 94.349831 211.298096 
Q 92.612831 211.298096 92.612831 213.035096 
L 92.612831 280.95451 
Q 92.612831 282.69151 94.349831 282.69151 
L 106.436999 282.69151 
Q 108.173999 282.69151 108.173999 280.95451 
z
" style="fill:#ffffff;opacity:0.8;"/>
    </g>
    <!-- 59 components explain -->
    <defs>
     <path d="M 10.984375 1.515625 
L 10.984375 10.5 
Q 14.703125 8.734375 18.5 7.8125 
Q 22.3125 6.890625 25.984375 6.890625 
Q 35.75 6.890625 40.890625 13.453125 
Q 46.046875 20.015625 46.78125 33.40625 
Q 43.953125 29.203125 39.59375 26.953125 
Q 35.25 24.703125 29.984375 24.703125 
Q 19.046875 24.703125 12.671875 31.3125 
Q 6.296875 37.9375 6.296875 49.421875 
Q 6.296875 60.640625 12.9375 67.421875 
Q 19.578125 74.21875 30.609375 74.21875 
Q 43.265625 74.21875 49.921875 64.515625 
Q 56.59375 54.828125 56.59375 36.375 
Q 56.59375 19.140625 48.40625 8.859375 
Q 40.234375 -1.421875 26.421875 -1.421875 
Q 22.703125 -1.421875 18.890625 -0.6875 
Q 15.09375 0.046875 10.984375 1.515625 
z
M 30.609375 32.421875 
Q 37.25 32.421875 41.125 36.953125 
Q 45.015625 41.5 45.015625 49.421875 
Q 45.015625 57.28125 41.125 61.84375 
Q 37.25 66.40625 30.609375 66.40625 
Q 23.96875 66.40625 20.09375 61.84375 
Q 16.21875 57.28125 16.21875 49.421875 
Q 16.21875 41.5 20.09375 36.953125 
Q 23.96875 32.421875 30.609375 32.421875 
z
" id="DejaVuSans-39"/>
    </defs>
    <g transform="translate(98.749327 280.95451)rotate(-90)scale(0.0579 -0.0579)">
     <use xlink:href="#DejaVuSans-35"/>
     <use x="63.623047" xlink:href="#DejaVuSans-39"/>
     <use x="127.246094" xlink:href="#DejaVuSans-20"/>
     <use x="159.033203" xlink:href="#DejaVuSans-63"/>
     <use x="214.013672" xlink:href="#DejaVuSans-6f"/>
     <use x="275.195312" xlink:href="#DejaVuSans-6d"/>
     <use x="372.607422" xlink:href="#DejaVuSans-70"/>
     <use x="436.083984" xlink:href="#DejaVuSans-6f"/>
     <use x="497.265625" xlink:href="#DejaVuSans-6e"/>
     <use x="560.644531" xlink:href="#DejaVuSans-65"/>
     <use x="622.167969" xlink:href="#DejaVuSans-6e"/>
     <use x="685.546875" xlink:href="#DejaVuSans-74"/>
     <use x="724.755859" xlink:href="#DejaVuSans-73"/>
     <use x="776.855469" xlink:href="#DejaVuSans-20"/>
     <use x="808.642578" xlink:href="#DejaVuSans-65"/>
     <use x="870.150391" xlink:href="#DejaVuSans-78"/>
     <use x="929.330078" xlink:href="#DejaVuSans-70"/>
     <use x="992.806641" xlink:href="#DejaVuSans-6c"/>
     <use x="1020.589844" xlink:href="#DejaVuSans-61"/>
     <use x="1081.869141" xlink:href="#DejaVuSans-69"/>
     <use x="1109.652344" xlink:href="#DejaVuSans-6e"/>
    </g>
    <!-- 70% of variance -->
    <g transform="translate(105.23286 270.523916)rotate(-90)scale(0.0579 -0.0579)">
     <use xlink:href="#DejaVuSans-37"/>
     <use x="63.623047" xlink:href="#DejaVuSans-30"/>
     <use x="127.246094" xlink:href="#DejaVuSans-25"/>
     <use x="222.265625" xlink:href="#DejaVuSans-20"/>
     <use x="254.052734" xlink:href="#DejaVuSans-6f"/>
     <use x="315.234375" xlink:href="#DejaVuSans-66"/>
     <use x="350.439453" xlink:href="#DejaVuSans-20"/>
     <use x="382.226562" xlink:href="#DejaVuSans-76"/>
     <use x="441.40625" xlink:href="#DejaVuSans-61"/>
     <use x="502.685547" xlink:href="#DejaVuSans-72"/>
     <use x="543.798828" xlink:href="#DejaVuSans-69"/>
     <use x="571.582031" xlink:href="#DejaVuSans-61"/>
     <use x="632.861328" xlink:href="#DejaVuSans-6e"/>
     <use x="696.240234" xlink:href="#DejaVuSans-63"/>
     <use x="751.220703" xlink:href="#DejaVuSans-65"/>
    </g>
   </g>
   <g id="text_11">
    <g id="patch_8">
     <path d="M 31.905793 63.643428 
L 40.736943 63.643428 
Q 42.818943 63.643428 42.818943 61.561428 
L 42.818943 54.844809 
Q 42.818943 52.762809 40.736943 52.762809 
L 31.905793 52.762809 
Q 29.823793 52.762809 29.823793 54.844809 
L 29.823793 61.561428 
Q 29.823793 63.643428 31.905793 63.643428 
z
" style="fill:#ffffff;opacity:0.8;"/>
    </g>
    <!-- 90 -->
    <g transform="translate(31.905793 60.118125)scale(0.0694 -0.0694)">
     <use xlink:href="#DejaVuSans-39"/>
     <use x="63.623047" xlink:href="#DejaVuSans-30"/>
    </g>
   </g>
   <g id="text_12">
    <g id="patch_9">
     <path d="M 173.1792 284.638398 
L 173.1792 213.035096 
Q 173.1792 211.298096 171.4422 211.298096 
L 159.355032 211.298096 
Q 157.618032 211.298096 157.618032 213.035096 
L 157.618032 284.638398 
Q 157.618032 286.375398 159.355032 286.375398 
L 171.4422 286.375398 
Q 173.1792 286.375398 173.1792 284.638398 
z
" style="fill:#ffffff;opacity:0.8;"/>
    </g>
    <!-- 115 components explain -->
    <g transform="translate(163.754527 284.638398)rotate(-90)scale(0.0579 -0.0579)">
     <use xlink:href="#DejaVuSans-31"/>
     <use x="63.623047" xlink:href="#DejaVuSans-31"/>
     <use x="127.246094" xlink:href="#DejaVuSans-35"/>
     <use x="190.869141" xlink:href="#DejaVuSans-20"/>
     <use x="222.65625" xlink:href="#DejaVuSans-63"/>
     <use x="277.636719" xlink:href="#DejaVuSans-6f"/>
     <use x="338.818359" xlink:href="#DejaVuSans-6d"/>
     <use x="436.230469" xlink:href="#DejaVuSans-70"/>
     <use x="499.707031" xlink:href="#DejaVuSans-6f"/>
     <use x="560.888672" xlink:href="#DejaVuSans-6e"/>
     <use x="624.267578" xlink:href="#DejaVuSans-65"/>
     <use x="685.791016" xlink:href="#DejaVuSans-6e"/>
     <use x="749.169922" xlink:href="#DejaVuSans-74"/>
     <use x="788.378906" xlink:href="#DejaVuSans-73"/>
     <use x="840.478516" xlink:href="#DejaVuSans-20"/>
     <use x="872.265625" xlink:href="#DejaVuSans-65"/>
     <use x="933.773438" xlink:href="#DejaVuSans-78"/>
     <use x="992.953125" xlink:href="#DejaVuSans-70"/>
     <use x="1056.429688" xlink:href="#DejaVuSans-6c"/>
     <use x="1084.212891" xlink:href="#DejaVuSans-61"/>
     <use x="1145.492188" xlink:href="#DejaVuSans-69"/>
     <use x="1173.275391" xlink:href="#DejaVuSans-6e"/>
    </g>
    <!-- 90% of variance -->
    <g transform="translate(170.238061 272.36586)rotate(-90)scale(0.0579 -0.0579)">
     <use xlink:href="#DejaVuSans-39"/>
     <use x="63.623047" xlink:href="#DejaVuSans-30"/>
     <use x="127.246094" xlink:href="#DejaVuSans-25"/>
     <use x="222.265625" xlink:href="#DejaVuSans-20"/>
     <use x="254.052734" xlink:href="#DejaVuSans-6f"/>
     <use x="315.234375" xlink:href="#DejaVuSans-66"/>
     <use x="350.439453" xlink:href="#DejaVuSans-20"/>
     <use x="382.226562" xlink:href="#DejaVuSans-76"/>
     <use x="441.40625" xlink:href="#DejaVuSans-61"/>
     <use x="502.685547" xlink:href="#DejaVuSans-72"/>
     <use x="543.798828" xlink:href="#DejaVuSans-69"/>
     <use x="571.582031" xlink:href="#DejaVuSans-61"/>
     <use x="632.861328" xlink:href="#DejaVuSans-6e"/>
     <use x="696.240234" xlink:href="#DejaVuSans-63"/>
     <use x="751.220703" xlink:href="#DejaVuSans-65"/>
    </g>
   </g>
   <g id="text_13">
    <!-- aCompCor (CSF mask) -->
    <defs>
     <path d="M 64.40625 67.28125 
L 64.40625 56.890625 
Q 59.421875 61.53125 53.78125 63.8125 
Q 48.140625 66.109375 41.796875 66.109375 
Q 29.296875 66.109375 22.65625 58.46875 
Q 16.015625 50.828125 16.015625 36.375 
Q 16.015625 21.96875 22.65625 14.328125 
Q 29.296875 6.6875 41.796875 6.6875 
Q 48.140625 6.6875 53.78125 8.984375 
Q 59.421875 11.28125 64.40625 15.921875 
L 64.40625 5.609375 
Q 59.234375 2.09375 53.4375 0.328125 
Q 47.65625 -1.421875 41.21875 -1.421875 
Q 24.65625 -1.421875 15.125 8.703125 
Q 5.609375 18.84375 5.609375 36.375 
Q 5.609375 53.953125 15.125 64.078125 
Q 24.65625 74.21875 41.21875 74.21875 
Q 47.75 74.21875 53.53125 72.484375 
Q 59.328125 70.75 64.40625 67.28125 
z
" id="DejaVuSans-43"/>
     <path d="M 53.515625 70.515625 
L 53.515625 60.890625 
Q 47.90625 63.578125 42.921875 64.890625 
Q 37.9375 66.21875 33.296875 66.21875 
Q 25.25 66.21875 20.875 63.09375 
Q 16.5 59.96875 16.5 54.203125 
Q 16.5 49.359375 19.40625 46.890625 
Q 22.3125 44.4375 30.421875 42.921875 
L 36.375 41.703125 
Q 47.40625 39.59375 52.65625 34.296875 
Q 57.90625 29 57.90625 20.125 
Q 57.90625 9.515625 50.796875 4.046875 
Q 43.703125 -1.421875 29.984375 -1.421875 
Q 24.8125 -1.421875 18.96875 -0.25 
Q 13.140625 0.921875 6.890625 3.21875 
L 6.890625 13.375 
Q 12.890625 10.015625 18.65625 8.296875 
Q 24.421875 6.59375 29.984375 6.59375 
Q 38.421875 6.59375 43.015625 9.90625 
Q 47.609375 13.234375 47.609375 19.390625 
Q 47.609375 24.75 44.3125 27.78125 
Q 41.015625 30.8125 33.5 32.328125 
L 27.484375 33.5 
Q 16.453125 35.6875 11.515625 40.375 
Q 6.59375 45.0625 6.59375 53.421875 
Q 6.59375 63.09375 13.40625 68.65625 
Q 20.21875 74.21875 32.171875 74.21875 
Q 37.3125 74.21875 42.625 73.28125 
Q 47.953125 72.359375 53.515625 70.515625 
z
" id="DejaVuSans-53"/>
     <path d="M 9.8125 72.90625 
L 51.703125 72.90625 
L 51.703125 64.59375 
L 19.671875 64.59375 
L 19.671875 43.109375 
L 48.578125 43.109375 
L 48.578125 34.8125 
L 19.671875 34.8125 
L 19.671875 0 
L 9.8125 0 
z
" id="DejaVuSans-46"/>
     <path d="M 9.078125 75.984375 
L 18.109375 75.984375 
L 18.109375 31.109375 
L 44.921875 54.6875 
L 56.390625 54.6875 
L 27.390625 29.109375 
L 57.625 0 
L 45.90625 0 
L 18.109375 26.703125 
L 18.109375 0 
L 9.078125 0 
z
" id="DejaVuSans-6b"/>
    </defs>
    <g transform="translate(74.59716 16.318125)scale(0.12 -0.12)">
     <use xlink:href="#DejaVuSans-61"/>
     <use x="61.279297" xlink:href="#DejaVuSans-43"/>
     <use x="131.103516" xlink:href="#DejaVuSans-6f"/>
     <use x="192.285156" xlink:href="#DejaVuSans-6d"/>
     <use x="289.697266" xlink:href="#DejaVuSans-70"/>
     <use x="353.173828" xlink:href="#DejaVuSans-43"/>
     <use x="422.998047" xlink:href="#DejaVuSans-6f"/>
     <use x="484.179688" xlink:href="#DejaVuSans-72"/>
     <use x="525.292969" xlink:href="#DejaVuSans-20"/>
     <use x="557.080078" xlink:href="#DejaVuSans-28"/>
     <use x="596.09375" xlink:href="#DejaVuSans-43"/>
     <use x="665.917969" xlink:href="#DejaVuSans-53"/>
     <use x="729.394531" xlink:href="#DejaVuSans-46"/>
     <use x="786.914062" xlink:href="#DejaVuSans-20"/>
     <use x="818.701172" xlink:href="#DejaVuSans-6d"/>
     <use x="916.113281" xlink:href="#DejaVuSans-61"/>
     <use x="977.392578" xlink:href="#DejaVuSans-73"/>
     <use x="1029.492188" xlink:href="#DejaVuSans-6b"/>
     <use x="1087.402344" xlink:href="#DejaVuSans-29"/>
    </g>
   </g>
  </g>
  <g id="axes_2">
   <g id="patch_10">
    <path d="M 312.00856 299.518125 
L 554.617255 299.518125 
L 554.617255 22.318125 
L 312.00856 22.318125 
z
" style="fill:#ffffff;"/>
   </g>
   <g id="matplotlib.axis_3">
    <g id="xtick_5">
     <g id="line2d_12">
      <g>
       <use style="stroke:#000000;stroke-width:0.8;" x="323.036228" xlink:href="#m4dc18be86e" y="299.518125"/>
      </g>
     </g>
     <g id="text_14">
      <!-- 0 -->
      <g transform="translate(324.951234 310.9337)rotate(-90)scale(0.0694 -0.0694)">
       <use xlink:href="#DejaVuSans-30"/>
      </g>
     </g>
    </g>
    <g id="xtick_6">
     <g id="line2d_13">
      <g>
       <use style="stroke:#000000;stroke-width:0.8;" x="381.076586" xlink:href="#m4dc18be86e" y="299.518125"/>
      </g>
     </g>
     <g id="text_15">
      <!-- 50 -->
      <g transform="translate(382.991592 315.349275)rotate(-90)scale(0.0694 -0.0694)">
       <use xlink:href="#DejaVuSans-35"/>
       <use x="63.623047" xlink:href="#DejaVuSans-30"/>
      </g>
     </g>
    </g>
    <g id="xtick_7">
     <g id="line2d_14">
      <g>
       <use style="stroke:#000000;stroke-width:0.8;" x="439.116943" xlink:href="#m4dc18be86e" y="299.518125"/>
      </g>
     </g>
     <g id="text_16">
      <!-- 100 -->
      <g transform="translate(441.03195 319.76485)rotate(-90)scale(0.0694 -0.0694)">
       <use xlink:href="#DejaVuSans-31"/>
       <use x="63.623047" xlink:href="#DejaVuSans-30"/>
       <use x="127.246094" xlink:href="#DejaVuSans-30"/>
      </g>
     </g>
    </g>
    <g id="xtick_8">
     <g id="line2d_15">
      <g>
       <use style="stroke:#000000;stroke-width:0.8;" x="497.157301" xlink:href="#m4dc18be86e" y="299.518125"/>
      </g>
     </g>
     <g id="text_17">
      <!-- 150 -->
      <g transform="translate(499.072307 319.76485)rotate(-90)scale(0.0694 -0.0694)">
       <use xlink:href="#DejaVuSans-31"/>
       <use x="63.623047" xlink:href="#DejaVuSans-35"/>
       <use x="127.246094" xlink:href="#DejaVuSans-30"/>
      </g>
     </g>
    </g>
    <g id="text_18">
     <!-- number of components in model -->
     <g transform="translate(351.604314 331.363288)scale(0.1 -0.1)">
      <use xlink:href="#DejaVuSans-6e"/>
      <use x="63.378906" xlink:href="#DejaVuSans-75"/>
      <use x="126.757812" xlink:href="#DejaVuSans-6d"/>
      <use x="224.169922" xlink:href="#DejaVuSans-62"/>
      <use x="287.646484" xlink:href="#DejaVuSans-65"/>
      <use x="349.169922" xlink:href="#DejaVuSans-72"/>
      <use x="390.283203" xlink:href="#DejaVuSans-20"/>
      <use x="422.070312" xlink:href="#DejaVuSans-6f"/>
      <use x="483.251953" xlink:href="#DejaVuSans-66"/>
      <use x="518.457031" xlink:href="#DejaVuSans-20"/>
      <use x="550.244141" xlink:href="#DejaVuSans-63"/>
      <use x="605.224609" xlink:href="#DejaVuSans-6f"/>
      <use x="666.40625" xlink:href="#DejaVuSans-6d"/>
      <use x="763.818359" xlink:href="#DejaVuSans-70"/>
      <use x="827.294922" xlink:href="#DejaVuSans-6f"/>
      <use x="888.476562" xlink:href="#DejaVuSans-6e"/>
      <use x="951.855469" xlink:href="#DejaVuSans-65"/>
      <use x="1013.378906" xlink:href="#DejaVuSans-6e"/>
      <use x="1076.757812" xlink:href="#DejaVuSans-74"/>
      <use x="1115.966797" xlink:href="#DejaVuSans-73"/>
      <use x="1168.066406" xlink:href="#DejaVuSans-20"/>
      <use x="1199.853516" xlink:href="#DejaVuSans-69"/>
      <use x="1227.636719" xlink:href="#DejaVuSans-6e"/>
      <use x="1291.015625" xlink:href="#DejaVuSans-20"/>
      <use x="1322.802734" xlink:href="#DejaVuSans-6d"/>
      <use x="1420.214844" xlink:href="#DejaVuSans-6f"/>
      <use x="1481.396484" xlink:href="#DejaVuSans-64"/>
      <use x="1544.873047" xlink:href="#DejaVuSans-65"/>
      <use x="1606.396484" xlink:href="#DejaVuSans-6c"/>
     </g>
    </g>
   </g>
   <g id="matplotlib.axis_4">
    <g id="text_19">
     <!-- cumulative variance explained (%) -->
     <g transform="translate(305.928872 248.130625)rotate(-90)scale(0.1 -0.1)">
      <use xlink:href="#DejaVuSans-63"/>
      <use x="54.980469" xlink:href="#DejaVuSans-75"/>
      <use x="118.359375" xlink:href="#DejaVuSans-6d"/>
      <use x="215.771484" xlink:href="#DejaVuSans-75"/>
      <use x="279.150391" xlink:href="#DejaVuSans-6c"/>
      <use x="306.933594" xlink:href="#DejaVuSans-61"/>
      <use x="368.212891" xlink:href="#DejaVuSans-74"/>
      <use x="407.421875" xlink:href="#DejaVuSans-69"/>
      <use x="435.205078" xlink:href="#DejaVuSans-76"/>
      <use x="494.384766" xlink:href="#DejaVuSans-65"/>
      <use x="555.908203" xlink:href="#DejaVuSans-20"/>
      <use x="587.695312" xlink:href="#DejaVuSans-76"/>
      <use x="646.875" xlink:href="#DejaVuSans-61"/>
      <use x="708.154297" xlink:href="#DejaVuSans-72"/>
      <use x="749.267578" xlink:href="#DejaVuSans-69"/>
      <use x="777.050781" xlink:href="#DejaVuSans-61"/>
      <use x="838.330078" xlink:href="#DejaVuSans-6e"/>
      <use x="901.708984" xlink:href="#DejaVuSans-63"/>
      <use x="956.689453" xlink:href="#DejaVuSans-65"/>
      <use x="1018.212891" xlink:href="#DejaVuSans-20"/>
      <use x="1050" xlink:href="#DejaVuSans-65"/>
      <use x="1111.507812" xlink:href="#DejaVuSans-78"/>
      <use x="1170.6875" xlink:href="#DejaVuSans-70"/>
      <use x="1234.164062" xlink:href="#DejaVuSans-6c"/>
      <use x="1261.947266" xlink:href="#DejaVuSans-61"/>
      <use x="1323.226562" xlink:href="#DejaVuSans-69"/>
      <use x="1351.009766" xlink:href="#DejaVuSans-6e"/>
      <use x="1414.388672" xlink:href="#DejaVuSans-65"/>
      <use x="1475.912109" xlink:href="#DejaVuSans-64"/>
      <use x="1539.388672" xlink:href="#DejaVuSans-20"/>
      <use x="1571.175781" xlink:href="#DejaVuSans-28"/>
      <use x="1610.189453" xlink:href="#DejaVuSans-25"/>
      <use x="1705.208984" xlink:href="#DejaVuSans-29"/>
     </g>
    </g>
   </g>
   <g id="line2d_16">
    <path clip-path="url(#p6828879f73)" d="M 323.036228 286.918125 
L 326.518649 279.311918 
L 328.840264 275.023534 
L 334.644299 266.271157 
L 341.609142 256.205908 
L 350.8956 243.228933 
L 361.342864 229.068428 
L 371.790128 215.30848 
L 382.237393 201.917898 
L 393.845464 187.423502 
L 406.614343 171.870435 
L 418.222415 158.098401 
L 430.991293 143.314889 
L 442.599365 130.224472 
L 454.207436 117.444542 
L 465.815508 104.99962 
L 477.42358 92.877886 
L 489.031651 81.083806 
L 500.639723 69.634628 
L 512.247794 58.514135 
L 522.695059 48.833346 
L 531.981516 40.527074 
L 537.785552 35.644402 
L 538.946359 34.918125 
L 543.589587 34.918125 
L 543.589587 34.918125 
" style="fill:none;stroke:#800080;stroke-linecap:square;stroke-width:2.5;"/>
   </g>
   <g id="line2d_17">
    <path clip-path="url(#p6828879f73)" d="M 312.00856 160.918125 
L 554.617255 160.918125 
" style="fill:none;stroke:#d3d3d3;stroke-linecap:square;stroke-width:0.25;"/>
   </g>
   <g id="line2d_18">
    <path clip-path="url(#p6828879f73)" d="M 415.9008 299.518125 
L 415.9008 22.318125 
" style="fill:none;stroke:#1f77b4;stroke-dasharray:2,3.3;stroke-dashoffset:0;stroke-width:2;"/>
   </g>
   <g id="line2d_19">
    <path clip-path="url(#p6828879f73)" d="M 312.00856 110.518125 
L 554.617255 110.518125 
" style="fill:none;stroke:#d3d3d3;stroke-linecap:square;stroke-width:0.25;"/>
   </g>
   <g id="line2d_20">
    <path clip-path="url(#p6828879f73)" d="M 461.172279 299.518125 
L 461.172279 22.318125 
" style="fill:none;stroke:#ff7f0e;stroke-dasharray:2,3.3;stroke-dashoffset:0;stroke-width:2;"/>
   </g>
   <g id="line2d_21">
    <path clip-path="url(#p6828879f73)" d="M 312.00856 60.118125 
L 554.617255 60.118125 
" style="fill:none;stroke:#d3d3d3;stroke-linecap:square;stroke-width:0.25;"/>
   </g>
   <g id="line2d_22">
    <path clip-path="url(#p6828879f73)" d="M 511.086987 299.518125 
L 511.086987 22.318125 
" style="fill:none;stroke:#2ca02c;stroke-dasharray:2,3.3;stroke-dashoffset:0;stroke-width:2;"/>
   </g>
   <g id="patch_11">
    <path d="M 312.00856 299.518125 
L 554.617255 299.518125 
" style="fill:none;stroke:#000000;stroke-linecap:square;stroke-linejoin:miter;stroke-width:0.8;"/>
   </g>
   <g id="text_20">
    <g id="patch_12">
     <path d="M 323.036228 164.443428 
L 331.867378 164.443428 
Q 333.949378 164.443428 333.949378 162.361428 
L 333.949378 155.644809 
Q 333.949378 153.562809 331.867378 153.562809 
L 323.036228 153.562809 
Q 320.954228 153.562809 320.954228 155.644809 
L 320.954228 162.361428 
Q 320.954228 164.443428 323.036228 164.443428 
z
" style="fill:#ffffff;opacity:0.8;"/>
    </g>
    <!-- 50 -->
    <g transform="translate(323.036228 160.918125)scale(0.0694 -0.0694)">
     <use xlink:href="#DejaVuSans-35"/>
     <use x="63.623047" xlink:href="#DejaVuSans-30"/>
    </g>
   </g>
   <g id="text_21">
    <g id="patch_13">
     <path d="M 423.681384 280.95451 
L 423.681384 213.035096 
Q 423.681384 211.298096 421.944384 211.298096 
L 409.857216 211.298096 
Q 408.120216 211.298096 408.120216 213.035096 
L 408.120216 280.95451 
Q 408.120216 282.69151 409.857216 282.69151 
L 421.944384 282.69151 
Q 423.681384 282.69151 423.681384 280.95451 
z
" style="fill:#ffffff;opacity:0.8;"/>
    </g>
    <!-- 80 components explain -->
    <defs>
     <path d="M 31.78125 34.625 
Q 24.75 34.625 20.71875 30.859375 
Q 16.703125 27.09375 16.703125 20.515625 
Q 16.703125 13.921875 20.71875 10.15625 
Q 24.75 6.390625 31.78125 6.390625 
Q 38.8125 6.390625 42.859375 10.171875 
Q 46.921875 13.96875 46.921875 20.515625 
Q 46.921875 27.09375 42.890625 30.859375 
Q 38.875 34.625 31.78125 34.625 
z
M 21.921875 38.8125 
Q 15.578125 40.375 12.03125 44.71875 
Q 8.5 49.078125 8.5 55.328125 
Q 8.5 64.0625 14.71875 69.140625 
Q 20.953125 74.21875 31.78125 74.21875 
Q 42.671875 74.21875 48.875 69.140625 
Q 55.078125 64.0625 55.078125 55.328125 
Q 55.078125 49.078125 51.53125 44.71875 
Q 48 40.375 41.703125 38.8125 
Q 48.828125 37.15625 52.796875 32.3125 
Q 56.78125 27.484375 56.78125 20.515625 
Q 56.78125 9.90625 50.3125 4.234375 
Q 43.84375 -1.421875 31.78125 -1.421875 
Q 19.734375 -1.421875 13.25 4.234375 
Q 6.78125 9.90625 6.78125 20.515625 
Q 6.78125 27.484375 10.78125 32.3125 
Q 14.796875 37.15625 21.921875 38.8125 
z
M 18.3125 54.390625 
Q 18.3125 48.734375 21.84375 45.5625 
Q 25.390625 42.390625 31.78125 42.390625 
Q 38.140625 42.390625 41.71875 45.5625 
Q 45.3125 48.734375 45.3125 54.390625 
Q 45.3125 60.0625 41.71875 63.234375 
Q 38.140625 66.40625 31.78125 66.40625 
Q 25.390625 66.40625 21.84375 63.234375 
Q 18.3125 60.0625 18.3125 54.390625 
z
" id="DejaVuSans-38"/>
    </defs>
    <g transform="translate(414.256712 280.95451)rotate(-90)scale(0.0579 -0.0579)">
     <use xlink:href="#DejaVuSans-38"/>
     <use x="63.623047" xlink:href="#DejaVuSans-30"/>
     <use x="127.246094" xlink:href="#DejaVuSans-20"/>
     <use x="159.033203" xlink:href="#DejaVuSans-63"/>
     <use x="214.013672" xlink:href="#DejaVuSans-6f"/>
     <use x="275.195312" xlink:href="#DejaVuSans-6d"/>
     <use x="372.607422" xlink:href="#DejaVuSans-70"/>
     <use x="436.083984" xlink:href="#DejaVuSans-6f"/>
     <use x="497.265625" xlink:href="#DejaVuSans-6e"/>
     <use x="560.644531" xlink:href="#DejaVuSans-65"/>
     <use x="622.167969" xlink:href="#DejaVuSans-6e"/>
     <use x="685.546875" xlink:href="#DejaVuSans-74"/>
     <use x="724.755859" xlink:href="#DejaVuSans-73"/>
     <use x="776.855469" xlink:href="#DejaVuSans-20"/>
     <use x="808.642578" xlink:href="#DejaVuSans-65"/>
     <use x="870.150391" xlink:href="#DejaVuSans-78"/>
     <use x="929.330078" xlink:href="#DejaVuSans-70"/>
     <use x="992.806641" xlink:href="#DejaVuSans-6c"/>
     <use x="1020.589844" xlink:href="#DejaVuSans-61"/>
     <use x="1081.869141" xlink:href="#DejaVuSans-69"/>
     <use x="1109.652344" xlink:href="#DejaVuSans-6e"/>
    </g>
    <!-- 50% of variance -->
    <g transform="translate(420.740245 270.523916)rotate(-90)scale(0.0579 -0.0579)">
     <use xlink:href="#DejaVuSans-35"/>
     <use x="63.623047" xlink:href="#DejaVuSans-30"/>
     <use x="127.246094" xlink:href="#DejaVuSans-25"/>
     <use x="222.265625" xlink:href="#DejaVuSans-20"/>
     <use x="254.052734" xlink:href="#DejaVuSans-6f"/>
     <use x="315.234375" xlink:href="#DejaVuSans-66"/>
     <use x="350.439453" xlink:href="#DejaVuSans-20"/>
     <use x="382.226562" xlink:href="#DejaVuSans-76"/>
     <use x="441.40625" xlink:href="#DejaVuSans-61"/>
     <use x="502.685547" xlink:href="#DejaVuSans-72"/>
     <use x="543.798828" xlink:href="#DejaVuSans-69"/>
     <use x="571.582031" xlink:href="#DejaVuSans-61"/>
     <use x="632.861328" xlink:href="#DejaVuSans-6e"/>
     <use x="696.240234" xlink:href="#DejaVuSans-63"/>
     <use x="751.220703" xlink:href="#DejaVuSans-65"/>
    </g>
   </g>
   <g id="text_22">
    <g id="patch_14">
     <path d="M 323.036228 114.043428 
L 331.867378 114.043428 
Q 333.949378 114.043428 333.949378 111.961428 
L 333.949378 105.244809 
Q 333.949378 103.162809 331.867378 103.162809 
L 323.036228 103.162809 
Q 320.954228 103.162809 320.954228 105.244809 
L 320.954228 111.961428 
Q 320.954228 114.043428 323.036228 114.043428 
z
" style="fill:#ffffff;opacity:0.8;"/>
    </g>
    <!-- 70 -->
    <g transform="translate(323.036228 110.518125)scale(0.0694 -0.0694)">
     <use xlink:href="#DejaVuSans-37"/>
     <use x="63.623047" xlink:href="#DejaVuSans-30"/>
    </g>
   </g>
   <g id="text_23">
    <g id="patch_15">
     <path d="M 468.952863 284.638398 
L 468.952863 213.035096 
Q 468.952863 211.298096 467.215863 211.298096 
L 455.128695 211.298096 
Q 453.391695 211.298096 453.391695 213.035096 
L 453.391695 284.638398 
Q 453.391695 286.375398 455.128695 286.375398 
L 467.215863 286.375398 
Q 468.952863 286.375398 468.952863 284.638398 
z
" style="fill:#ffffff;opacity:0.8;"/>
    </g>
    <!-- 119 components explain -->
    <g transform="translate(459.528191 284.638398)rotate(-90)scale(0.0579 -0.0579)">
     <use xlink:href="#DejaVuSans-31"/>
     <use x="63.623047" xlink:href="#DejaVuSans-31"/>
     <use x="127.246094" xlink:href="#DejaVuSans-39"/>
     <use x="190.869141" xlink:href="#DejaVuSans-20"/>
     <use x="222.65625" xlink:href="#DejaVuSans-63"/>
     <use x="277.636719" xlink:href="#DejaVuSans-6f"/>
     <use x="338.818359" xlink:href="#DejaVuSans-6d"/>
     <use x="436.230469" xlink:href="#DejaVuSans-70"/>
     <use x="499.707031" xlink:href="#DejaVuSans-6f"/>
     <use x="560.888672" xlink:href="#DejaVuSans-6e"/>
     <use x="624.267578" xlink:href="#DejaVuSans-65"/>
     <use x="685.791016" xlink:href="#DejaVuSans-6e"/>
     <use x="749.169922" xlink:href="#DejaVuSans-74"/>
     <use x="788.378906" xlink:href="#DejaVuSans-73"/>
     <use x="840.478516" xlink:href="#DejaVuSans-20"/>
     <use x="872.265625" xlink:href="#DejaVuSans-65"/>
     <use x="933.773438" xlink:href="#DejaVuSans-78"/>
     <use x="992.953125" xlink:href="#DejaVuSans-70"/>
     <use x="1056.429688" xlink:href="#DejaVuSans-6c"/>
     <use x="1084.212891" xlink:href="#DejaVuSans-61"/>
     <use x="1145.492188" xlink:href="#DejaVuSans-69"/>
     <use x="1173.275391" xlink:href="#DejaVuSans-6e"/>
    </g>
    <!-- 70% of variance -->
    <g transform="translate(466.011724 272.36586)rotate(-90)scale(0.0579 -0.0579)">
     <use xlink:href="#DejaVuSans-37"/>
     <use x="63.623047" xlink:href="#DejaVuSans-30"/>
     <use x="127.246094" xlink:href="#DejaVuSans-25"/>
     <use x="222.265625" xlink:href="#DejaVuSans-20"/>
     <use x="254.052734" xlink:href="#DejaVuSans-6f"/>
     <use x="315.234375" xlink:href="#DejaVuSans-66"/>
     <use x="350.439453" xlink:href="#DejaVuSans-20"/>
     <use x="382.226562" xlink:href="#DejaVuSans-76"/>
     <use x="441.40625" xlink:href="#DejaVuSans-61"/>
     <use x="502.685547" xlink:href="#DejaVuSans-72"/>
     <use x="543.798828" xlink:href="#DejaVuSans-69"/>
     <use x="571.582031" xlink:href="#DejaVuSans-61"/>
     <use x="632.861328" xlink:href="#DejaVuSans-6e"/>
     <use x="696.240234" xlink:href="#DejaVuSans-63"/>
     <use x="751.220703" xlink:href="#DejaVuSans-65"/>
    </g>
   </g>
   <g id="text_24">
    <g id="patch_16">
     <path d="M 323.036228 63.643428 
L 331.867378 63.643428 
Q 333.949378 63.643428 333.949378 61.561428 
L 333.949378 54.844809 
Q 333.949378 52.762809 331.867378 52.762809 
L 323.036228 52.762809 
Q 320.954228 52.762809 320.954228 54.844809 
L 320.954228 61.561428 
Q 320.954228 63.643428 323.036228 63.643428 
z
" style="fill:#ffffff;opacity:0.8;"/>
    </g>
    <!-- 90 -->
    <g transform="translate(323.036228 60.118125)scale(0.0694 -0.0694)">
     <use xlink:href="#DejaVuSans-39"/>
     <use x="63.623047" xlink:href="#DejaVuSans-30"/>
    </g>
   </g>
   <g id="text_25">
    <g id="patch_17">
     <path d="M 518.867571 284.638398 
L 518.867571 213.035096 
Q 518.867571 211.298096 517.130571 211.298096 
L 505.043403 211.298096 
Q 503.306403 211.298096 503.306403 213.035096 
L 503.306403 284.638398 
Q 503.306403 286.375398 505.043403 286.375398 
L 517.130571 286.375398 
Q 518.867571 286.375398 518.867571 284.638398 
z
" style="fill:#ffffff;opacity:0.8;"/>
    </g>
    <!-- 162 components explain -->
    <defs>
     <path d="M 33.015625 40.375 
Q 26.375 40.375 22.484375 35.828125 
Q 18.609375 31.296875 18.609375 23.390625 
Q 18.609375 15.53125 22.484375 10.953125 
Q 26.375 6.390625 33.015625 6.390625 
Q 39.65625 6.390625 43.53125 10.953125 
Q 47.40625 15.53125 47.40625 23.390625 
Q 47.40625 31.296875 43.53125 35.828125 
Q 39.65625 40.375 33.015625 40.375 
z
M 52.59375 71.296875 
L 52.59375 62.3125 
Q 48.875 64.0625 45.09375 64.984375 
Q 41.3125 65.921875 37.59375 65.921875 
Q 27.828125 65.921875 22.671875 59.328125 
Q 17.53125 52.734375 16.796875 39.40625 
Q 19.671875 43.65625 24.015625 45.921875 
Q 28.375 48.1875 33.59375 48.1875 
Q 44.578125 48.1875 50.953125 41.515625 
Q 57.328125 34.859375 57.328125 23.390625 
Q 57.328125 12.15625 50.6875 5.359375 
Q 44.046875 -1.421875 33.015625 -1.421875 
Q 20.359375 -1.421875 13.671875 8.265625 
Q 6.984375 17.96875 6.984375 36.375 
Q 6.984375 53.65625 15.1875 63.9375 
Q 23.390625 74.21875 37.203125 74.21875 
Q 40.921875 74.21875 44.703125 73.484375 
Q 48.484375 72.75 52.59375 71.296875 
z
" id="DejaVuSans-36"/>
    </defs>
    <g transform="translate(509.442898 284.638398)rotate(-90)scale(0.0579 -0.0579)">
     <use xlink:href="#DejaVuSans-31"/>
     <use x="63.623047" xlink:href="#DejaVuSans-36"/>
     <use x="127.246094" xlink:href="#DejaVuSans-32"/>
     <use x="190.869141" xlink:href="#DejaVuSans-20"/>
     <use x="222.65625" xlink:href="#DejaVuSans-63"/>
     <use x="277.636719" xlink:href="#DejaVuSans-6f"/>
     <use x="338.818359" xlink:href="#DejaVuSans-6d"/>
     <use x="436.230469" xlink:href="#DejaVuSans-70"/>
     <use x="499.707031" xlink:href="#DejaVuSans-6f"/>
     <use x="560.888672" xlink:href="#DejaVuSans-6e"/>
     <use x="624.267578" xlink:href="#DejaVuSans-65"/>
     <use x="685.791016" xlink:href="#DejaVuSans-6e"/>
     <use x="749.169922" xlink:href="#DejaVuSans-74"/>
     <use x="788.378906" xlink:href="#DejaVuSans-73"/>
     <use x="840.478516" xlink:href="#DejaVuSans-20"/>
     <use x="872.265625" xlink:href="#DejaVuSans-65"/>
     <use x="933.773438" xlink:href="#DejaVuSans-78"/>
     <use x="992.953125" xlink:href="#DejaVuSans-70"/>
     <use x="1056.429688" xlink:href="#DejaVuSans-6c"/>
     <use x="1084.212891" xlink:href="#DejaVuSans-61"/>
     <use x="1145.492188" xlink:href="#DejaVuSans-69"/>
     <use x="1173.275391" xlink:href="#DejaVuSans-6e"/>
    </g>
    <!-- 90% of variance -->
    <g transform="translate(515.926432 272.36586)rotate(-90)scale(0.0579 -0.0579)">
     <use xlink:href="#DejaVuSans-39"/>
     <use x="63.623047" xlink:href="#DejaVuSans-30"/>
     <use x="127.246094" xlink:href="#DejaVuSans-25"/>
     <use x="222.265625" xlink:href="#DejaVuSans-20"/>
     <use x="254.052734" xlink:href="#DejaVuSans-6f"/>
     <use x="315.234375" xlink:href="#DejaVuSans-66"/>
     <use x="350.439453" xlink:href="#DejaVuSans-20"/>
     <use x="382.226562" xlink:href="#DejaVuSans-76"/>
     <use x="441.40625" xlink:href="#DejaVuSans-61"/>
     <use x="502.685547" xlink:href="#DejaVuSans-72"/>
     <use x="543.798828" xlink:href="#DejaVuSans-69"/>
     <use x="571.582031" xlink:href="#DejaVuSans-61"/>
     <use x="632.861328" xlink:href="#DejaVuSans-6e"/>
     <use x="696.240234" xlink:href="#DejaVuSans-63"/>
     <use x="751.220703" xlink:href="#DejaVuSans-65"/>
    </g>
   </g>
   <g id="text_26">
    <!-- aCompCor (WM mask) -->
    <defs>
     <path d="M 3.328125 72.90625 
L 13.28125 72.90625 
L 28.609375 11.28125 
L 43.890625 72.90625 
L 54.984375 72.90625 
L 70.3125 11.28125 
L 85.59375 72.90625 
L 95.609375 72.90625 
L 77.296875 0 
L 64.890625 0 
L 49.515625 63.28125 
L 33.984375 0 
L 21.578125 0 
z
" id="DejaVuSans-57"/>
     <path d="M 9.8125 72.90625 
L 24.515625 72.90625 
L 43.109375 23.296875 
L 61.8125 72.90625 
L 76.515625 72.90625 
L 76.515625 0 
L 66.890625 0 
L 66.890625 64.015625 
L 48.09375 14.015625 
L 38.1875 14.015625 
L 19.390625 64.015625 
L 19.390625 0 
L 9.8125 0 
z
" id="DejaVuSans-4d"/>
    </defs>
    <g transform="translate(366.067908 16.318125)scale(0.12 -0.12)">
     <use xlink:href="#DejaVuSans-61"/>
     <use x="61.279297" xlink:href="#DejaVuSans-43"/>
     <use x="131.103516" xlink:href="#DejaVuSans-6f"/>
     <use x="192.285156" xlink:href="#DejaVuSans-6d"/>
     <use x="289.697266" xlink:href="#DejaVuSans-70"/>
     <use x="353.173828" xlink:href="#DejaVuSans-43"/>
     <use x="422.998047" xlink:href="#DejaVuSans-6f"/>
     <use x="484.179688" xlink:href="#DejaVuSans-72"/>
     <use x="525.292969" xlink:href="#DejaVuSans-20"/>
     <use x="557.080078" xlink:href="#DejaVuSans-28"/>
     <use x="596.09375" xlink:href="#DejaVuSans-57"/>
     <use x="694.970703" xlink:href="#DejaVuSans-4d"/>
     <use x="781.25" xlink:href="#DejaVuSans-20"/>
     <use x="813.037109" xlink:href="#DejaVuSans-6d"/>
     <use x="910.449219" xlink:href="#DejaVuSans-61"/>
     <use x="971.728516" xlink:href="#DejaVuSans-73"/>
     <use x="1023.828125" xlink:href="#DejaVuSans-6b"/>
     <use x="1081.738281" xlink:href="#DejaVuSans-29"/>
    </g>
   </g>
  </g>
  <g id="axes_3">
   <g id="patch_18">
    <path d="M 603.138995 299.518125 
L 845.74769 299.518125 
L 845.74769 22.318125 
L 603.138995 22.318125 
z
" style="fill:#ffffff;"/>
   </g>
   <g id="matplotlib.axis_5">
    <g id="xtick_9">
     <g id="line2d_23">
      <g>
       <use style="stroke:#000000;stroke-width:0.8;" x="614.166663" xlink:href="#m4dc18be86e" y="299.518125"/>
      </g>
     </g>
     <g id="text_27">
      <!-- 0 -->
      <g transform="translate(616.081669 310.9337)rotate(-90)scale(0.0694 -0.0694)">
       <use xlink:href="#DejaVuSans-30"/>
      </g>
     </g>
    </g>
    <g id="xtick_10">
     <g id="line2d_24">
      <g>
       <use style="stroke:#000000;stroke-width:0.8;" x="672.20702" xlink:href="#m4dc18be86e" y="299.518125"/>
      </g>
     </g>
     <g id="text_28">
      <!-- 50 -->
      <g transform="translate(674.122027 315.349275)rotate(-90)scale(0.0694 -0.0694)">
       <use xlink:href="#DejaVuSans-35"/>
       <use x="63.623047" xlink:href="#DejaVuSans-30"/>
      </g>
     </g>
    </g>
    <g id="xtick_11">
     <g id="line2d_25">
      <g>
       <use style="stroke:#000000;stroke-width:0.8;" x="730.247378" xlink:href="#m4dc18be86e" y="299.518125"/>
      </g>
     </g>
     <g id="text_29">
      <!-- 100 -->
      <g transform="translate(732.162384 319.76485)rotate(-90)scale(0.0694 -0.0694)">
       <use xlink:href="#DejaVuSans-31"/>
       <use x="63.623047" xlink:href="#DejaVuSans-30"/>
       <use x="127.246094" xlink:href="#DejaVuSans-30"/>
      </g>
     </g>
    </g>
    <g id="xtick_12">
     <g id="line2d_26">
      <g>
       <use style="stroke:#000000;stroke-width:0.8;" x="788.287736" xlink:href="#m4dc18be86e" y="299.518125"/>
      </g>
     </g>
     <g id="text_30">
      <!-- 150 -->
      <g transform="translate(790.202742 319.76485)rotate(-90)scale(0.0694 -0.0694)">
       <use xlink:href="#DejaVuSans-31"/>
       <use x="63.623047" xlink:href="#DejaVuSans-35"/>
       <use x="127.246094" xlink:href="#DejaVuSans-30"/>
      </g>
     </g>
    </g>
    <g id="text_31">
     <!-- number of components in model -->
     <g transform="translate(642.734749 331.363288)scale(0.1 -0.1)">
      <use xlink:href="#DejaVuSans-6e"/>
      <use x="63.378906" xlink:href="#DejaVuSans-75"/>
      <use x="126.757812" xlink:href="#DejaVuSans-6d"/>
      <use x="224.169922" xlink:href="#DejaVuSans-62"/>
      <use x="287.646484" xlink:href="#DejaVuSans-65"/>
      <use x="349.169922" xlink:href="#DejaVuSans-72"/>
      <use x="390.283203" xlink:href="#DejaVuSans-20"/>
      <use x="422.070312" xlink:href="#DejaVuSans-6f"/>
      <use x="483.251953" xlink:href="#DejaVuSans-66"/>
      <use x="518.457031" xlink:href="#DejaVuSans-20"/>
      <use x="550.244141" xlink:href="#DejaVuSans-63"/>
      <use x="605.224609" xlink:href="#DejaVuSans-6f"/>
      <use x="666.40625" xlink:href="#DejaVuSans-6d"/>
      <use x="763.818359" xlink:href="#DejaVuSans-70"/>
      <use x="827.294922" xlink:href="#DejaVuSans-6f"/>
      <use x="888.476562" xlink:href="#DejaVuSans-6e"/>
      <use x="951.855469" xlink:href="#DejaVuSans-65"/>
      <use x="1013.378906" xlink:href="#DejaVuSans-6e"/>
      <use x="1076.757812" xlink:href="#DejaVuSans-74"/>
      <use x="1115.966797" xlink:href="#DejaVuSans-73"/>
      <use x="1168.066406" xlink:href="#DejaVuSans-20"/>
      <use x="1199.853516" xlink:href="#DejaVuSans-69"/>
      <use x="1227.636719" xlink:href="#DejaVuSans-6e"/>
      <use x="1291.015625" xlink:href="#DejaVuSans-20"/>
      <use x="1322.802734" xlink:href="#DejaVuSans-6d"/>
      <use x="1420.214844" xlink:href="#DejaVuSans-6f"/>
      <use x="1481.396484" xlink:href="#DejaVuSans-64"/>
      <use x="1544.873047" xlink:href="#DejaVuSans-65"/>
      <use x="1606.396484" xlink:href="#DejaVuSans-6c"/>
     </g>
    </g>
   </g>
   <g id="matplotlib.axis_6">
    <g id="text_32">
     <!-- cumulative variance explained (%) -->
     <g transform="translate(597.059307 248.130625)rotate(-90)scale(0.1 -0.1)">
      <use xlink:href="#DejaVuSans-63"/>
      <use x="54.980469" xlink:href="#DejaVuSans-75"/>
      <use x="118.359375" xlink:href="#DejaVuSans-6d"/>
      <use x="215.771484" xlink:href="#DejaVuSans-75"/>
      <use x="279.150391" xlink:href="#DejaVuSans-6c"/>
      <use x="306.933594" xlink:href="#DejaVuSans-61"/>
      <use x="368.212891" xlink:href="#DejaVuSans-74"/>
      <use x="407.421875" xlink:href="#DejaVuSans-69"/>
      <use x="435.205078" xlink:href="#DejaVuSans-76"/>
      <use x="494.384766" xlink:href="#DejaVuSans-65"/>
      <use x="555.908203" xlink:href="#DejaVuSans-20"/>
      <use x="587.695312" xlink:href="#DejaVuSans-76"/>
      <use x="646.875" xlink:href="#DejaVuSans-61"/>
      <use x="708.154297" xlink:href="#DejaVuSans-72"/>
      <use x="749.267578" xlink:href="#DejaVuSans-69"/>
      <use x="777.050781" xlink:href="#DejaVuSans-61"/>
      <use x="838.330078" xlink:href="#DejaVuSans-6e"/>
      <use x="901.708984" xlink:href="#DejaVuSans-63"/>
      <use x="956.689453" xlink:href="#DejaVuSans-65"/>
      <use x="1018.212891" xlink:href="#DejaVuSans-20"/>
      <use x="1050" xlink:href="#DejaVuSans-65"/>
      <use x="1111.507812" xlink:href="#DejaVuSans-78"/>
      <use x="1170.6875" xlink:href="#DejaVuSans-70"/>
      <use x="1234.164062" xlink:href="#DejaVuSans-6c"/>
      <use x="1261.947266" xlink:href="#DejaVuSans-61"/>
      <use x="1323.226562" xlink:href="#DejaVuSans-69"/>
      <use x="1351.009766" xlink:href="#DejaVuSans-6e"/>
      <use x="1414.388672" xlink:href="#DejaVuSans-65"/>
      <use x="1475.912109" xlink:href="#DejaVuSans-64"/>
      <use x="1539.388672" xlink:href="#DejaVuSans-20"/>
      <use x="1571.175781" xlink:href="#DejaVuSans-28"/>
      <use x="1610.189453" xlink:href="#DejaVuSans-25"/>
      <use x="1705.208984" xlink:href="#DejaVuSans-29"/>
     </g>
    </g>
   </g>
   <g id="line2d_27">
    <path clip-path="url(#pa35615ad62)" d="M 614.166663 286.918125 
L 616.488277 281.243543 
L 617.649084 278.744229 
L 619.970698 274.420931 
L 624.613927 267.349841 
L 630.417963 258.889048 
L 639.70442 245.865554 
L 648.990877 233.220331 
L 659.438142 219.401769 
L 669.885406 205.951541 
L 680.33267 192.842007 
L 693.101549 177.208361 
L 704.709621 163.357944 
L 716.317692 149.822567 
L 729.086571 135.310849 
L 741.85545 121.173004 
L 752.302714 109.887001 
L 765.071593 96.447687 
L 776.679664 84.569602 
L 787.126929 74.160676 
L 798.735 62.913585 
L 810.343072 52.033616 
L 819.629529 43.603271 
L 826.594372 37.52275 
L 828.915986 35.643981 
L 830.076794 34.918125 
L 834.720022 34.918125 
L 834.720022 34.918125 
" style="fill:none;stroke:#800080;stroke-linecap:square;stroke-width:2.5;"/>
   </g>
   <g id="line2d_28">
    <path clip-path="url(#pa35615ad62)" d="M 603.138995 160.918125 
L 845.74769 160.918125 
" style="fill:none;stroke:#d3d3d3;stroke-linecap:square;stroke-width:0.25;"/>
   </g>
   <g id="line2d_29">
    <path clip-path="url(#pa35615ad62)" d="M 707.031235 299.518125 
L 707.031235 22.318125 
" style="fill:none;stroke:#1f77b4;stroke-dasharray:2,3.3;stroke-dashoffset:0;stroke-width:2;"/>
   </g>
   <g id="line2d_30">
    <path clip-path="url(#pa35615ad62)" d="M 603.138995 110.518125 
L 845.74769 110.518125 
" style="fill:none;stroke:#d3d3d3;stroke-linecap:square;stroke-width:0.25;"/>
   </g>
   <g id="line2d_31">
    <path clip-path="url(#pa35615ad62)" d="M 752.302714 299.518125 
L 752.302714 22.318125 
" style="fill:none;stroke:#ff7f0e;stroke-dasharray:2,3.3;stroke-dashoffset:0;stroke-width:2;"/>
   </g>
   <g id="line2d_32">
    <path clip-path="url(#pa35615ad62)" d="M 603.138995 60.118125 
L 845.74769 60.118125 
" style="fill:none;stroke:#d3d3d3;stroke-linecap:square;stroke-width:0.25;"/>
   </g>
   <g id="line2d_33">
    <path clip-path="url(#pa35615ad62)" d="M 802.217422 299.518125 
L 802.217422 22.318125 
" style="fill:none;stroke:#2ca02c;stroke-dasharray:2,3.3;stroke-dashoffset:0;stroke-width:2;"/>
   </g>
   <g id="patch_19">
    <path d="M 603.138995 299.518125 
L 845.74769 299.518125 
" style="fill:none;stroke:#000000;stroke-linecap:square;stroke-linejoin:miter;stroke-width:0.8;"/>
   </g>
   <g id="text_33">
    <g id="patch_20">
     <path d="M 614.166663 164.443428 
L 622.997813 164.443428 
Q 625.079813 164.443428 625.079813 162.361428 
L 625.079813 155.644809 
Q 625.079813 153.562809 622.997813 153.562809 
L 614.166663 153.562809 
Q 612.084663 153.562809 612.084663 155.644809 
L 612.084663 162.361428 
Q 612.084663 164.443428 614.166663 164.443428 
z
" style="fill:#ffffff;opacity:0.8;"/>
    </g>
    <!-- 50 -->
    <g transform="translate(614.166663 160.918125)scale(0.0694 -0.0694)">
     <use xlink:href="#DejaVuSans-35"/>
     <use x="63.623047" xlink:href="#DejaVuSans-30"/>
    </g>
   </g>
   <g id="text_34">
    <g id="patch_21">
     <path d="M 714.811819 280.95451 
L 714.811819 213.035096 
Q 714.811819 211.298096 713.074819 211.298096 
L 700.987651 211.298096 
Q 699.250651 211.298096 699.250651 213.035096 
L 699.250651 280.95451 
Q 699.250651 282.69151 700.987651 282.69151 
L 713.074819 282.69151 
Q 714.811819 282.69151 714.811819 280.95451 
z
" style="fill:#ffffff;opacity:0.8;"/>
    </g>
    <!-- 80 components explain -->
    <g transform="translate(705.387146 280.95451)rotate(-90)scale(0.0579 -0.0579)">
     <use xlink:href="#DejaVuSans-38"/>
     <use x="63.623047" xlink:href="#DejaVuSans-30"/>
     <use x="127.246094" xlink:href="#DejaVuSans-20"/>
     <use x="159.033203" xlink:href="#DejaVuSans-63"/>
     <use x="214.013672" xlink:href="#DejaVuSans-6f"/>
     <use x="275.195312" xlink:href="#DejaVuSans-6d"/>
     <use x="372.607422" xlink:href="#DejaVuSans-70"/>
     <use x="436.083984" xlink:href="#DejaVuSans-6f"/>
     <use x="497.265625" xlink:href="#DejaVuSans-6e"/>
     <use x="560.644531" xlink:href="#DejaVuSans-65"/>
     <use x="622.167969" xlink:href="#DejaVuSans-6e"/>
     <use x="685.546875" xlink:href="#DejaVuSans-74"/>
     <use x="724.755859" xlink:href="#DejaVuSans-73"/>
     <use x="776.855469" xlink:href="#DejaVuSans-20"/>
     <use x="808.642578" xlink:href="#DejaVuSans-65"/>
     <use x="870.150391" xlink:href="#DejaVuSans-78"/>
     <use x="929.330078" xlink:href="#DejaVuSans-70"/>
     <use x="992.806641" xlink:href="#DejaVuSans-6c"/>
     <use x="1020.589844" xlink:href="#DejaVuSans-61"/>
     <use x="1081.869141" xlink:href="#DejaVuSans-69"/>
     <use x="1109.652344" xlink:href="#DejaVuSans-6e"/>
    </g>
    <!-- 50% of variance -->
    <g transform="translate(711.87068 270.523916)rotate(-90)scale(0.0579 -0.0579)">
     <use xlink:href="#DejaVuSans-35"/>
     <use x="63.623047" xlink:href="#DejaVuSans-30"/>
     <use x="127.246094" xlink:href="#DejaVuSans-25"/>
     <use x="222.265625" xlink:href="#DejaVuSans-20"/>
     <use x="254.052734" xlink:href="#DejaVuSans-6f"/>
     <use x="315.234375" xlink:href="#DejaVuSans-66"/>
     <use x="350.439453" xlink:href="#DejaVuSans-20"/>
     <use x="382.226562" xlink:href="#DejaVuSans-76"/>
     <use x="441.40625" xlink:href="#DejaVuSans-61"/>
     <use x="502.685547" xlink:href="#DejaVuSans-72"/>
     <use x="543.798828" xlink:href="#DejaVuSans-69"/>
     <use x="571.582031" xlink:href="#DejaVuSans-61"/>
     <use x="632.861328" xlink:href="#DejaVuSans-6e"/>
     <use x="696.240234" xlink:href="#DejaVuSans-63"/>
     <use x="751.220703" xlink:href="#DejaVuSans-65"/>
    </g>
   </g>
   <g id="text_35">
    <g id="patch_22">
     <path d="M 614.166663 114.043428 
L 622.997813 114.043428 
Q 625.079813 114.043428 625.079813 111.961428 
L 625.079813 105.244809 
Q 625.079813 103.162809 622.997813 103.162809 
L 614.166663 103.162809 
Q 612.084663 103.162809 612.084663 105.244809 
L 612.084663 111.961428 
Q 612.084663 114.043428 614.166663 114.043428 
z
" style="fill:#ffffff;opacity:0.8;"/>
    </g>
    <!-- 70 -->
    <g transform="translate(614.166663 110.518125)scale(0.0694 -0.0694)">
     <use xlink:href="#DejaVuSans-37"/>
     <use x="63.623047" xlink:href="#DejaVuSans-30"/>
    </g>
   </g>
   <g id="text_36">
    <g id="patch_23">
     <path d="M 760.083298 284.638398 
L 760.083298 213.035096 
Q 760.083298 211.298096 758.346298 211.298096 
L 746.25913 211.298096 
Q 744.52213 211.298096 744.52213 213.035096 
L 744.52213 284.638398 
Q 744.52213 286.375398 746.25913 286.375398 
L 758.346298 286.375398 
Q 760.083298 286.375398 760.083298 284.638398 
z
" style="fill:#ffffff;opacity:0.8;"/>
    </g>
    <!-- 119 components explain -->
    <g transform="translate(750.658626 284.638398)rotate(-90)scale(0.0579 -0.0579)">
     <use xlink:href="#DejaVuSans-31"/>
     <use x="63.623047" xlink:href="#DejaVuSans-31"/>
     <use x="127.246094" xlink:href="#DejaVuSans-39"/>
     <use x="190.869141" xlink:href="#DejaVuSans-20"/>
     <use x="222.65625" xlink:href="#DejaVuSans-63"/>
     <use x="277.636719" xlink:href="#DejaVuSans-6f"/>
     <use x="338.818359" xlink:href="#DejaVuSans-6d"/>
     <use x="436.230469" xlink:href="#DejaVuSans-70"/>
     <use x="499.707031" xlink:href="#DejaVuSans-6f"/>
     <use x="560.888672" xlink:href="#DejaVuSans-6e"/>
     <use x="624.267578" xlink:href="#DejaVuSans-65"/>
     <use x="685.791016" xlink:href="#DejaVuSans-6e"/>
     <use x="749.169922" xlink:href="#DejaVuSans-74"/>
     <use x="788.378906" xlink:href="#DejaVuSans-73"/>
     <use x="840.478516" xlink:href="#DejaVuSans-20"/>
     <use x="872.265625" xlink:href="#DejaVuSans-65"/>
     <use x="933.773438" xlink:href="#DejaVuSans-78"/>
     <use x="992.953125" xlink:href="#DejaVuSans-70"/>
     <use x="1056.429688" xlink:href="#DejaVuSans-6c"/>
     <use x="1084.212891" xlink:href="#DejaVuSans-61"/>
     <use x="1145.492188" xlink:href="#DejaVuSans-69"/>
     <use x="1173.275391" xlink:href="#DejaVuSans-6e"/>
    </g>
    <!-- 70% of variance -->
    <g transform="translate(757.142159 272.36586)rotate(-90)scale(0.0579 -0.0579)">
     <use xlink:href="#DejaVuSans-37"/>
     <use x="63.623047" xlink:href="#DejaVuSans-30"/>
     <use x="127.246094" xlink:href="#DejaVuSans-25"/>
     <use x="222.265625" xlink:href="#DejaVuSans-20"/>
     <use x="254.052734" xlink:href="#DejaVuSans-6f"/>
     <use x="315.234375" xlink:href="#DejaVuSans-66"/>
     <use x="350.439453" xlink:href="#DejaVuSans-20"/>
     <use x="382.226562" xlink:href="#DejaVuSans-76"/>
     <use x="441.40625" xlink:href="#DejaVuSans-61"/>
     <use x="502.685547" xlink:href="#DejaVuSans-72"/>
     <use x="543.798828" xlink:href="#DejaVuSans-69"/>
     <use x="571.582031" xlink:href="#DejaVuSans-61"/>
     <use x="632.861328" xlink:href="#DejaVuSans-6e"/>
     <use x="696.240234" xlink:href="#DejaVuSans-63"/>
     <use x="751.220703" xlink:href="#DejaVuSans-65"/>
    </g>
   </g>
   <g id="text_37">
    <g id="patch_24">
     <path d="M 614.166663 63.643428 
L 622.997813 63.643428 
Q 625.079813 63.643428 625.079813 61.561428 
L 625.079813 54.844809 
Q 625.079813 52.762809 622.997813 52.762809 
L 614.166663 52.762809 
Q 612.084663 52.762809 612.084663 54.844809 
L 612.084663 61.561428 
Q 612.084663 63.643428 614.166663 63.643428 
z
" style="fill:#ffffff;opacity:0.8;"/>
    </g>
    <!-- 90 -->
    <g transform="translate(614.166663 60.118125)scale(0.0694 -0.0694)">
     <use xlink:href="#DejaVuSans-39"/>
     <use x="63.623047" xlink:href="#DejaVuSans-30"/>
    </g>
   </g>
   <g id="text_38">
    <g id="patch_25">
     <path d="M 809.998006 284.638398 
L 809.998006 213.035096 
Q 809.998006 211.298096 808.261006 211.298096 
L 796.173838 211.298096 
Q 794.436838 211.298096 794.436838 213.035096 
L 794.436838 284.638398 
Q 794.436838 286.375398 796.173838 286.375398 
L 808.261006 286.375398 
Q 809.998006 286.375398 809.998006 284.638398 
z
" style="fill:#ffffff;opacity:0.8;"/>
    </g>
    <!-- 162 components explain -->
    <g transform="translate(800.573333 284.638398)rotate(-90)scale(0.0579 -0.0579)">
     <use xlink:href="#DejaVuSans-31"/>
     <use x="63.623047" xlink:href="#DejaVuSans-36"/>
     <use x="127.246094" xlink:href="#DejaVuSans-32"/>
     <use x="190.869141" xlink:href="#DejaVuSans-20"/>
     <use x="222.65625" xlink:href="#DejaVuSans-63"/>
     <use x="277.636719" xlink:href="#DejaVuSans-6f"/>
     <use x="338.818359" xlink:href="#DejaVuSans-6d"/>
     <use x="436.230469" xlink:href="#DejaVuSans-70"/>
     <use x="499.707031" xlink:href="#DejaVuSans-6f"/>
     <use x="560.888672" xlink:href="#DejaVuSans-6e"/>
     <use x="624.267578" xlink:href="#DejaVuSans-65"/>
     <use x="685.791016" xlink:href="#DejaVuSans-6e"/>
     <use x="749.169922" xlink:href="#DejaVuSans-74"/>
     <use x="788.378906" xlink:href="#DejaVuSans-73"/>
     <use x="840.478516" xlink:href="#DejaVuSans-20"/>
     <use x="872.265625" xlink:href="#DejaVuSans-65"/>
     <use x="933.773438" xlink:href="#DejaVuSans-78"/>
     <use x="992.953125" xlink:href="#DejaVuSans-70"/>
     <use x="1056.429688" xlink:href="#DejaVuSans-6c"/>
     <use x="1084.212891" xlink:href="#DejaVuSans-61"/>
     <use x="1145.492188" xlink:href="#DejaVuSans-69"/>
     <use x="1173.275391" xlink:href="#DejaVuSans-6e"/>
    </g>
    <!-- 90% of variance -->
    <g transform="translate(807.056867 272.36586)rotate(-90)scale(0.0579 -0.0579)">
     <use xlink:href="#DejaVuSans-39"/>
     <use x="63.623047" xlink:href="#DejaVuSans-30"/>
     <use x="127.246094" xlink:href="#DejaVuSans-25"/>
     <use x="222.265625" xlink:href="#DejaVuSans-20"/>
     <use x="254.052734" xlink:href="#DejaVuSans-6f"/>
     <use x="315.234375" xlink:href="#DejaVuSans-66"/>
     <use x="350.439453" xlink:href="#DejaVuSans-20"/>
     <use x="382.226562" xlink:href="#DejaVuSans-76"/>
     <use x="441.40625" xlink:href="#DejaVuSans-61"/>
     <use x="502.685547" xlink:href="#DejaVuSans-72"/>
     <use x="543.798828" xlink:href="#DejaVuSans-69"/>
     <use x="571.582031" xlink:href="#DejaVuSans-61"/>
     <use x="632.861328" xlink:href="#DejaVuSans-6e"/>
     <use x="696.240234" xlink:href="#DejaVuSans-63"/>
     <use x="751.220703" xlink:href="#DejaVuSans-65"/>
    </g>
   </g>
   <g id="text_39">
    <!-- aCompCor (combined mask) -->
    <g transform="translate(638.713655 16.318125)scale(0.12 -0.12)">
     <use xlink:href="#DejaVuSans-61"/>
     <use x="61.279297" xlink:href="#DejaVuSans-43"/>
     <use x="131.103516" xlink:href="#DejaVuSans-6f"/>
     <use x="192.285156" xlink:href="#DejaVuSans-6d"/>
     <use x="289.697266" xlink:href="#DejaVuSans-70"/>
     <use x="353.173828" xlink:href="#DejaVuSans-43"/>
     <use x="422.998047" xlink:href="#DejaVuSans-6f"/>
     <use x="484.179688" xlink:href="#DejaVuSans-72"/>
     <use x="525.292969" xlink:href="#DejaVuSans-20"/>
     <use x="557.080078" xlink:href="#DejaVuSans-28"/>
     <use x="596.09375" xlink:href="#DejaVuSans-63"/>
     <use x="651.074219" xlink:href="#DejaVuSans-6f"/>
     <use x="712.255859" xlink:href="#DejaVuSans-6d"/>
     <use x="809.667969" xlink:href="#DejaVuSans-62"/>
     <use x="873.144531" xlink:href="#DejaVuSans-69"/>
     <use x="900.927734" xlink:href="#DejaVuSans-6e"/>
     <use x="964.306641" xlink:href="#DejaVuSans-65"/>
     <use x="1025.830078" xlink:href="#DejaVuSans-64"/>
     <use x="1089.306641" xlink:href="#DejaVuSans-20"/>
     <use x="1121.09375" xlink:href="#DejaVuSans-6d"/>
     <use x="1218.505859" xlink:href="#DejaVuSans-61"/>
     <use x="1279.785156" xlink:href="#DejaVuSans-73"/>
     <use x="1331.884766" xlink:href="#DejaVuSans-6b"/>
     <use x="1389.794922" xlink:href="#DejaVuSans-29"/>
    </g>
   </g>
  </g>
  <g id="axes_4">
   <g id="patch_26">
    <path d="M 894.269429 299.518125 
L 1136.878125 299.518125 
L 1136.878125 22.318125 
L 894.269429 22.318125 
z
" style="fill:#ffffff;"/>
   </g>
   <g id="matplotlib.axis_7">
    <g id="xtick_13">
     <g id="line2d_34">
      <g>
       <use style="stroke:#000000;stroke-width:0.8;" x="905.297097" xlink:href="#m4dc18be86e" y="299.518125"/>
      </g>
     </g>
     <g id="text_40">
      <!-- 0 -->
      <g transform="translate(907.212104 310.9337)rotate(-90)scale(0.0694 -0.0694)">
       <use xlink:href="#DejaVuSans-30"/>
      </g>
     </g>
    </g>
    <g id="xtick_14">
     <g id="line2d_35">
      <g>
       <use style="stroke:#000000;stroke-width:0.8;" x="963.337455" xlink:href="#m4dc18be86e" y="299.518125"/>
      </g>
     </g>
     <g id="text_41">
      <!-- 50 -->
      <g transform="translate(965.252461 315.349275)rotate(-90)scale(0.0694 -0.0694)">
       <use xlink:href="#DejaVuSans-35"/>
       <use x="63.623047" xlink:href="#DejaVuSans-30"/>
      </g>
     </g>
    </g>
    <g id="xtick_15">
     <g id="line2d_36">
      <g>
       <use style="stroke:#000000;stroke-width:0.8;" x="1021.377813" xlink:href="#m4dc18be86e" y="299.518125"/>
      </g>
     </g>
     <g id="text_42">
      <!-- 100 -->
      <g transform="translate(1023.292819 319.76485)rotate(-90)scale(0.0694 -0.0694)">
       <use xlink:href="#DejaVuSans-31"/>
       <use x="63.623047" xlink:href="#DejaVuSans-30"/>
       <use x="127.246094" xlink:href="#DejaVuSans-30"/>
      </g>
     </g>
    </g>
    <g id="xtick_16">
     <g id="line2d_37">
      <g>
       <use style="stroke:#000000;stroke-width:0.8;" x="1079.418171" xlink:href="#m4dc18be86e" y="299.518125"/>
      </g>
     </g>
     <g id="text_43">
      <!-- 150 -->
      <g transform="translate(1081.333177 319.76485)rotate(-90)scale(0.0694 -0.0694)">
       <use xlink:href="#DejaVuSans-31"/>
       <use x="63.623047" xlink:href="#DejaVuSans-35"/>
       <use x="127.246094" xlink:href="#DejaVuSans-30"/>
      </g>
     </g>
    </g>
    <g id="text_44">
     <!-- number of components in model -->
     <g transform="translate(933.865183 331.363288)scale(0.1 -0.1)">
      <use xlink:href="#DejaVuSans-6e"/>
      <use x="63.378906" xlink:href="#DejaVuSans-75"/>
      <use x="126.757812" xlink:href="#DejaVuSans-6d"/>
      <use x="224.169922" xlink:href="#DejaVuSans-62"/>
      <use x="287.646484" xlink:href="#DejaVuSans-65"/>
      <use x="349.169922" xlink:href="#DejaVuSans-72"/>
      <use x="390.283203" xlink:href="#DejaVuSans-20"/>
      <use x="422.070312" xlink:href="#DejaVuSans-6f"/>
      <use x="483.251953" xlink:href="#DejaVuSans-66"/>
      <use x="518.457031" xlink:href="#DejaVuSans-20"/>
      <use x="550.244141" xlink:href="#DejaVuSans-63"/>
      <use x="605.224609" xlink:href="#DejaVuSans-6f"/>
      <use x="666.40625" xlink:href="#DejaVuSans-6d"/>
      <use x="763.818359" xlink:href="#DejaVuSans-70"/>
      <use x="827.294922" xlink:href="#DejaVuSans-6f"/>
      <use x="888.476562" xlink:href="#DejaVuSans-6e"/>
      <use x="951.855469" xlink:href="#DejaVuSans-65"/>
      <use x="1013.378906" xlink:href="#DejaVuSans-6e"/>
      <use x="1076.757812" xlink:href="#DejaVuSans-74"/>
      <use x="1115.966797" xlink:href="#DejaVuSans-73"/>
      <use x="1168.066406" xlink:href="#DejaVuSans-20"/>
      <use x="1199.853516" xlink:href="#DejaVuSans-69"/>
      <use x="1227.636719" xlink:href="#DejaVuSans-6e"/>
      <use x="1291.015625" xlink:href="#DejaVuSans-20"/>
      <use x="1322.802734" xlink:href="#DejaVuSans-6d"/>
      <use x="1420.214844" xlink:href="#DejaVuSans-6f"/>
      <use x="1481.396484" xlink:href="#DejaVuSans-64"/>
      <use x="1544.873047" xlink:href="#DejaVuSans-65"/>
      <use x="1606.396484" xlink:href="#DejaVuSans-6c"/>
     </g>
    </g>
   </g>
   <g id="matplotlib.axis_8">
    <g id="text_45">
     <!-- cumulative variance explained (%) -->
     <g transform="translate(888.189742 248.130625)rotate(-90)scale(0.1 -0.1)">
      <use xlink:href="#DejaVuSans-63"/>
      <use x="54.980469" xlink:href="#DejaVuSans-75"/>
      <use x="118.359375" xlink:href="#DejaVuSans-6d"/>
      <use x="215.771484" xlink:href="#DejaVuSans-75"/>
      <use x="279.150391" xlink:href="#DejaVuSans-6c"/>
      <use x="306.933594" xlink:href="#DejaVuSans-61"/>
      <use x="368.212891" xlink:href="#DejaVuSans-74"/>
      <use x="407.421875" xlink:href="#DejaVuSans-69"/>
      <use x="435.205078" xlink:href="#DejaVuSans-76"/>
      <use x="494.384766" xlink:href="#DejaVuSans-65"/>
      <use x="555.908203" xlink:href="#DejaVuSans-20"/>
      <use x="587.695312" xlink:href="#DejaVuSans-76"/>
      <use x="646.875" xlink:href="#DejaVuSans-61"/>
      <use x="708.154297" xlink:href="#DejaVuSans-72"/>
      <use x="749.267578" xlink:href="#DejaVuSans-69"/>
      <use x="777.050781" xlink:href="#DejaVuSans-61"/>
      <use x="838.330078" xlink:href="#DejaVuSans-6e"/>
      <use x="901.708984" xlink:href="#DejaVuSans-63"/>
      <use x="956.689453" xlink:href="#DejaVuSans-65"/>
      <use x="1018.212891" xlink:href="#DejaVuSans-20"/>
      <use x="1050" xlink:href="#DejaVuSans-65"/>
      <use x="1111.507812" xlink:href="#DejaVuSans-78"/>
      <use x="1170.6875" xlink:href="#DejaVuSans-70"/>
      <use x="1234.164062" xlink:href="#DejaVuSans-6c"/>
      <use x="1261.947266" xlink:href="#DejaVuSans-61"/>
      <use x="1323.226562" xlink:href="#DejaVuSans-69"/>
      <use x="1351.009766" xlink:href="#DejaVuSans-6e"/>
      <use x="1414.388672" xlink:href="#DejaVuSans-65"/>
      <use x="1475.912109" xlink:href="#DejaVuSans-64"/>
      <use x="1539.388672" xlink:href="#DejaVuSans-20"/>
      <use x="1571.175781" xlink:href="#DejaVuSans-28"/>
      <use x="1610.189453" xlink:href="#DejaVuSans-25"/>
      <use x="1705.208984" xlink:href="#DejaVuSans-29"/>
     </g>
    </g>
   </g>
   <g id="line2d_38">
    <path clip-path="url(#p002ceb56c6)" d="M 905.297097 286.918125 
L 907.618712 218.146536 
L 908.779519 186.197638 
L 909.940326 165.679622 
L 911.101133 152.539048 
L 912.26194 141.661839 
L 913.422747 134.002481 
L 915.744362 122.219799 
L 916.905169 117.116886 
L 919.226783 108.287861 
L 920.38759 104.464472 
L 921.548398 101.363919 
L 923.870012 96.127943 
L 925.030819 93.879802 
L 927.352433 90.183638 
L 930.834855 85.512498 
L 933.156469 82.949052 
L 935.478083 80.69923 
L 938.960505 77.629415 
L 942.442926 74.987416 
L 945.925348 72.690135 
L 950.568576 69.909071 
L 954.050998 68.086021 
L 959.855034 65.333236 
L 964.498262 63.349675 
L 970.302298 61.10483 
L 977.267141 58.806974 
L 984.231984 56.742288 
L 992.357634 54.589804 
L 1001.644091 52.371187 
L 1012.091356 50.128793 
L 1023.699427 47.873645 
L 1037.629113 45.442892 
L 1052.719606 43.081593 
L 1068.970906 40.793899 
L 1085.222207 38.716487 
L 1101.473507 36.866505 
L 1118.885614 35.122986 
L 1122.368036 34.918125 
L 1125.850457 34.918125 
L 1125.850457 34.918125 
" style="fill:none;stroke:#800080;stroke-linecap:square;stroke-width:2.5;"/>
   </g>
   <g id="line2d_39">
    <path clip-path="url(#p002ceb56c6)" d="M 894.269429 160.918125 
L 1136.878125 160.918125 
" style="fill:none;stroke:#d3d3d3;stroke-linecap:square;stroke-width:0.25;"/>
   </g>
   <g id="line2d_40">
    <path clip-path="url(#p002ceb56c6)" d="M 911.101133 299.518125 
L 911.101133 22.318125 
" style="fill:none;stroke:#1f77b4;stroke-dasharray:2,3.3;stroke-dashoffset:0;stroke-width:2;"/>
   </g>
   <g id="line2d_41">
    <path clip-path="url(#p002ceb56c6)" d="M 894.269429 110.518125 
L 1136.878125 110.518125 
" style="fill:none;stroke:#d3d3d3;stroke-linecap:square;stroke-width:0.25;"/>
   </g>
   <g id="line2d_42">
    <path clip-path="url(#p002ceb56c6)" d="M 919.226783 299.518125 
L 919.226783 22.318125 
" style="fill:none;stroke:#ff7f0e;stroke-dasharray:2,3.3;stroke-dashoffset:0;stroke-width:2;"/>
   </g>
   <g id="line2d_43">
    <path clip-path="url(#p002ceb56c6)" d="M 894.269429 60.118125 
L 1136.878125 60.118125 
" style="fill:none;stroke:#d3d3d3;stroke-linecap:square;stroke-width:0.25;"/>
   </g>
   <g id="line2d_44">
    <path clip-path="url(#p002ceb56c6)" d="M 973.78472 299.518125 
L 973.78472 22.318125 
" style="fill:none;stroke:#2ca02c;stroke-dasharray:2,3.3;stroke-dashoffset:0;stroke-width:2;"/>
   </g>
   <g id="patch_27">
    <path d="M 894.269429 299.518125 
L 1136.878125 299.518125 
" style="fill:none;stroke:#000000;stroke-linecap:square;stroke-linejoin:miter;stroke-width:0.8;"/>
   </g>
   <g id="text_46">
    <g id="patch_28">
     <path d="M 905.297097 164.443428 
L 914.128247 164.443428 
Q 916.210247 164.443428 916.210247 162.361428 
L 916.210247 155.644809 
Q 916.210247 153.562809 914.128247 153.562809 
L 905.297097 153.562809 
Q 903.215097 153.562809 903.215097 155.644809 
L 903.215097 162.361428 
Q 903.215097 164.443428 905.297097 164.443428 
z
" style="fill:#ffffff;opacity:0.8;"/>
    </g>
    <!-- 50 -->
    <g transform="translate(905.297097 160.918125)scale(0.0694 -0.0694)">
     <use xlink:href="#DejaVuSans-35"/>
     <use x="63.623047" xlink:href="#DejaVuSans-30"/>
    </g>
   </g>
   <g id="text_47">
    <g id="patch_29">
     <path d="M 918.881717 277.270623 
L 918.881717 213.035096 
Q 918.881717 211.298096 917.144717 211.298096 
L 905.057549 211.298096 
Q 903.320549 211.298096 903.320549 213.035096 
L 903.320549 277.270623 
Q 903.320549 279.007623 905.057549 279.007623 
L 917.144717 279.007623 
Q 918.881717 279.007623 918.881717 277.270623 
z
" style="fill:#ffffff;opacity:0.8;"/>
    </g>
    <!-- 5 components explain -->
    <g transform="translate(909.457045 277.270623)rotate(-90)scale(0.0579 -0.0579)">
     <use xlink:href="#DejaVuSans-35"/>
     <use x="63.623047" xlink:href="#DejaVuSans-20"/>
     <use x="95.410156" xlink:href="#DejaVuSans-63"/>
     <use x="150.390625" xlink:href="#DejaVuSans-6f"/>
     <use x="211.572266" xlink:href="#DejaVuSans-6d"/>
     <use x="308.984375" xlink:href="#DejaVuSans-70"/>
     <use x="372.460938" xlink:href="#DejaVuSans-6f"/>
     <use x="433.642578" xlink:href="#DejaVuSans-6e"/>
     <use x="497.021484" xlink:href="#DejaVuSans-65"/>
     <use x="558.544922" xlink:href="#DejaVuSans-6e"/>
     <use x="621.923828" xlink:href="#DejaVuSans-74"/>
     <use x="661.132812" xlink:href="#DejaVuSans-73"/>
     <use x="713.232422" xlink:href="#DejaVuSans-20"/>
     <use x="745.019531" xlink:href="#DejaVuSans-65"/>
     <use x="806.527344" xlink:href="#DejaVuSans-78"/>
     <use x="865.707031" xlink:href="#DejaVuSans-70"/>
     <use x="929.183594" xlink:href="#DejaVuSans-6c"/>
     <use x="956.966797" xlink:href="#DejaVuSans-61"/>
     <use x="1018.246094" xlink:href="#DejaVuSans-69"/>
     <use x="1046.029297" xlink:href="#DejaVuSans-6e"/>
    </g>
    <!-- 50% of variance -->
    <g transform="translate(915.940578 268.681972)rotate(-90)scale(0.0579 -0.0579)">
     <use xlink:href="#DejaVuSans-35"/>
     <use x="63.623047" xlink:href="#DejaVuSans-30"/>
     <use x="127.246094" xlink:href="#DejaVuSans-25"/>
     <use x="222.265625" xlink:href="#DejaVuSans-20"/>
     <use x="254.052734" xlink:href="#DejaVuSans-6f"/>
     <use x="315.234375" xlink:href="#DejaVuSans-66"/>
     <use x="350.439453" xlink:href="#DejaVuSans-20"/>
     <use x="382.226562" xlink:href="#DejaVuSans-76"/>
     <use x="441.40625" xlink:href="#DejaVuSans-61"/>
     <use x="502.685547" xlink:href="#DejaVuSans-72"/>
     <use x="543.798828" xlink:href="#DejaVuSans-69"/>
     <use x="571.582031" xlink:href="#DejaVuSans-61"/>
     <use x="632.861328" xlink:href="#DejaVuSans-6e"/>
     <use x="696.240234" xlink:href="#DejaVuSans-63"/>
     <use x="751.220703" xlink:href="#DejaVuSans-65"/>
    </g>
   </g>
   <g id="text_48">
    <g id="patch_30">
     <path d="M 905.297097 114.043428 
L 914.128247 114.043428 
Q 916.210247 114.043428 916.210247 111.961428 
L 916.210247 105.244809 
Q 916.210247 103.162809 914.128247 103.162809 
L 905.297097 103.162809 
Q 903.215097 103.162809 903.215097 105.244809 
L 903.215097 111.961428 
Q 903.215097 114.043428 905.297097 114.043428 
z
" style="fill:#ffffff;opacity:0.8;"/>
    </g>
    <!-- 70 -->
    <g transform="translate(905.297097 110.518125)scale(0.0694 -0.0694)">
     <use xlink:href="#DejaVuSans-37"/>
     <use x="63.623047" xlink:href="#DejaVuSans-30"/>
    </g>
   </g>
   <g id="text_49">
    <g id="patch_31">
     <path d="M 927.007367 280.95451 
L 927.007367 213.035096 
Q 927.007367 211.298096 925.270367 211.298096 
L 913.183199 211.298096 
Q 911.446199 211.298096 911.446199 213.035096 
L 911.446199 280.95451 
Q 911.446199 282.69151 913.183199 282.69151 
L 925.270367 282.69151 
Q 927.007367 282.69151 927.007367 280.95451 
z
" style="fill:#ffffff;opacity:0.8;"/>
    </g>
    <!-- 12 components explain -->
    <g transform="translate(917.582695 280.95451)rotate(-90)scale(0.0579 -0.0579)">
     <use xlink:href="#DejaVuSans-31"/>
     <use x="63.623047" xlink:href="#DejaVuSans-32"/>
     <use x="127.246094" xlink:href="#DejaVuSans-20"/>
     <use x="159.033203" xlink:href="#DejaVuSans-63"/>
     <use x="214.013672" xlink:href="#DejaVuSans-6f"/>
     <use x="275.195312" xlink:href="#DejaVuSans-6d"/>
     <use x="372.607422" xlink:href="#DejaVuSans-70"/>
     <use x="436.083984" xlink:href="#DejaVuSans-6f"/>
     <use x="497.265625" xlink:href="#DejaVuSans-6e"/>
     <use x="560.644531" xlink:href="#DejaVuSans-65"/>
     <use x="622.167969" xlink:href="#DejaVuSans-6e"/>
     <use x="685.546875" xlink:href="#DejaVuSans-74"/>
     <use x="724.755859" xlink:href="#DejaVuSans-73"/>
     <use x="776.855469" xlink:href="#DejaVuSans-20"/>
     <use x="808.642578" xlink:href="#DejaVuSans-65"/>
     <use x="870.150391" xlink:href="#DejaVuSans-78"/>
     <use x="929.330078" xlink:href="#DejaVuSans-70"/>
     <use x="992.806641" xlink:href="#DejaVuSans-6c"/>
     <use x="1020.589844" xlink:href="#DejaVuSans-61"/>
     <use x="1081.869141" xlink:href="#DejaVuSans-69"/>
     <use x="1109.652344" xlink:href="#DejaVuSans-6e"/>
    </g>
    <!-- 70% of variance -->
    <g transform="translate(924.066228 270.523916)rotate(-90)scale(0.0579 -0.0579)">
     <use xlink:href="#DejaVuSans-37"/>
     <use x="63.623047" xlink:href="#DejaVuSans-30"/>
     <use x="127.246094" xlink:href="#DejaVuSans-25"/>
     <use x="222.265625" xlink:href="#DejaVuSans-20"/>
     <use x="254.052734" xlink:href="#DejaVuSans-6f"/>
     <use x="315.234375" xlink:href="#DejaVuSans-66"/>
     <use x="350.439453" xlink:href="#DejaVuSans-20"/>
     <use x="382.226562" xlink:href="#DejaVuSans-76"/>
     <use x="441.40625" xlink:href="#DejaVuSans-61"/>
     <use x="502.685547" xlink:href="#DejaVuSans-72"/>
     <use x="543.798828" xlink:href="#DejaVuSans-69"/>
     <use x="571.582031" xlink:href="#DejaVuSans-61"/>
     <use x="632.861328" xlink:href="#DejaVuSans-6e"/>
     <use x="696.240234" xlink:href="#DejaVuSans-63"/>
     <use x="751.220703" xlink:href="#DejaVuSans-65"/>
    </g>
   </g>
   <g id="text_50">
    <g id="patch_32">
     <path d="M 905.297097 63.643428 
L 914.128247 63.643428 
Q 916.210247 63.643428 916.210247 61.561428 
L 916.210247 54.844809 
Q 916.210247 52.762809 914.128247 52.762809 
L 905.297097 52.762809 
Q 903.215097 52.762809 903.215097 54.844809 
L 903.215097 61.561428 
Q 903.215097 63.643428 905.297097 63.643428 
z
" style="fill:#ffffff;opacity:0.8;"/>
    </g>
    <!-- 90 -->
    <g transform="translate(905.297097 60.118125)scale(0.0694 -0.0694)">
     <use xlink:href="#DejaVuSans-39"/>
     <use x="63.623047" xlink:href="#DejaVuSans-30"/>
    </g>
   </g>
   <g id="text_51">
    <g id="patch_33">
     <path d="M 981.565303 280.95451 
L 981.565303 213.035096 
Q 981.565303 211.298096 979.828303 211.298096 
L 967.741136 211.298096 
Q 966.004136 211.298096 966.004136 213.035096 
L 966.004136 280.95451 
Q 966.004136 282.69151 967.741136 282.69151 
L 979.828303 282.69151 
Q 981.565303 282.69151 981.565303 280.95451 
z
" style="fill:#ffffff;opacity:0.8;"/>
    </g>
    <!-- 59 components explain -->
    <g transform="translate(972.140631 280.95451)rotate(-90)scale(0.0579 -0.0579)">
     <use xlink:href="#DejaVuSans-35"/>
     <use x="63.623047" xlink:href="#DejaVuSans-39"/>
     <use x="127.246094" xlink:href="#DejaVuSans-20"/>
     <use x="159.033203" xlink:href="#DejaVuSans-63"/>
     <use x="214.013672" xlink:href="#DejaVuSans-6f"/>
     <use x="275.195312" xlink:href="#DejaVuSans-6d"/>
     <use x="372.607422" xlink:href="#DejaVuSans-70"/>
     <use x="436.083984" xlink:href="#DejaVuSans-6f"/>
     <use x="497.265625" xlink:href="#DejaVuSans-6e"/>
     <use x="560.644531" xlink:href="#DejaVuSans-65"/>
     <use x="622.167969" xlink:href="#DejaVuSans-6e"/>
     <use x="685.546875" xlink:href="#DejaVuSans-74"/>
     <use x="724.755859" xlink:href="#DejaVuSans-73"/>
     <use x="776.855469" xlink:href="#DejaVuSans-20"/>
     <use x="808.642578" xlink:href="#DejaVuSans-65"/>
     <use x="870.150391" xlink:href="#DejaVuSans-78"/>
     <use x="929.330078" xlink:href="#DejaVuSans-70"/>
     <use x="992.806641" xlink:href="#DejaVuSans-6c"/>
     <use x="1020.589844" xlink:href="#DejaVuSans-61"/>
     <use x="1081.869141" xlink:href="#DejaVuSans-69"/>
     <use x="1109.652344" xlink:href="#DejaVuSans-6e"/>
    </g>
    <!-- 90% of variance -->
    <g transform="translate(978.624164 270.523916)rotate(-90)scale(0.0579 -0.0579)">
     <use xlink:href="#DejaVuSans-39"/>
     <use x="63.623047" xlink:href="#DejaVuSans-30"/>
     <use x="127.246094" xlink:href="#DejaVuSans-25"/>
     <use x="222.265625" xlink:href="#DejaVuSans-20"/>
     <use x="254.052734" xlink:href="#DejaVuSans-6f"/>
     <use x="315.234375" xlink:href="#DejaVuSans-66"/>
     <use x="350.439453" xlink:href="#DejaVuSans-20"/>
     <use x="382.226562" xlink:href="#DejaVuSans-76"/>
     <use x="441.40625" xlink:href="#DejaVuSans-61"/>
     <use x="502.685547" xlink:href="#DejaVuSans-72"/>
     <use x="543.798828" xlink:href="#DejaVuSans-69"/>
     <use x="571.582031" xlink:href="#DejaVuSans-61"/>
     <use x="632.861328" xlink:href="#DejaVuSans-6e"/>
     <use x="696.240234" xlink:href="#DejaVuSans-63"/>
     <use x="751.220703" xlink:href="#DejaVuSans-65"/>
    </g>
   </g>
   <g id="text_52">
    <!-- tCompCor -->
    <g transform="translate(985.379715 16.318125)scale(0.12 -0.12)">
     <use xlink:href="#DejaVuSans-74"/>
     <use x="39.208984" xlink:href="#DejaVuSans-43"/>
     <use x="109.033203" xlink:href="#DejaVuSans-6f"/>
     <use x="170.214844" xlink:href="#DejaVuSans-6d"/>
     <use x="267.626953" xlink:href="#DejaVuSans-70"/>
     <use x="331.103516" xlink:href="#DejaVuSans-43"/>
     <use x="400.927734" xlink:href="#DejaVuSans-6f"/>
     <use x="462.109375" xlink:href="#DejaVuSans-72"/>
    </g>
   </g>
  </g>
 </g>
 <defs>
  <clipPath id="p142a22a52b">
   <rect height="277.2" width="242.608696" x="20.878125" y="22.318125"/>
  </clipPath>
  <clipPath id="p6828879f73">
   <rect height="277.2" width="242.608696" x="312.00856" y="22.318125"/>
  </clipPath>
  <clipPath id="pa35615ad62">
   <rect height="277.2" width="242.608696" x="603.138995" y="22.318125"/>
  </clipPath>
  <clipPath id="p002ceb56c6">
   <rect height="277.2" width="242.608696" x="894.269429" y="22.318125"/>
  </clipPath>
 </defs>
</svg>
